<?xml version="1.0" standalone="no"?>
<!DOCTYPE svg PUBLIC "-//W3C//DTD SVG 1.1//EN" "http://www.w3.org/Graphics/SVG/1.1/DTD/svg11.dtd" >
<svg>
<metadata>
Created by FontForge 20090914 at Sat Apr  8 12:26:17 2017
 By www-data
Copyright (c) 1992 Corel Corporation. All Rights Reserved.
</metadata>
<defs>
<font id="DauphinPlain" horiz-adv-x="2662" >
  <font-face 
    font-family="Dauphin"
    font-weight="400"
    font-stretch="normal"
    units-per-em="4096"
    panose-1="2 4 5 2 3 3 11 2 2 4"
    ascent="3276"
    descent="-820"
    x-height="1974"
    cap-height="2494"
    bbox="-295 -1217 3727 3863"
    underline-thickness="50"
    underline-position="-75"
    unicode-range="U+0020-U+2122"
  />
<missing-glyph horiz-adv-x="3072" 
d="M512 0v2560h2048v-2560h-2048zM2494 66v2428h-1916v-2428h1916z" />
    <glyph glyph-name=".notdef" horiz-adv-x="3072" 
d="M512 0v2560h2048v-2560h-2048zM2494 66v2428h-1916v-2428h1916z" />
    <glyph glyph-name="space" unicode=" " horiz-adv-x="967" 
 />
    <glyph glyph-name="exclam" unicode="!" horiz-adv-x="831" 
d="M102 209c0 58.667 25.5 110.167 76.5 154.5s108.833 66.5 173.5 66.5c58.667 -2 108.167 -26.667 148.5 -74s60.5 -101.666 60.5 -162.999c-4 -62.667 -29.333 -117.334 -76 -164.001s-99 -70 -157 -70c-61.333 0 -114.333 25.5 -159 76.5s-67 108.833 -67 173.5z
M418 623l-159.999 -78.001l86 2224l426 295c-48.667 -250 -95.5 -511.833 -140.5 -785.5s-84.833 -545.667 -119.5 -816s-65.334 -550.166 -92.001 -839.499z" />
    <glyph glyph-name="quotedbl" unicode="&#x22;" horiz-adv-x="807" 
d="M311 2318l-69 -655h-58l-90 655c0 134 33 201 99 201c36.667 0 65.5 -15.167 86.5 -45.5s31.5 -65.833 31.5 -106.5v-49zM721 2318l-90 -655h-53l-82 655c0 134 32.667 201 98 201c40.667 0 72 -16.333 94 -49s33 -69.667 33 -111v-41z" />
    <glyph glyph-name="numbersign" unicode="#" horiz-adv-x="1921" 
d="M1249 1479h-475l-69 -496h471zM1737 782h-394l-102 -782h-209l111 782h-463l-111 -782h-209l103 782h-377v193h410l73 495h-385v201h410l102 746h209l-106 -746h475l102 746h209l-106 -746h344v-201h-373l-74 -495h361v-193z" />
    <glyph glyph-name="dollar" unicode="$" horiz-adv-x="1847" 
d="M1544 2281c0 -70.667 -17.1631 -138.499 -51.4961 -203.499s-81.166 -99.5 -140.499 -103.5c-3.33301 4 -13.333 9 -30 15s-28.667 20.333 -36 43c0 9.33301 1.33301 30.666 4 63.999s4 59.666 4 78.999c0 90 -30.833 167 -92.5 231s-139.834 104.333 -234.501 121v-1048
c177.333 -89.333 316 -167.333 416 -234s184 -153.5 252 -260.5s102 -237.167 102 -390.5c-2.66699 -138 -37.334 -264.833 -104.001 -380.5s-158.167 -207.5 -274.5 -275.5s-246.833 -103.333 -391.5 -106v-336h-136v328c-53.333 0 -132.5 10.5 -237.5 31.5
s-211.333 73.833 -319 158.5s-167.834 211 -180.501 379c0 94.667 27.667 179.834 83 255.501s108.333 113.5 159 113.5c43.333 0 65 -27.333 65 -82v-33v-41v-61v-107c6 -24.667 9 -58.667 9 -102c30 -109.333 75.5 -189.5 136.5 -240.5s120.667 -81.833 179 -92.5
s93.5 -17 105.5 -19v1200c-12 0 -53.833 14 -125.5 42s-148.334 70.333 -230.001 127s-153.334 134 -215.001 232s-92.5 215.333 -92.5 352c4 203.333 68 369 192 497s284 201.333 480 220v307h127v-299c90.667 0 204.5 -23.667 341.5 -71s215.5 -150.666 235.5 -310z
M463.004 2040c0 -116 38.501 -220.834 115.501 -314.501s161.167 -154.167 252.5 -181.5v983c-19.333 0 -58 -12.667 -116 -38s-113.833 -74.166 -167.5 -146.5c-53.667 -72.333 -81.834 -173.166 -84.501 -302.499zM967.005 1118v-1118c50 0 107.667 10.833 173 32.5
s128.333 71.334 189 149.001s95.667 193.167 105 346.5c0 94.667 -26 185.5 -78 272.5s-115.833 159.333 -191.5 217s-141.5 91.167 -197.5 100.5z" />
    <glyph glyph-name="percent" unicode="%" horiz-adv-x="2753" 
d="M1151 33l-111 41l545 2007l127 -33zM82 1434c0 113.333 26.665 220.5 79.998 321.5s126.5 181.833 219.5 242.5s195.167 91 306.5 91c104 -2.66699 198.333 -31.5 283 -86.5s152.334 -128.667 203.001 -221s78.334 -190.5 83.001 -294.5
c0 -124.667 -25.5 -240.334 -76.5 -347.001s-121 -191.5 -210 -254.5s-188.5 -94.5 -298.5 -94.5c-108.667 0 -208 29.833 -298 89.5s-161 139.334 -213 239.001s-78.333 204.5 -79 314.5zM241.998 1495c0 -93.333 19.8301 -183.001 59.4971 -269.001
s95.834 -155.5 168.501 -208.5s153.667 -79.5 243 -79.5c70 0.666992 135.5 27 196.5 79s109 119.833 144 203.5s52.5 169.834 52.5 258.501c-3.33301 84 -23.666 163 -60.999 237s-88.833 133.5 -154.5 178.5s-138.5 67.5 -218.5 67.5
c-121.333 0 -221.166 -45.833 -299.499 -137.5s-121.833 -201.5 -130.5 -329.5zM1487 630.999c0 111.333 26.833 217.334 80.5 318.001s127 182 220 244s193.5 93 301.5 93c103.333 -0.666992 197.833 -28.334 283.5 -83.001s154.167 -128 205.5 -220
s79.333 -190.333 84 -295c0 -124 -25.167 -239.667 -75.5 -347s-119.833 -192.333 -208.5 -255s-187.667 -94 -297 -94s-209 29.667 -299 89s-161 138 -213 236s-79.333 202.667 -82 314zM1647 680c6 0 3.00098 -5.33203 -8.99902 -15.999
c5.33301 -140.667 54.5 -264 147.5 -370s205.167 -159 336.5 -159c118.667 12.667 213.167 70.167 283.5 172.5s105.5 226.5 105.5 372.5c-3.33301 84 -23.666 162.667 -61 236c-37.333 73.333 -89 132.166 -155 176.499s-140 66.5 -222 66.5
c-120.667 0 -220.834 -47.333 -300.501 -142s-121.5 -207 -125.5 -337z" />
    <glyph glyph-name="ampersand" unicode="&#x26;" 
d="M1049 1585c112 24 207.5 81.833 286.5 173.5s118.5 196.5 118.5 314.5c0 89.333 -25.833 164.833 -77.5 226.5s-121.5 92.5 -209.5 92.5c-94 0 -158.167 -31.333 -192.5 -94s-57.5 -148.667 -69.5 -258c8 -125.333 56 -277 144 -455zM782 1294
c-186 -78 -284.333 -229.331 -295 -453.998c6 -109.333 33.333 -210.833 82 -304.5s116 -170.334 202 -230.001s184 -91.834 294 -96.501c124.667 8 247.667 50.333 369 127c-248 266 -465.333 585.333 -652 958zM1769 446.002
c90.667 -80.667 158.502 -134.837 203.502 -162.504s98.833 -41.5 161.5 -41.5c88.667 4 161.834 36.833 219.5 98.5c57.667 61.667 92.5 146.167 104.5 253.5l143 -16c-32 -152.667 -74.167 -270.667 -126.5 -354s-114.666 -140.666 -186.999 -171.999
s-160.5 -48.666 -264.5 -51.999c-180.667 0 -348.334 75 -503.001 225c-86.667 -73.333 -188 -130.5 -304 -171.5s-233.333 -61.5 -352 -61.5c-304.667 0 -520.334 117.333 -647.001 352c-50.667 106 -80.667 218 -90 336c4 162.667 61.333 309.334 172 440.001
s254 238 430 322l-57 148.5c-14.667 38.333 -29.334 79.166 -44.001 122.499s-26.167 86 -34.5 128s-13.5 82.333 -15.5 121c10 100 22 173.667 36 221c36 117.333 102.833 208.166 200.5 272.5c97.667 64.333 209.834 96.5 336.501 96.5
c93.333 0 183.166 -19.167 269.499 -57.5s156.5 -93.333 210.5 -165s81 -154.5 81 -248.5c0 -106 -36 -207.167 -108 -303.5s-161.667 -168.5 -269 -216.5l-229 -107c160 -302.667 345.667 -594.667 557 -876c166.667 200 250 367.667 250 503
c0 128.667 -91.667 193 -275 193h-69v151h975v-168c-76.667 -5.33301 -132 -11.166 -166 -17.499s-71.667 -22.166 -113 -47.499c-32 -21.333 -72 -74.333 -120 -159l-166 -289.5c-62.667 -108.333 -132.667 -207.5 -210 -297.5z" />
    <glyph glyph-name="quotesingle" unicode="'" horiz-adv-x="807" 
d="M455 2503h106l152 -361l-426 -868h-193c104 232 175 394 213 486s72.167 203 102.5 333s45.5 266.667 45.5 410z" />
    <glyph glyph-name="parenleft" unicode="(" horiz-adv-x="729" 
d="M664 -393c-66.667 -45.333 -121.501 -78.166 -164.501 -98.499s-105.833 -40.833 -188.5 -61.5c-34 120 -68.667 266.833 -104 440.5s-65 362 -89 565s-36 404.5 -36 604.5v102c4.66699 174.667 16.834 344.167 36.501 508.5s46.334 322.5 80.001 474.5
s73.667 299.833 120 443.5s99.833 292.167 160.5 445.5l127 -86c-62 -186 -112.167 -360 -150.5 -522s-67 -322.667 -86 -482s-30.167 -336.666 -33.5 -531.999c5.33301 -49.333 8 -124.333 8 -225c6.66699 -154 20.167 -305.333 40.5 -454s45.166 -290.834 74.499 -426.501
s61.833 -262.834 97.5 -381.501s71.5 -223.667 107.5 -315z" />
    <glyph glyph-name="parenright" unicode=")" horiz-adv-x="774" 
d="M86 2871c66 48 120.498 82.001 163.498 102.001s105.833 39.333 188.5 58c36.667 -114 73.334 -255 110.001 -423s67.167 -350.667 91.5 -548s36.5 -392.333 36.5 -585c0 -17.333 -0.666992 -42.333 -2 -75s-2 -57 -2 -73c-8 -358 -44.5 -682.5 -109.5 -973.5
s-162.5 -593.167 -292.5 -906.5l-127 90c94 272 162 522.667 204 752s63 482.666 63 759.999c0 210 -11.667 418.5 -35 625.5s-58.666 410 -105.999 609s-108.333 394.833 -183 587.5z" />
    <glyph glyph-name="asterisk" unicode="*" horiz-adv-x="950" 
d="M295 1905l-213 184l311 33l103 270l98 -278l270 -17l-233 -192l82 -258l-250 151l-230 -196z" />
    <glyph glyph-name="plus" unicode="+" horiz-adv-x="1982" 
d="M102 999h787v787h192v-787h791v-200h-782v-799h-201v799h-787v200z" />
    <glyph glyph-name="comma" unicode="," horiz-adv-x="614" 
d="M250 729l69 15.999l209 -401c-87.333 -242.667 -185 -485 -293 -727s-231.333 -500.667 -370 -776h-160c110 194.667 205.5 395.5 286.5 602.5s144.333 420.333 190 640s68.5 434.834 68.5 645.501z" />
    <glyph glyph-name="hyphen" unicode="-" horiz-adv-x="1450" 
d="M1335 983h-1249v266h1249v-266z" />
    <glyph glyph-name="period" unicode="." horiz-adv-x="639" 
d="M86 217c0 63.333 24.5 117.335 73.5 162.002s107.833 67 176.5 67c60.667 -4 110.667 -28.333 150 -73s59 -99.334 59 -164.001s-22.333 -122.5 -67 -173.5s-97.667 -76.5 -159 -76.5c-62 0 -116.333 26.167 -163 78.5s-70 112.166 -70 179.499z" />
    <glyph glyph-name="slash" unicode="/" horiz-adv-x="1454" 
d="M94 33l1163 2478l119 -37l-1151 -2499z" />
    <glyph glyph-name="zero" unicode="0" horiz-adv-x="2208" 
d="M86 1073c4 136 31.334 266.67 82.001 392.003s120.834 236 210.501 332s195.5 171.333 317.5 226s253.333 82 394 82c194 0 367.833 -46.667 521.5 -140s273.5 -219 359.5 -377s130.667 -329.667 134 -515c0 -196.667 -40.833 -377 -122.5 -541
s-198.834 -294.333 -351.501 -391s-330.334 -146.334 -533.001 -149.001c-198 0 -374 49.667 -528 149s-273.167 231.666 -357.5 396.999s-126.5 343.666 -126.5 534.999zM410.001 1081c0 -146 25.999 -288.169 77.999 -426.502s127.667 -252 227 -341
s216 -134.833 350 -137.5c16.667 5.33301 31.667 8 45 8c132 12.667 243 42.834 333 90.501s160.333 108.334 211 182.001s87 156.667 109 249s33.667 195.833 35 310.5c0 249.333 -62.333 458.833 -187 628.5s-301.334 256.5 -530.001 260.5
c-150.667 0 -275.167 -37.833 -373.5 -113.5s-171.166 -176 -218.499 -301s-73.666 -261.5 -78.999 -409.5z" />
    <glyph glyph-name="one" unicode="1" horiz-adv-x="1376" 
d="M369 1839l-151.999 8v152c154 -20 330 -32.333 528 -37c203.333 4.66699 383.666 17 540.999 37v-160h-180c-83.333 0 -139.333 -18.333 -168 -55s-45 -100.334 -49 -191.001l-58 -1065c0 -48.667 -2.66699 -91 -8 -127c10.667 -166 66.667 -249 168 -249h226v-144
c-181.333 16.667 -368.666 25 -561.999 25c-190 0 -379.667 -8.33301 -569 -25v152h201c64.667 0 112.667 4.66699 144 14s56.666 33.833 75.999 73.5s32 105.834 38 198.501l69 1139c0 104 -16.833 171.333 -50.5 202s-98.5 48 -194.5 52z" />
    <glyph glyph-name="two" unicode="2" horiz-adv-x="2105" 
d="M791 303l1216 -126.997l-53 -176c-277.333 16.667 -584.666 25 -921.999 25c-395.333 0 -702.333 -13.667 -921 -41l-29 233c46.667 0 80.667 -2.66699 102 -8c27.333 5.33301 64.333 8 111 8c123.333 13.333 238 56.833 344 130.5s198 165.167 276 274.5
s138.167 223.166 180.5 341.499s63.5 224.5 63.5 318.5c0 128 -30.833 238.5 -92.5 331.5s-148.167 139.5 -259.5 139.5c-114 -8 -205.5 -53.833 -274.5 -137.5s-104.5 -197.5 -106.5 -341.5c2.66699 -22 4 -54.667 4 -98h-119c0 244.667 52.5 446.667 157.5 606
s265.5 242.666 481.5 249.999c96 0 181.5 -23 256.5 -69s134 -110.5 177 -193.5s66.5 -177.167 70.5 -282.5c0 -120.667 -18.833 -233.334 -56.5 -338.001s-88 -203.5 -151 -296.5s-135.5 -186 -217.5 -279z" />
    <glyph glyph-name="three" unicode="3" horiz-adv-x="1384" 
d="M262 377l-45.0039 150.999l414 336c204.667 164.667 307 364 307 598c0 86 -30.5 163.5 -91.5 232.5s-132.833 103.5 -215.5 103.5h-17c-98 -3.33301 -177 -47.333 -237 -132s-101.667 -173.667 -125 -267s-35 -154 -35 -182l-123 102c0 20 27.833 95 83.5 225
s128.834 249.167 219.501 357.5s193.334 162.5 308.001 162.5c92.667 0 175 -21.5 247 -64.5s129.333 -101.833 172 -176.5s68 -156.667 76 -246c0 -111.333 -33.333 -223 -100 -335s-140.167 -209.833 -220.5 -293.5s-125.166 -125.5 -134.499 -125.5
c8 1.33301 21.833 3 41.5 5s42.834 3 69.501 3c110.667 0 208.5 -33 293.5 -99s129.167 -190 132.5 -372c0 -198.667 -52 -383.5 -156 -554.5s-241.667 -307 -413 -408s-350.333 -151.5 -537 -151.5c-59.333 0 -111.5 4.16699 -156.5 12.5s-65.167 12.5 -60.5 12.5v151
c56 -35.333 134 -53 234 -53c116.667 0 234.5 31.667 353.5 95s217.333 155.5 295 276.5s116.5 263.5 116.5 427.5c0 116.667 -19 210 -57 280s-122.667 110.333 -254 121c-55.333 0 -111.833 -14 -169.5 -42s-108 -58.667 -151 -92s-64.5 -52.666 -64.5 -57.999z" />
    <glyph glyph-name="four" unicode="4" horiz-adv-x="2183" 
d="M143 86l-57.001 164c222.667 282 430.667 573 624 873s381.333 619.333 564 958l311 -49l-82 -1663l578 41l-90 -226l-512 -8l-37 -745l-307 -185c38 285.333 57 590 57 914h-184c-231.333 0 -519.666 -24.667 -864.999 -74zM1266 1737l-906 -1368h832z" />
    <glyph glyph-name="five" unicode="5" horiz-adv-x="1352" 
d="M360 1176c15.333 -14.667 80.833 -45.4971 196.5 -92.4971s223.334 -100 323.001 -159s187.5 -140.333 263.5 -244s114 -229.5 114 -377.5c-10.667 -235.333 -75.834 -434.333 -195.501 -597s-269.5 -283.834 -449.5 -363.501s-362 -121.167 -546 -124.5l28 143
c133.333 0 268.666 29.5 405.999 88.5s250.833 141.667 340.5 248s134.5 226.166 134.5 359.499c0 167.333 -39.167 301.166 -117.5 401.499s-198.833 190.5 -361.5 270.5c-175.333 90 -285.166 152.333 -329.499 187s-68.5 81.667 -72.5 141
c11.333 69.333 17 119.666 17 150.999c51.333 540.667 81.333 815.334 90 824.001h966v-312h-848c-30 -191.333 -46.333 -303.333 -49 -336c10 -102.667 40 -172 90 -208z" />
    <glyph glyph-name="six" unicode="6" horiz-adv-x="1769" 
d="M393 897c0 -214 39.0029 -400.334 117.003 -559.001s193.333 -240 346 -244c171.333 0 287.166 92.333 347.499 277s90.5 410.667 90.5 678c0 404 -146 606 -438 606c-50 0 -103.333 -8.33301 -160 -25l9 123c-6 0 24.667 8.83301 92 26.5s126.666 26.5 177.999 26.5
c133.333 0 246.166 -37.167 338.499 -111.5s161.166 -170.5 206.499 -288.5s69.666 -242.667 72.999 -374c0 -174.667 -32 -343.667 -96 -507s-157 -295.833 -279 -397.5s-264.333 -152.5 -427 -152.5c-154.667 0 -284.667 39 -390 117s-183.5 180.833 -234.5 308.5
s-76.5 267.167 -76.5 418.5c0 54.667 1.33301 95.667 4 123c48.667 408.667 150.834 741.334 306.501 998.001s323.834 444.834 504.501 564.5c180.667 119.667 339.5 197.667 476.5 234s230.833 54.5 281.5 54.5l16 -139c-46 0 -127.167 -16.167 -243.5 -48.5
s-251 -105.333 -404 -219s-291.667 -292.5 -416 -536.5s-198.5 -561.667 -222.5 -953z" />
    <glyph glyph-name="seven" unicode="7" horiz-adv-x="1888" 
d="M94 1618l49.001 414h1569l82 -144l-1544 -2650l-131 82l1335 2417h-1085c-56.667 0 -103.334 -8.33301 -140.001 -25s-81.667 -48 -135 -94z" />
    <glyph glyph-name="eight" unicode="8" horiz-adv-x="1778" 
d="M999 1655c256.667 130 385.001 333.333 385.001 610c-4 133.333 -41.5 233.333 -112.5 300s-164.5 102 -280.5 106c-65.333 0 -130.5 -20.167 -195.5 -60.5s-118.333 -94.666 -160 -163c-41.667 -68.333 -63.834 -142.833 -66.501 -223.5c4 0 6.5 -1 7.5 -3
s1.5 -3.66699 1.5 -5c0 -82.667 12.5 -154 37.5 -214s56.833 -109.167 95.5 -147.5s84.167 -73.833 136.5 -106.5zM336.001 639c0 -153.333 42.332 -282.836 126.999 -388.503s204.667 -160.5 360 -164.5c11.333 5.33301 22.333 8 33 8
c156.667 13.333 289.334 79.5 398.001 198.5s163 264.5 163 436.5c-10 108.667 -45.5 200.834 -106.5 276.501s-128.667 135.834 -203 180.501s-186.833 105.334 -337.5 182.001c-6 -3.33301 -31 -19.333 -75 -48s-91.5 -70.834 -142.5 -126.501s-97.333 -129.667 -139 -222
s-67.5 -203.166 -77.5 -332.499zM631 1450c-9.33301 0 -41.502 26.666 -96.502 79.999s-106 124.5 -153 213.5s-70.5 190.5 -70.5 304.5c8 142 39.833 269.5 95.5 382.5s131.834 202.5 228.501 268.5s207.334 100.333 332.001 103c188 0 335.333 -52.167 442 -156.5
s160 -231.166 160 -380.5v-8c0 -139.333 -27.333 -256.5 -82 -351.5s-118.834 -169.833 -192.501 -224.5s-121.5 -89.334 -143.5 -104.001c7.33301 -4 40 -24.667 98 -62s118 -85.5 180 -144.5s118.167 -134.167 168.5 -225.5s77.5 -193 81.5 -305
c0 -154.667 -38.333 -299.667 -115 -435s-180.167 -243.5 -310.5 -324.5s-271.166 -121.5 -422.499 -121.5h-8c-142.667 2.66699 -267.5 34 -374.5 94s-190.833 141.833 -251.5 245.5s-95 219.834 -103 348.501c0 102 24.5 200.167 73.5 294.5s107.5 178.333 175.5 252
s131.667 133.834 191 180.501z" />
    <glyph glyph-name="nine" unicode="9" horiz-adv-x="1696" 
d="M1352 1057c0 134 -11 263.663 -33 388.996s-64.333 233.166 -127 323.499s-150 135.5 -262 135.5c-118.667 0 -216 -48.833 -292 -146.5s-130.333 -219 -163 -364s-49 -293.167 -49 -444.5c2.66699 -168.667 30.667 -307.5 84 -416.5s152.333 -174.833 297 -197.5
c33.333 0 78.333 -5.66699 135 -17c62 11.333 103 17 123 17v-86c6 0 -24.667 -8.66699 -92 -26s-137.666 -27.666 -210.999 -30.999c-11.333 5.33301 -30.333 8 -57 8c-132.667 13.333 -243.667 56.333 -333 129s-155.833 164.834 -199.5 276.501
s-67.167 234.5 -70.5 368.5c0 176.667 34.833 347.334 104.5 512.001s170.334 298 302.001 400s284.5 153 458.5 153c163.333 -7.33301 293.666 -54.166 390.999 -140.499s165.666 -199.166 204.999 -338.499s59 -302 59 -488c-10 -399.333 -90.167 -728.333 -240.5 -987
s-322.5 -450.667 -516.5 -576s-369.5 -209.5 -526.5 -252.5s-258.833 -64.5 -305.5 -64.5l-17 119c43.333 0 132.5 19.667 267.5 59s285 117 450 233s309.333 293.667 433 533s185.5 546 185.5 920z" />
    <glyph glyph-name="colon" unicode=":" horiz-adv-x="713" 
d="M152 1577c4 64 28.832 118.166 74.499 162.499s101.167 66.5 166.5 66.5c62.667 0 113.834 -23 153.501 -69s59.5 -102 59.5 -168c0 -65.333 -21.167 -122.333 -63.5 -171s-94.833 -75 -157.5 -79c-66 0 -121.333 25.833 -166 77.5s-67 111.834 -67 180.501z
M73.999 224.999c4 62.667 30.332 116.667 78.999 162s104 68 166 68c60 -4 111.333 -29 154 -75s64 -100.333 64 -163c0 -65.333 -23.167 -122 -69.5 -170s-101.166 -72 -164.499 -72s-117.333 24.5 -162 73.5s-67 107.833 -67 176.5z" />
    <glyph glyph-name="semicolon" unicode=";" horiz-adv-x="647" 
d="M94 1585c4.66699 58 27.666 109.333 68.999 154s99 67 173 67c63.333 0 115.333 -23 156 -69s61 -102 61 -168c0 -63.333 -23 -120.833 -69 -172.5s-98 -77.5 -156 -77.5c-65.333 0 -120.666 27 -165.999 81s-68 115.667 -68 185zM286.999 729l73.002 16.002l209 -393
c-208.667 -556.667 -432.334 -1060.33 -671.001 -1511h-160c53.333 90 113.666 214.167 180.999 372.5s130.5 326.5 189.5 504.5s106.167 352.667 141.5 524c24.667 117.333 37 279.666 37 486.999z" />
    <glyph glyph-name="less" unicode="&#x3c;" horiz-adv-x="1962" 
d="M94 1016l1761 831v-217l-1495 -725l1495 -688v-209l-1761 807v201z" />
    <glyph glyph-name="equal" unicode="=" horiz-adv-x="1712" 
d="M1602 774v-176h-1520v176h1520zM1602 1200v-168h-1520v168h1520z" />
    <glyph glyph-name="greater" unicode="&#x3e;" horiz-adv-x="1946" 
d="M94 1847l1753 -831v-201l-1753 -807v209l1499 688l-1499 725v217z" />
    <glyph glyph-name="question" unicode="?" horiz-adv-x="1167" 
d="M209 135c0 68.667 21.668 128.833 65.001 180.5s98 77.5 164 77.5c65.333 0 120.666 -24 165.999 -72s68 -104.333 68 -169c0 -66 -22 -123.5 -66 -172.5s-100 -73.5 -168 -73.5c-61.333 0 -113.833 22.833 -157.5 68.5s-67.5 99.167 -71.5 160.5zM975.001 1896
l-557.001 -1359l-115 69l311 889c104 304.667 156 542.334 156 713.001c0 108.667 -25.5 197.167 -76.5 265.5s-127.833 102.5 -230.5 102.5c-112 0 -226.667 -47.667 -344 -143l-37 33c74 154 111 289 111 405c28 10 73.333 22.167 136 36.5s132 21.5 208 21.5
c102.667 0 196.334 -22.5 281.001 -67.5s151.167 -108.667 199.5 -191s72.5 -175.166 72.5 -278.499c0 -142 -38.333 -307.333 -115 -496z" />
    <glyph glyph-name="at" unicode="@" horiz-adv-x="2646" 
d="M1032 631c33.333 -5.33301 55.3359 -8.00098 66.0029 -8.00098c92.667 0 169.167 44.5 229.5 133.5s116.166 206.833 167.499 353.5c49.333 138.667 74 256 74 352c0 69.333 -19 133.833 -57 193.5s-88.667 89.5 -152 89.5c-77.333 0 -154.333 -48.667 -231 -146
s-136.334 -203 -179.001 -317c-39.333 -150 -62.333 -275.667 -69 -377c9.33301 -155.333 59.666 -246.666 150.999 -273.999zM1647 1585l57.0039 212.997h303l-246 -901c0 -9.33301 -6 -36.833 -18 -82.5s-19.667 -82.167 -23 -109.5c12 -53.333 31.333 -83.666 58 -90.999
c21.333 -5.33301 37.666 -8 48.999 -8c70.667 0 146 38 226 114s148.833 171.667 206.5 287s90.834 227.333 99.501 336c5.33301 54.667 8 93 8 115c0 170 -45.833 321.167 -137.5 453.5s-213.5 234.666 -365.5 306.999s-314.667 108.5 -488 108.5
c-180 0 -349.667 -44.5 -509 -133.5s-289.833 -209.333 -391.5 -361s-161.834 -317.5 -180.501 -497.5c-2.66699 -18.667 -4 -48.667 -4 -90c0 -190 47.5 -367.833 142.5 -533.5s224.333 -299.834 388 -402.501s340.5 -158 530.5 -166c154.667 0 300.167 24.333 436.5 73
s250 111.334 341 188.001s149.833 155 176.5 235h213c-128.667 -245.333 -298.334 -417.333 -509.001 -516s-427.334 -148 -650.001 -148c-236 0 -450.833 59 -644.5 177s-345.667 281 -456 489s-165.5 439.333 -165.5 694c14 208 80.833 401.833 200.5 581.5
s273.167 322.334 460.5 428c187.333 105.667 383.333 158.5 588 158.5c198 0 388.167 -43.667 570.5 -131s330.166 -213.5 443.5 -378.5c113.333 -165 170 -357.167 170 -576.5c-10.667 -157.333 -54.667 -305 -132 -443s-177.5 -248.833 -300.5 -332.5
s-255.833 -126.834 -398.5 -129.501c-58 0 -113.5 31.833 -166.5 95.5s-79.5 127.5 -79.5 191.5c-28 -47.333 -62 -92.166 -102 -134.499s-87.333 -77.666 -142 -105.999s-115.334 -43.833 -182.001 -46.5c-10.667 2.66699 -27.167 6.5 -49.5 11.5l-61.5 13.5
c-104.667 30 -188.5 93.667 -251.5 191s-96.5 207 -100.5 329c2.66699 16.667 5.16699 38.334 7.5 65.001s5.5 50 9.5 70c25.333 114 77.666 220.5 156.999 319.5s171.833 177.667 277.5 236s207.834 87.5 306.501 87.5c32 0 64.667 -4 98 -12
c56 -11.333 99.833 -35.166 131.5 -71.499s64.5 -91.833 98.5 -166.5z" />
    <glyph glyph-name="A" unicode="A" 
d="M49 -16l0.000976562 150.998c13.333 0 42 -5.33301 86 -16c165.333 7.33301 285.666 107 360.999 299c376.667 944 580 1607.33 610 1990c58.667 8 104 14.5 136 19.5s64.833 13 98.5 24s74.167 28.167 121.5 51.5l356.5 -1059.5
c59.667 -175 127.834 -362.5 204.501 -562.5l149 -420.5c37.333 -104.333 73 -183.333 107 -237s74.333 -80.5 121 -80.5h185v-135c-123.333 5.33301 -286 8 -488 8c-112 0 -307.333 -5.33301 -586 -16v143l218 -8c111.333 0 167 38.333 167 115
c0 6.66699 -1.33301 17.334 -4 32.001s-4 24.334 -4 29.001l-200 602h-816l-208 -544c-6 -27.333 -14.333 -63 -25 -107c0 -80 75 -125 225 -135c77.333 10.667 130.666 16 159.999 16v-159c-234.667 21.333 -397 32 -487 32c-101.333 0 -264 -10.667 -488 -32zM1257 2159
l-327 -1094h700z" />
    <glyph glyph-name="B" unicode="B" horiz-adv-x="2048" 
d="M33 2351v134.998c264 -12.667 401.667 -19.334 413 -20c67.333 2.66699 158.333 7.33398 273 14c114.667 6.66699 205.334 11.334 272.001 14c129.333 0 249.166 -22.667 359.499 -68s198.166 -110.666 263.499 -196c65.333 -85.333 98 -185.666 98 -300.999
c0 -95.333 -24.5 -188.666 -73.5 -279.999s-122.833 -160.333 -221.5 -207c-6.66699 0 -14.667 -13.667 -24 -41c12.667 -27.333 23.334 -41 32.001 -41c169.333 -30 291.833 -107.833 367.5 -233.5s115.834 -263.5 120.501 -413.5c0 -153.333 -28.667 -287.333 -86 -402
s-143 -204 -257 -268s-253.667 -97.333 -419 -100c-95.333 0 -219.666 15 -372.999 45s-279 45 -377 45c-61.333 0 -137.333 -4.16699 -228 -12.5s-137.334 -12.5 -140.001 -12.5v144h217c130.667 0 196 69.333 196 208v1393c0 308 -36.667 493.667 -110 557
c-20.667 27.333 -68.334 41 -143.001 41h-160zM713 1257v-897.001c0 -87.333 38 -154.833 114 -202.5s170.333 -71.5 283 -71.5c100 3.33301 188.167 24.833 264.5 64.5s136 99.334 179 179.001s64.5 177.5 64.5 293.5c-2.66699 130 -32.667 243 -90 339
s-134.5 169.167 -231.5 219.5s-204.167 75.5 -321.5 75.5h-262zM713 2318l0.000976562 -917h229c126 0 232.667 46.833 320 140.5s131 209.167 131 346.5c-7.33301 149.333 -58.833 258.333 -154.5 327s-214.834 103 -357.501 103h-168z" />
    <glyph glyph-name="C" unicode="C" horiz-adv-x="2560" 
d="M1393 2359c-196.667 0 -371.672 -41.832 -525.005 -125.499s-273.5 -197.667 -360.5 -342s-136.167 -305.166 -147.5 -482.499c0 -208.667 52 -401.5 156 -578.5s242.167 -317.333 414.5 -421s357.833 -156.834 556.5 -159.501c10.667 5.33301 24.334 8 41.001 8
c134.667 4 246.834 16.333 336.501 37s165.834 55.5 228.501 104.5s114.667 117.833 156 206.5l143 307l135 -73l-377 -738c-48 -106 -303.333 -159 -766 -159c-254.667 4.66699 -481.667 66.167 -681 184.5s-354 277.166 -464 476.499s-165 417 -165 653
c2.66699 235.333 63.834 451.333 183.501 648s280.5 352.334 482.5 467c202 114.667 419.667 172 653 172c68.667 0 137.334 -5.5 206.001 -16.5s157 -27.667 265 -50s190.333 -38 247 -47s119 -13.5 187 -13.5v-570h-131c-1.33301 8.66699 -7.33301 41.5 -18 98.5
s-38.667 116.167 -84 177.5s-123 115.5 -233 162.5s-256.333 71.5 -439 73.5z" />
    <glyph glyph-name="D" unicode="D" horiz-adv-x="2761" 
d="M152 2351l-66.0039 0.00390625v152c159.333 -14.667 312.333 -24.334 459 -29.001c80.667 1.33301 204.834 6.5 372.501 15.5s326.167 13.5 475.5 13.5c209.333 0 395 -32.333 557 -97s296.667 -154.167 404 -268.5s188.333 -248.5 243 -402.5s82 -318.667 82 -494
c0 -178 -26.333 -346.333 -79 -505s-132.167 -298.834 -238.5 -420.501s-240.5 -217 -402.5 -286s-348 -103.5 -558 -103.5c-91.333 0 -198.166 7.5 -320.499 22.5l-367 45c-122.333 15 -229.166 22.5 -320.499 22.5c-97.333 0 -199.666 -8 -306.999 -24v160h201
c58.667 0 108.167 17.667 148.5 53s60.5 81.666 60.5 138.999v74v1319c0 195.333 -7.66699 334.333 -23 416.999c-15.333 82.667 -45.5 136.167 -90.5 160.5s-121.833 36.5 -230.5 36.5zM798.996 2327l-0.000976562 -1758c0 -157.333 46 -277.166 138 -359.499
s244 -123.5 456 -123.5c164.667 6.66699 306.334 39.834 425.001 99.501s215 139.167 289 238.5s128.667 213 164 341s54 265 56 411c0 155.333 -25.833 303.833 -77.5 445.5s-126.5 267.667 -224.5 378s-215.667 196.5 -353 258.5s-289 93 -455 93h-99z" />
    <glyph glyph-name="E" unicode="E" horiz-adv-x="2114" 
d="M49 2351v152.002c250.667 -14.667 538.667 -24.334 864 -29c326.667 4.66699 617.667 14.334 873 29l29 -566l-144 -8l-16 152c-7.33301 88 -38 148.167 -92 180.5s-127.333 48.5 -220 48.5h-536v-958l610 16c68.667 5.33301 120 17.666 154 36.999s51 63 51 131v111h139
c0 -112 -2.66699 -199.667 -8 -263c9.33301 -182 17.666 -336 24.999 -462h-148v143c0 95.333 -62.667 143 -188 143l-619 17v-664c0 -82 5.33301 -148.5 16 -199.5s35 -91.833 73 -122.5s94.333 -46 169 -46h422c137.333 0 230.5 46.167 279.5 138.5
s76.167 203.166 81.5 332.499h151l-78 -664c-388 22 -676 33 -864 33c-300 0 -641.333 -13.667 -1024 -41v160h238c104.667 0 173.834 24.833 207.501 74.5s50.5 128.5 50.5 236.5v1249c0 164.667 -6.66699 297.5 -20 398.5s-45 170.167 -95 207.5
c-17.333 22 -80 33 -188 33h-193z" />
    <glyph glyph-name="F" unicode="F" horiz-adv-x="1888" 
d="M1126 143l275.001 25v-143c-208.667 16 -417.667 24 -627 24c-247.333 0 -474 -11 -680 -33v160h242c105.333 0 174.666 24 207.999 72s50 127.667 50 239v1242v192c0 247.333 -38.333 385.333 -115 414c-43.333 21.333 -113 32 -209 32h-176v152
c218 -12 500.667 -23 848 -33c348 9.33301 632 20.333 852 33l4 -565l-143 -8l-8 151c-7.33301 153.333 -111.333 230 -312 230h-463v-959l553 8c66 4.66699 115.333 19.5 148 44.5s49 68.833 49 131.5v111h139c0 -95.333 -2.66699 -169 -8 -221
c11.333 -255.333 22.333 -442.333 33 -561h-156v192c0 96 -62.667 144 -188 144l-561 8v-664c0 -96.667 18.333 -190.5 55 -281.5s100 -136.5 190 -136.5z" />
    <glyph glyph-name="G" unicode="G" horiz-adv-x="2888" 
d="M1577 2376c-222.667 0 -422.169 -41.334 -598.502 -124.001s-314.5 -206 -414.5 -370s-151.333 -362.667 -154 -596c0 -217.333 59.833 -415.833 179.5 -595.5s273.667 -320.5 462 -422.5s377.166 -153 566.499 -153c38 0 66.667 1.33301 86 4l192.5 20.5
c63.667 7 122.334 16.833 176.001 29.5s109.834 31.334 168.501 56.001v463c0 84.667 -32.167 138 -96.5 160s-149.833 33 -256.5 33c-46.667 0 -85.167 -1.16699 -115.5 -3.5s-53.166 -4.16602 -68.499 -5.49902v160c92 -9.33301 251.667 -20.333 479 -33
c273.333 12 471.333 23 594 33v-151c-84 -6 -142.5 -15.833 -175.5 -29.5s-49.5 -51.834 -49.5 -114.501v-258c0 -112 56 -168 168 -168v-94c-106 -68 -268.5 -129 -487.5 -183s-442.833 -87.333 -671.5 -100c-278 0 -528.333 56.667 -751 170s-397 269.5 -523 468.5
s-190.333 421.833 -193 668.5c0 185.333 35.5 358.5 106.5 519.5s172.667 301.667 305 422s290.666 213.333 474.999 279s385.833 98.5 604.5 98.5c188.667 -6.66699 386.834 -28.167 594.501 -64.5s331.834 -62.5 372.5 -78.5v-586h-160v41
c0 64.667 -19.167 132.5 -57.5 203.5s-117.666 136.333 -238 196c-120.333 59.667 -293.5 94.5 -519.5 104.5z" />
    <glyph glyph-name="H" unicode="H" horiz-adv-x="3031" 
d="M2216 1192l-1417 -0.000976562v-463c0 -166 15.167 -306.5 45.5 -421.5s101.166 -172.5 212.499 -172.5h176v-143c-176.667 22 -366.334 33 -569.001 33c-198 0 -385.333 -11 -562 -33v151h193c150 0 225 101 225 303v1360c0 334 -36.667 507.667 -110 521
c-27.333 5.33301 -74 8 -140 8h-168v159c200.667 -22 382.334 -37 545.001 -45c177.333 8 361.666 23 552.999 45v-159h-160c-78.667 0 -131.667 -8.33301 -159 -25c-38.667 -19.333 -63.334 -57.5 -74.001 -114.5s-16 -133.5 -16 -229.5v-582h1425v431
c0 334.667 -34 508 -102 520c-27.333 5.33301 -74 8 -140 8h-168v160c98.667 -12.667 291.334 -25 578.001 -37c262 12 438 24.333 528 37v-160h-151c-67.333 0 -120.666 -11 -160 -33c-32 -15.333 -53.667 -41.833 -65 -79.5s-19.666 -90.167 -25 -157.5
c5.33301 -22 8 -55 8 -99v-1237c0 -120 3.66699 -219.833 11 -299.5s26.833 -148.667 58.5 -207s80.834 -87.5 147.5 -87.5h193v-143c-242 22 -421 33 -537 33c-119.333 0 -317.333 -11 -594 -33v152h201c82 0 138.667 25.833 170 77.5s47 126.834 47 225.501v737z" />
    <glyph glyph-name="I" unicode="I" horiz-adv-x="1311" 
d="M86 2343v151c59.333 -5.33301 238.333 -14.666 537 -28c290.667 12 472 21.333 544 28v-159h-168c-88 0 -148.333 -26.333 -181 -79s-51.334 -130.334 -56.001 -233.001c5.33301 -10.667 8 -27 8 -49v-1245c0 -172.667 13 -313.5 39 -422.5s89.333 -163.5 190 -163.5h193
v-143c-162 22 -346.333 33 -553 33s-391 -11 -553 -33v152h184c144.667 0 217 101 217 303v1360c0 150.667 -5.66699 273.167 -17 367.501c-11.333 94.333 -39.666 145.166 -84.999 152.5c-22 5.33301 -69.667 8 -143 8h-156z" />
    <glyph glyph-name="J" unicode="J" horiz-adv-x="1282" 
d="M754 -49c-64 -165.333 -190.998 -323.668 -380.998 -475.001s-378.667 -264.666 -566 -339.999v135c114 46.667 223.667 118 329 214s190.166 205 254.499 327s96.5 243.333 96.5 364v1630c0 261.333 -23 419.666 -69 475c-32 36 -104.333 54 -217 54h-99v151
c127.333 -12 311.666 -24.333 552.999 -37c226 11.333 402.333 23.666 529 37v-159h-193c-134.667 0 -207 -90.333 -217 -271c5.33301 -22 8 -53.333 8 -94v-1659v-151c0 -64.667 -9.33301 -131.667 -28 -201z" />
    <glyph glyph-name="K" unicode="K" horiz-adv-x="2486" 
d="M135 2343v160c85.333 -12.667 253.333 -25 504 -37c245.333 11.333 413.333 23.666 504 37v-160h-86c-72 0 -133.667 -11 -185 -33c-32.667 -20 -54.167 -47.333 -64.5 -82s-18.833 -86.334 -25.5 -155.001c6 -22 9 -55 9 -99v-1237c1.33301 0 -1.66699 -16.333 -9 -49
c11.333 -155.333 28.5 -285 51.5 -389s70.167 -156 141.5 -156h233v-143c-162 22 -349 33 -561 33c-206 0 -390.333 -11 -553 -33v152h185c86.667 0 144.5 26.333 173.5 79s43.5 127.334 43.5 224.001v1360c0 326.667 -37 500 -111 520c-16.667 5.33301 -55 8 -115 8h-135z
M848 1241l655 823c38.667 38.667 58 89.334 58 152.001c0 84.667 -48 127 -144 127h-131v151c101.333 -15.333 240.666 -27.333 417.999 -36c214 8.66699 384.667 20.667 512 36v-159h-66c-57.333 0 -103 -5 -137 -15s-65.167 -26.833 -93.5 -50.5
s-63.166 -60.5 -104.499 -110.5l-623 -783l301.5 -417.5l308 -388.5c106.333 -128 215 -251.833 326 -371.5s230.5 -241.834 358.5 -366.501l-188 -94l-388.5 362l-383 379.5l-359 385c-113 127 -219.5 252.5 -319.5 376.5z" />
    <glyph glyph-name="L" unicode="L" horiz-adv-x="2298" 
d="M1888 279c50 44.667 87.833 111.332 113.5 199.999s38.5 147.334 38.5 176.001l168 -61c-57.333 -136 -116 -331.333 -176 -586c-314 16.667 -661 25 -1041 25c-334 0 -627.333 -8.33301 -880 -25v152h176c88.667 0 148.334 25.333 179.001 76s46 126.334 46 227.001
v1352c0 127.333 -5.83301 230.166 -17.5 308.499s-37.167 136.5 -76.5 174.5c-26.667 30 -101.667 45 -225 45h-82v160c70.667 -13.333 263 -25.666 577 -37c314 11.333 503.667 20.666 569 28v-159h-200c-177.333 0 -266 -120.333 -266 -361v-1245
c0 -121.333 9.5 -216 28.5 -284s46.667 -117.5 83 -148.5s85.166 -54.833 146.499 -71.5c106 -28.667 239.667 -47.667 401 -57c224.667 9.33301 370.667 46.333 438 111z" />
    <glyph glyph-name="M" unicode="M" horiz-adv-x="3650" 
d="M2646 2150l-773.999 -2142h-111l-987 2159l-102 -1696c0 -16.667 -2.66699 -31.667 -8 -45c12 -182.667 73.333 -274 184 -274h176v-144c-149.333 16.667 -306.333 25 -471 25c-158.667 0 -314.334 -8.33301 -467.001 -25v152h184c54.667 0 96.167 7.66699 124.5 23
s49.5 44.666 63.5 87.999s23.667 107.333 29 192l127 1704c0 6.66699 1.5 18.334 4.5 35c3 16.667 4.5 32.334 4.5 47c0 68 -39.667 102 -119 102h-168v152c51.333 -12 160.666 -24.333 327.999 -37c163.333 11.333 275 23.666 335 36.999
c39.333 -146.667 79 -273.667 119 -381l289 -658.5l303.5 -686c93.667 -210.333 141.834 -317.833 144.501 -322.5c14 31.333 41 98.666 81 201.999l172 453.5l184.5 495l156.5 434.5c25.333 72.667 65 229.667 119 471c96 -20 221.667 -35 377 -45
c130 8.66699 244.667 21 344 37v-160h-184c-59.333 0 -103.5 -12 -132.5 -36s-43.5 -70.667 -43.5 -140l217 -1639c7.33301 -74 16 -135 26 -183s31.167 -93.667 63.5 -137s78.833 -65 139.5 -65h160v-143c-253.333 22 -441.666 33 -565 33
c-104.667 0 -272.667 -11 -504 -33v152h180c150 0 225 66.667 225 200v74z" />
    <glyph glyph-name="N" unicode="N" horiz-adv-x="3113" 
d="M729 2494l1774 -1990l-78 1610c0 89.333 -12.167 147.166 -36.5 173.5c-24.333 26.333 -65.5 39.5 -123.5 39.5h-143h-123l8 167c154 -15.333 316.333 -27.333 487 -36c189.333 8 363 20 521 36v-159h-185c-68 0 -114.333 -14.833 -139 -44.5s-37 -79.167 -37 -148.5
l-8 -2216h-94l-1921 2196l8 -1536c0 -144 17.833 -253.833 53.5 -329.5s112.167 -113.5 229.5 -113.5h176v-143c-148 22 -318.667 33 -512 33c-171.333 0 -339.333 -8.33301 -504 -25v152h143c93.333 0 153.5 25 180.5 75s40.5 126 40.5 228v74v1577
c0 86 -12.333 147 -37 183s-75 54 -151 54h-172v152c56.667 -12.667 167.334 -25 332.001 -37c161.333 12 265 21.333 311 28z" />
    <glyph glyph-name="O" unicode="O" horiz-adv-x="2785" 
d="M94 1294c0 184 33.5 353.833 100.5 509.5s159.5 289.5 277.5 401.5s255 198.667 411 260s320.333 93 493 95c237.333 0 458 -60.167 662 -180.5s365.833 -282.5 485.5 -486.5s179.5 -424 179.5 -660c0 -262.667 -58.5 -491.167 -175.5 -685.5
s-274.5 -342.333 -472.5 -444s-416 -152.5 -654 -152.5c-245.333 0 -467.333 60.333 -666 181s-354.5 284 -467.5 490s-170.833 430 -173.5 672zM401 1327c0 -201.333 41.498 -394.669 124.498 -580.002s200.333 -335.666 352 -450.999s323.5 -174.333 515.5 -177
c6.66699 3.33301 12 5.5 16 6.5s6.66699 1.5 8 1.5c190 5.33301 358.167 49.833 504.5 133.5s260 207.5 341 371.5s121.5 364.333 121.5 601c0 142.667 -24.167 281.334 -72.5 416.001s-116.666 255.167 -205 361.5c-88.333 106.333 -193.166 191 -314.499 254
s-251.666 94.5 -390.999 94.5c-195.333 0 -368 -44.833 -518 -134.5s-266.333 -212.5 -349 -368.5s-127 -332.333 -133 -529z" />
    <glyph glyph-name="P" unicode="P" horiz-adv-x="1929" 
d="M1098 1118c-74.667 0 -157.999 16.333 -249.999 49v144c35.333 -15.333 85.666 -27.666 150.999 -36.999c22 5.33301 44 8 66 8c178.667 14 299.167 65.5 361.5 154.5s93.5 212.167 93.5 369.5c0 185.333 -47.5 322.5 -142.5 411.5s-241.5 133.5 -439.5 133.5
c-15.333 0 -42.666 -1.33301 -81.999 -4s-68 -4 -86 -4l-8 -1806c0 -119.333 18.167 -213.333 54.5 -282s113.833 -103 232.5 -103h233v-152c-154.667 22 -333.667 33 -537 33c-190 0 -411 -13.667 -663 -41v151h176c98 0 159.333 31.167 184 93.5s37 151.5 37 267.5l8 1458
c-8 139.333 -30 240.333 -66 303s-93 94 -171 94l-164 -8v135c49.333 -2 133.666 -6.33301 252.999 -13s214 -11.667 284 -15c196.667 10.667 338.667 20 426 28c48 5.33301 86 8 114 8c119.333 0 230.333 -27.833 333 -83.5s184.167 -131.167 244.5 -226.5
s90.5 -199.333 90.5 -312c0 -210.667 -60.333 -389.334 -181 -536.001s-292.334 -222 -515.001 -226c-11.333 5.33301 -23.666 8 -36.999 8z" />
    <glyph glyph-name="Q" unicode="Q" horiz-adv-x="2830" 
d="M1569 -25c-24.667 -4.66699 -94.333 -12.667 -209 -24c-234 0 -448.833 58.833 -644.5 176.5s-350 279 -463 484s-169.833 429.833 -170.5 674.5c0 244.667 57 463.5 171 656.5s269.167 344.333 465.5 454s412.833 166.834 649.5 171.5
c175.333 0 345.5 -32.167 510.5 -96.5s312 -154.333 441 -270s230.667 -249.667 305 -402s111.5 -315.166 111.5 -488.499c0 -140 -16.167 -274.667 -48.5 -404s-80.833 -249.5 -145.5 -360.5s-145.5 -210 -242.5 -297s-209.5 -159.167 -337.5 -216.5
c95.333 -74 180.5 -136.5 255.5 -187.5s147.5 -96.833 217.5 -137.5s137.333 -77.334 202 -110.001l251 -126l-135 -103c-344 131.333 -738.667 333.333 -1184 606zM1630 401c60 -100.667 116.002 -173.001 168.002 -217.001c139.333 68.667 250.333 147.667 332.999 237
c82.667 89.333 144.834 199 186.5 329c41.667 130 66.5 291 74.5 483c0 203.333 -41.167 391.833 -123.5 565.5s-200.5 311.834 -354.5 414.501s-333.333 154 -538 154h-8c-148 0 -297 -39.667 -447 -119s-274.167 -196.5 -372.5 -351.5s-147.5 -339.5 -147.5 -553.5
c20 -579.333 222.333 -952 607 -1118c128 -54 245.333 -84 352 -90c27.333 5.33301 67 8 119 8c85.333 134.667 135.666 220.667 150.999 258z" />
    <glyph glyph-name="R" unicode="R" horiz-adv-x="2408" 
d="M770 1335c18 -2.66699 45 -5.33398 81 -8.00098s62.333 -5.33398 79 -8.00098c120.667 2.66699 226 23.334 316 62.001s159.5 94.334 208.5 167.001s73.5 158.667 73.5 258c0 64 -16 137 -48 219s-87 154.167 -165 216.5s-180.333 93.5 -307 93.5
c-31.333 0 -80 -1.33301 -146 -4s-96.667 -4 -92 -4v-992zM1073 1208l-310.999 0.00195312v-696c0 -110.667 20.833 -194.667 62.5 -252s119.167 -88 232.5 -92h143v-160c-217.333 22 -382.333 33 -495 33c-60.667 0 -128 -2.16699 -202 -6.5s-163.5 -11 -268.5 -20
s-164.167 -13.833 -177.5 -14.5v143h230c72.667 0 122.834 25.5 150.501 76.5s41.5 132.167 41.5 243.5v90v1200c0 314.667 -31.333 500.334 -94 557c-16.667 22 -57.667 33 -123 33h-176v151c59.333 -6.66699 118 -11 176 -13s118.5 -3.5 181.5 -4.5
s113.167 -1.83301 150.5 -2.5c185.333 0 337 6.66699 455 20c43.333 6 78.666 9 105.999 9c115.333 0 223.166 -25.833 323.499 -77.5s180 -123.334 239 -215.001s88.5 -193.5 88.5 -305.5c0 -141.333 -33.833 -263.833 -101.5 -367.5s-166.167 -181.834 -295.5 -234.501
c280 -564 635 -1073.33 1065 -1528l-123 -70c-126 102 -250.667 217.333 -374 346s-242.5 264 -357.5 406s-213.5 270.333 -295.5 385z" />
    <glyph glyph-name="S" unicode="S" horiz-adv-x="1577" 
d="M745 2433c-104 0 -194.497 -34.998 -271.497 -104.998s-117.5 -155 -121.5 -255c0 -203.333 109.333 -360.333 328 -471l250 -123c164.667 -78.667 294.5 -192 389.5 -340s142.5 -303.667 142.5 -467c0 -140 -25.5 -265.667 -76.5 -377s-129.833 -200 -236.5 -266
s-241.334 -100.333 -404.001 -103c-108.667 0 -231.834 22.833 -369.501 68.5s-225.834 81.5 -264.501 107.5c0 33.333 1.33301 80.666 4 141.999s4 108.333 4 141c0 140 -8.33301 272.333 -25 397h176v-168c0 -140 46.5 -263 139.5 -369s207.833 -159 344.5 -159
c131.333 0 242.666 42.167 333.999 126.5s137 195.166 137 332.499c-7.33301 217.333 -138.666 393.333 -393.999 528l-286 160c-295.333 170 -443 399.333 -443 688c8 136 41.167 251.667 99.5 347s135 166.5 230 213.5s202.5 70.5 322.5 70.5
c67.333 0 184.666 -16.333 351.999 -49c30 0 50.333 -3 61 -9h74v-495h-160v33c0 52.667 -8.5 109.5 -25.5 170.5s-50.667 114.667 -101 161s-120.166 69.5 -209.499 69.5z" />
    <glyph glyph-name="T" unicode="T" horiz-adv-x="2544" 
d="M225 1954l-143 8.00195v541c304.667 -20.667 683 -35.667 1135 -45c486 9.33301 894 24.333 1224 45v-541h-143c0 91.333 -4 157.166 -12 197.5c-8 40.333 -29.5 70.666 -64.5 90.999s-92.833 30.5 -173.5 30.5h-586v-1642c0 -138.667 7.5 -241.334 22.5 -308.001
s48.667 -114.667 101 -144s136.833 -44 253.5 -44h152v-143c-316 22 -551 33 -705 33c-127.333 0 -340.333 -11 -639 -33v152h184c114 0 193 13 237 39s69.167 61.5 75.5 106.5s11.5 150.5 15.5 316.5v1676h-729c-85.333 0 -141 -21.833 -167 -65.5
s-41.333 -113.5 -46 -209.5c5.33301 -16 8 -36.333 8 -61z" />
    <glyph glyph-name="U" unicode="U" horiz-adv-x="2855" 
d="M2232 1098l0.00195312 708.001c0 170.667 -10.833 293.167 -32.5 367.501c-21.667 74.333 -51.667 119.833 -90 136.5s-98.5 25 -180.5 25h-176v159c84 -13.333 227.333 -25.333 430 -36c222.667 8.66699 415.334 20.667 578 36v-159h-119
c-88.667 0 -144.334 -27.167 -167 -81.5c-22.667 -54.333 -34 -147.5 -34 -279.5v-950c0 -364.667 -89.667 -636 -269 -814s-428.333 -267 -747 -267c-153.333 4 -289.5 22.333 -408.5 55s-223.5 86.5 -313.5 161.5s-160 178.333 -210 310s-75 294.5 -75 488.5v857
c0 142 -3.66699 247.5 -11 316.5s-26.833 122.833 -58.5 161.5s-83.5 58 -155.5 58h-99v152c83.333 -12.667 247.333 -25 492 -37c254.667 11.333 428 23.666 520 36.999v-160h-184c-68 0 -117.667 -14.667 -149 -44s-50.5 -68 -57.5 -116s-10.5 -117.667 -10.5 -209v-999
c0 -188.667 31.167 -345 93.5 -469s149.166 -216 260.499 -276s241.666 -91.667 390.999 -95c261.333 0 457 77.167 587 231.5s195 398.166 195 731.499z" />
    <glyph glyph-name="V" unicode="V" horiz-adv-x="2736" 
d="M1442 438l572.998 1585c38.667 106.667 58 179.334 58 218c0 73.333 -59 110 -177 110h-159v152c108 -14.667 259.333 -24.334 454 -29c200.667 4.66699 351 14.334 451 29v-160h-90c-59.333 0 -106 -12.167 -140 -36.5s-61.167 -56.5 -81.5 -96.5
s-55.833 -118.667 -106.5 -236c-48.667 -111.333 -126 -298.666 -232 -561.999l-318.5 -814.5c-106.333 -279.667 -186.166 -500.834 -239.499 -663.501h-152c-54.667 158 -117.5 327.833 -188.5 509.5l-226.5 559l-255 597.5l-211 489c-28 78 -57.667 139.833 -89 185.5
s-76.666 68.5 -135.999 68.5h-82v160c92 -20 258.667 -35 500 -45c185.333 8.66699 334 20.667 446 36v-159h-118c-69.333 0 -121 -7.83301 -155 -23.5s-54.667 -50.167 -62 -103.5c7.33301 -52 26.333 -113.667 57 -185z" />
    <glyph glyph-name="W" unicode="W" horiz-adv-x="3834" 
d="M1913 1815c-44.667 -142 -94 -289.998 -148 -443.998l-171 -494c-60 -175.333 -111.833 -337 -155.5 -485s-80.834 -295 -111.501 -441h-151c-42 173.333 -91.5 346 -148.5 518s-121.667 352.167 -194 540.5l-213 556c-69.667 182.333 -133.167 356.833 -190.5 523.5
c-27.333 80.667 -51.833 138.5 -73.5 173.5s-50.167 58.5 -85.5 70.5s-88.666 18 -159.999 18v160c130 -20.667 295 -35.667 495 -45c167.333 8 320.333 20.333 459 37v-160h-98c-79.333 0 -137 -12.5 -173 -37.5s-57.667 -73.833 -65 -146.5
c5.33301 -55.333 23 -140 53 -254l500 -1418l496 1536c13.333 41.333 20 92 20 152c0 112 -58.667 168 -176 168h-160v160c140.667 -20.667 302 -35.667 484 -45c180.667 8.66699 343 23.667 487 45v-160h-143c-60 0 -101.5 -7.5 -124.5 -22.5s-37.5 -47.167 -43.5 -96.5
c2.66699 -12 6 -32.667 10 -62s7.33301 -51 10 -65l570 -1536l471 1462c21.333 88 32 141.333 32 160c0 58 -16.167 99.167 -48.5 123.5s-85.833 36.5 -160.5 36.5h-159v160c74 -12.667 221.333 -25 442 -37c216 11.333 362 23.666 438 36.999v-152h-86
c-58 0 -103.333 -19.333 -136 -58s-58.5 -88 -77.5 -148l-52.5 -171l-127.5 -385.5l-181.5 -534l-197 -595.5l-157 -516h-119l-173 501.5l-175.5 515.5c-60.333 175.333 -118.666 336.666 -175 483.999c-56.333 147.333 -108.5 271 -156.5 371z" />
    <glyph glyph-name="X" unicode="X" horiz-adv-x="2839" 
d="M1520 1352l679.998 -942c126.667 -172 271.334 -258 434.001 -258h86v-160c-210.667 27.333 -397.667 41 -561 41c-170.667 0 -370 -13.667 -598 -41v160h233c112 0 168 27 168 81c0 41.333 -24.667 94.666 -74 159.999l-545 717l-479 -725
c-29.333 -51.333 -48.333 -96.333 -57 -135c6.66699 -71.333 90 -107 250 -107h160v-151c-176.667 16 -361 24 -553 24c-226 0 -428.333 -10.667 -607 -32v151c280.667 0 483 91.667 607 275l593 839l-577 766c-90 124.667 -173.167 210.5 -249.5 257.5
s-191.166 70.5 -344.499 70.5v160c169.333 -21.333 362 -36.333 578 -45c226 10 396.667 22 512 36v-159h-160c-100.667 0 -154 -20.667 -160 -62c12 -48 34 -94.333 66 -139l487 -672l360 578c63.333 110 95 182.333 95 217c0 57.333 -53.333 86 -160 86h-168v151
c150 -16 307 -28 471 -36c180.667 8 346 20 496 36v-159h-86c-72.667 0 -127.334 -5.66699 -164 -17c-36.667 -11.333 -67.167 -30 -91.5 -56s-61.5 -76.167 -111.5 -150.5s-101.333 -146.166 -154 -215.499z" />
    <glyph glyph-name="Y" unicode="Y" horiz-adv-x="2511" 
d="M2015 2032l-519.996 -959v-594c0 -59.333 8.16699 -117 24.5 -173s38.166 -93.667 65.499 -113c42 -28 132 -47.333 270 -58c49.333 5.33301 111 8 185 8v-151c-238 27.333 -445.667 41 -623 41c-224.667 0 -445.667 -16.333 -663 -49v151
c57.333 0 99.666 -2.66699 126.999 -8c126.667 10 214 29 262 57c54.667 36 82 123.333 82 262v627l-586 909c-64.667 110.667 -123.667 195.834 -177 255.5c-53.333 59.667 -121.333 89.5 -204 89.5h-147v159c206 -23.333 384.667 -38.333 536 -45c131.333 6 313 21 545 45
v-159h-184c-90.667 0 -141.334 -5.66699 -152.001 -17c-6.66699 -4.66699 -15 -25 -25 -61c3.33301 -15.333 22.666 -60.333 57.999 -135l512 -881l422 758l46.5 86.5c17.667 32.333 32 62.166 43 89.5c11 27.333 16.5 52 16.5 74c0 68 -72.333 102 -217 102h-184v143
c179.333 -24 328 -39 446 -45c132 6.66699 282.333 21.667 451 45v-127h-98c-48 0 -91 -17.5 -129 -52.5s-72.167 -79.167 -102.5 -132.5z" />
    <glyph glyph-name="Z" unicode="Z" horiz-adv-x="2695" 
d="M94 -8l-0.000976562 134.998l1888 2040h-1519c-67.333 0 -113.666 -16.5 -138.999 -49.5s-40.333 -83.5 -45 -151.5c5.33301 -13.333 8 -39.333 8 -78h-119v590c230 -14.667 549.333 -27 958 -37c194 3.33301 403 10.5 627 21.5l655 31.5l78 -118l-1990 -2081h1450
c35.333 0 64 -2.66699 86 -8c80.667 4.66699 146 15.167 196 31.5s91 46.833 123 91.5c27.333 34 46.5 65.833 57.5 95.5s19.167 72.334 24.5 128.001s8 84.834 8 87.501h144c-7.33301 -72 -18.666 -168.5 -34 -289.5l-32 -257c-6 -50.333 -11.333 -113.833 -16 -190.5
c-391.333 38 -794.333 57 -1209 57c-370.667 0 -770.667 -16.333 -1200 -49z" />
    <glyph glyph-name="bracketleft" unicode="[" horiz-adv-x="913" 
d="M94 -479c16.667 133.333 25 301.333 25 504v1720c-2 58 -3.66699 137.167 -5 237.5s-4 194.666 -8 283c-4 88.333 -10.667 175.5 -20 261.5c69.333 0 173.666 -1.33301 312.999 -4s244 -4 314 -4h86v-111h-119c-78 0 -140.333 -10 -187 -30s-74.334 -60.333 -83.001 -121
c5.33301 -10.667 8 -24.334 8 -41v-2368c0 -82.667 27 -136.667 81 -162s130.667 -38 230 -38h78l8 -111c-109.333 0 -215.666 5.66699 -318.999 17c-34 -9.33301 -73.667 -16 -119 -20s-96.666 -6.66699 -153.999 -8s-100.333 -3 -129 -5z" />
    <glyph glyph-name="backslash" unicode="\" horiz-adv-x="1769" 
d="M352 2527l1311 -2601h-254l-1315 2601h258z" />
    <glyph glyph-name="bracketright" unicode="]" horiz-adv-x="913" 
d="M791 -496c-156 0 -288.665 11.001 -397.998 33.001c-98.667 -10.667 -205 -16 -319 -16l8 110h70c102.667 0 181.5 12.167 236.5 36.5s82.5 79.166 82.5 164.499v2368v41c0 62.667 -24.333 103.5 -73 122.5s-111.667 28.5 -189 28.5h-123v111h82
c70 0 175.667 1.33301 317 4s246 4 314 4c-7.33301 -94.667 -12.333 -184 -15 -268s-4.33398 -171.333 -5.00098 -262s-2.33398 -174.667 -5.00098 -252v-1721c0 -202 5.66699 -370 17 -504z" />
    <glyph glyph-name="asciicircum" unicode="^" horiz-adv-x="1200" 
d="M1126 2167l-520 184l-520 -201l520 467z" />
    <glyph glyph-name="underscore" unicode="_" horiz-adv-x="2417" 
d="M-8 -578v58h2474v-58h-2474z" />
    <glyph glyph-name="grave" unicode="`" horiz-adv-x="913" 
d="M336 2511l471 -311l-62 -70l-651 151z" />
    <glyph glyph-name="a" unicode="a" horiz-adv-x="1798" 
d="M1528 217c77.333 25.333 147.002 43.001 209.002 53.001l49 -94c-137.333 -30 -234.166 -55.667 -290.499 -77s-146.5 -65.333 -270.5 -132c-5.33301 -5.33301 -16.333 -8 -33 -8c-10.667 0 -16 16.333 -16 49c30.667 189.333 50.5 327.333 59.5 414s13.5 189 13.5 307
v209l-352 -569c-68.667 -114 -155.167 -208.167 -259.5 -282.5s-210.5 -111.5 -318.5 -111.5c-155.333 7.33301 -233 155 -233 443c8.66699 170 52.167 348.667 130.5 536s174.666 360.5 288.999 519.5s231.166 287.667 350.499 386s220.333 147.5 303 147.5
c24.667 0 52.5 -5.5 83.5 -16.5s56.5 -16.5 76.5 -16.5l291 33c-14.667 -172 -36.667 -408.167 -66 -708.5s-48.333 -500.833 -57 -601.5s-14.334 -196.334 -17.001 -287.001c8 -128.667 27.333 -193 58 -193zM1200 1839c-12 8 -27.001 11.998 -45.001 11.998
c-58.667 0 -130.834 -38 -216.501 -114s-170.667 -177 -255 -303s-155.5 -264 -213.5 -414s-91.667 -294.667 -101 -434c0 -22 -3 -41.333 -9 -58c12.667 -166 74.334 -249 185.001 -249c90.667 2.66699 183.334 61.834 278.001 177.501s180.167 255.334 256.5 419.001
s135.5 316.834 177.5 459.501c24.667 71.333 37 165.666 37 282.999c0 119.333 -31.333 193 -94 221z" />
    <glyph glyph-name="b" unicode="b" horiz-adv-x="1630" 
d="M606 1593l-60.998 103.004l119 82c132 81.333 223.667 135.666 275 162.999s108.333 41 171 41c109.333 0 197.333 -41.333 264 -124s113 -181.667 139 -297s39 -227.333 39 -336c-2 -134 -23 -274.333 -63 -421s-99.333 -285.167 -178 -415.5s-177 -235.833 -295 -316.5
s-252 -121 -402 -121c-106 8 -199 27.167 -279 57.5s-160.333 78.166 -241 143.499l74 1216c4.66699 68 11.667 185.833 21 353.5s16.666 291.167 21.999 370.5s13.166 166.5 23.499 261.5s25.166 208.833 44.499 341.5c38.667 230.667 74.5 417.334 107.5 560
c33 142.667 83.167 327.334 150.5 554h413v-106c-12.667 -7.33301 -35 -19.166 -67 -35.5c-32 -16.333 -57.5 -33 -76.5 -50s-33.833 -39.167 -44.5 -66.5c-15.333 -40.667 -51 -191.334 -107 -452c-56 -260.667 -107.333 -549.334 -154 -866
c-46.667 -316.667 -71.667 -602.334 -75 -857.001l-16 -938c0 -96 38.167 -177.333 114.5 -244s165.166 -100 266.499 -100c102.667 5.33301 191.334 51 266.001 137s130.834 194.167 168.501 324.5s56.5 261.833 56.5 394.5c0 210 -25.667 392.333 -77 547
s-143 232 -275 232v0c-46.667 0 -86 -4.83301 -118 -14.5s-64.833 -25.834 -98.5 -48.501z" />
    <glyph glyph-name="c" unicode="c" horiz-adv-x="1454" 
d="M840 1864c-144 -3.33301 -250.503 -105.503 -319.503 -306.503s-105.833 -429.5 -110.5 -685.5c0 -447.333 117.333 -671 352 -671c123.333 10 221 49.5 293 118.5s122.333 140.5 151 214.5s43 122.667 43 146h111c0 -43.333 -18.333 -121 -55 -233
s-106.5 -218.667 -209.5 -320s-246.833 -152 -431.5 -152c-135.333 2.66699 -245.166 36 -329.499 100s-144.666 147.5 -180.999 250.5s-56.166 218.5 -59.499 346.5c0 150.667 14.333 301.334 43 452.001s77 293.334 145 428.001s159 242.834 273 324.501
s251.333 122.5 412 122.5c104.667 0 213.667 -31.333 327 -94v-488h-245v119c0 218.667 -69.667 328 -209 328z" />
    <glyph glyph-name="d" unicode="d" horiz-adv-x="1593" 
d="M209 2695l-57.001 107l385 188c124.667 -100.667 241.834 -210.167 351.501 -328.5s209 -252 298 -401s160 -317.167 213 -504.5s79.5 -391.666 79.5 -612.999c0 -332 -58.667 -590 -176 -774c-24.667 -43.333 -78.334 -97.5 -161.001 -162.5
s-179.334 -121.167 -290.001 -168.5s-221.334 -71 -332.001 -71c-100 0 -182.667 35.667 -248 107s-112.666 167.5 -141.999 288.5s-44 254.167 -44 399.5c2.66699 165.333 31 334.666 85 507.999s125 322.666 213 447.999s181.333 204 280 236
c-0.666992 0 20 8.83301 62 26.5s74.333 26.5 97 26.5c30 0 49.333 -8.33301 58 -25c0 -2 1.33301 -6.66699 4 -14s4 -14.666 4 -21.999c0 -17.333 -8.66699 -32.333 -26 -45s-43.666 -25.667 -78.999 -39s-61.666 -23.666 -78.999 -30.999
c-51.333 -22 -101.166 -86.667 -149.499 -194s-87.5 -235.333 -117.5 -384s-45 -289.334 -45 -422.001c0 -191.333 22.333 -351 67 -479s131.667 -197.667 261 -209c305.333 0 465 321 479 963c0 184 -29.333 371.167 -88 561.5s-134.834 363.5 -228.501 519.5
s-194.667 281 -303 375s-208.833 141 -301.5 141c-30.667 0 -54 -2.66699 -70 -8z" />
    <glyph glyph-name="e" unicode="e" horiz-adv-x="1487" 
d="M1266 705l127.001 -16.998c0 -56.667 -16.833 -139.834 -50.5 -249.501s-103 -214.334 -208 -314.001s-253.833 -149.5 -446.5 -149.5c-139.333 0 -254 36.333 -344 109s-155.5 169.834 -196.5 291.501s-61.5 257.167 -61.5 406.5c8 157.333 25.333 304.5 52 441.5
s67.834 264.667 123.501 383s129.5 213.666 221.5 285.999s202.667 110.5 332 114.5c112.667 0 203.667 -22.833 273 -68.5s119 -107.5 149 -185.5s45 -166.667 45 -266c0 -85.333 -16.333 -200 -49 -344c-268.667 -89.333 -551.334 -151 -848.001 -185
c-2 0 -7.33301 -47.667 -16 -143c15.333 -419.333 158.666 -635 429.999 -647c83.333 0 161 23.5 233 70.5s129 109.5 171 187.5s63 160 63 246v33zM401.001 1090l360.999 52.999c85.333 16.667 151.666 60.334 198.999 131.001s71 152.667 71 246
c0 106 -13.167 195.167 -39.5 267.5s-85.5 108.5 -177.5 108.5c-137.333 -3.33301 -240.166 -97.666 -308.499 -282.999s-106.166 -353 -113.499 -503c3.33301 -4.66699 5.5 -8.83398 6.5 -12.501s1.5 -6.16699 1.5 -7.5z" />
    <glyph glyph-name="f" unicode="f" horiz-adv-x="1208" 
d="M258 -1159l167.999 2982l-340 -17v168h184c75.333 0 123.5 22.333 144.5 67s31.5 114 31.5 208c0 250.667 8.16699 460 24.5 628s57.5 328.667 123.5 482c140.667 324.667 315.334 487 524.001 487c11.333 0 25 -0.666992 41 -2s29.667 -2 41 -2v-332h-168
c-12 0 -20 5.83301 -24 17.5s-7 29 -9 52s-5.5 41.333 -10.5 55s-15.167 21.5 -30.5 23.5c-92.667 0 -145.667 -117.667 -159 -353l-62 -1323h471v-167l-487 8l-258 -2929z" />
    <glyph glyph-name="g" unicode="g" horiz-adv-x="1638" 
d="M1159 1847c-17.333 8.66699 -34.998 12.999 -52.998 12.999c-58.667 0 -128.5 -33.833 -209.5 -101.5s-159.333 -160.167 -235 -277.5s-138 -253.166 -187 -407.499s-73.5 -314.166 -73.5 -479.499c0 -229.333 50.667 -344 152 -344c57.333 0 128.666 52.667 213.999 158
s168.166 232.666 248.499 381.999s141.833 283.333 184.5 402c38 109.333 57 235 57 377c0 157.333 -32.667 250 -98 278zM1184 536.999l-0.00292969 334.999l-312 -520c-64.667 -110.667 -144.667 -201.167 -240 -271.5s-194 -105.5 -296 -105.5
c-92 4.66699 -157.333 49.5 -196 134.5s-58 187.833 -58 308.5c8 170 47.667 347 119 531s161.5 355.667 270.5 515s221.333 287 337 383s218.834 144 309.501 144c25.333 0 54.5 -4.83301 87.5 -14.5s58.5 -14.5 76.5 -14.5l254 29l-33 -1217
c-8 -388 -49.833 -727.5 -125.5 -1018.5s-186.167 -516.167 -331.5 -675.5s-323.333 -239 -534 -239c-113.333 0 -200.666 23.167 -261.999 69.5s-103.166 107.666 -125.499 183.999s-35.166 170.5 -38.499 282.5c10.667 148 16 262.667 16 344l283 -32
c-17.333 -40 -31 -107 -41 -201c10 -114.667 29 -200.667 57 -258l-168 -12c1.33301 -10.667 5.5 -37.667 12.5 -81s30 -83.833 69 -121.5s102.167 -59.167 189.5 -64.5c126 0 233.5 48.5 322.5 145.5s159.667 224.333 212 382s89.666 327.834 111.999 510.501
s33.5 365.334 33.5 548.001z" />
    <glyph glyph-name="h" unicode="h" horiz-adv-x="1729" 
d="M82 369c10 154.667 18.668 356.002 26.001 604.002s16.333 449.333 27 604c16.667 206.667 36.5 390.5 59.5 551.5s51 322.5 84 484.5s71 336.333 114 523s82.833 367.334 119.5 542l41 185h446v-127c-4 -1.33301 -19.833 -7.83301 -47.5 -19.5
s-59.834 -39.334 -96.501 -83.001s-76.167 -117.167 -118.5 -220.5s-80.166 -236 -113.499 -398c-32 -171.333 -56.833 -310 -74.5 -416s-34.167 -219.5 -49.5 -340.5s-27.5 -231.333 -36.5 -331s-19.833 -235.5 -32.5 -407.5l-45 -672
c3.33301 3.33301 26.5 41.333 69.5 114l140 233c50.333 82.667 103.5 165 159.5 247c91.333 134 245.666 307.333 462.999 520l413 20v-598c0 -311.333 -82.833 -607.166 -248.5 -887.499s-385.834 -557.833 -660.501 -832.5l-291 -303l-119 135
c154 106.667 291.167 229.667 411.5 369s223.333 291.5 309 456.5s150.834 338.167 195.501 519.5s67 365.333 67 552c0 152 -17.667 253 -53 303c-7.33301 10.667 -17 16 -29 16c-58.667 0 -156.167 -84 -292.5 -252s-264.833 -369.333 -385.5 -604
s-195 -450.334 -223 -647.001l-24 -176l-238 -82c15.333 143.333 26.333 282.666 33 417.999z" />
    <glyph glyph-name="i" unicode="i" horiz-adv-x="930" 
d="M430 1712l-356 -65v147c156 18 389.333 78 700 180l-143 -1982l-312 -66c74 444 111 941 111 1491v295zM369 2712c0 70 19.999 133.833 59.999 191.5s92.333 86.5 157 86.5c62.667 0 117.834 -24.833 165.501 -74.5s71.5 -106.834 71.5 -171.5c0 -70 -23 -132 -69 -186
s-102 -82 -168 -84c0 1.33301 -1 2.33301 -3 3s-3.66699 1 -5 1c-55.333 0 -103 23.833 -143 71.5s-62 101.834 -66 162.5z" />
    <glyph glyph-name="j" unicode="j" horiz-adv-x="1016" 
d="M463 2720c0 63.333 26.832 125.5 80.499 186.5s112.834 91.5 177.501 91.5c60.667 -6 110.667 -34.833 150 -86.5s59 -107.5 59 -167.5c-4 -70.667 -31 -132.667 -81 -186s-106.333 -80 -169 -80c-56 4 -105.167 29.667 -147.5 77s-65.5 102.333 -69.5 165zM101.999 -999
l-270.002 -218l-82 74c156.667 144.667 273.834 263.167 351.501 355.5s138.167 197.5 181.5 315.5s69 261.667 77 431l95 1761l-361 -65v151c204 13.333 439 75 705 185l-135 -1848c-11.333 -196 -32.666 -353.667 -63.999 -473s-84.5 -229.5 -159.5 -330.5
s-187.833 -213.833 -338.5 -338.5z" />
    <glyph glyph-name="k" unicode="k" horiz-adv-x="1663" 
d="M303 0l-236.999 -7.99902c16 138.667 28.5 289.667 37.5 453s18.5 361.5 28.5 594.5s20.667 425.833 32 578.5s29 309.667 53 471c46.667 338 97.5 627 152.5 867s136.5 530 244.5 870h426v-131c-44.667 0 -103 -50 -175 -150s-147.333 -311 -226 -633
c-38 -162 -72.833 -348.5 -104.5 -559.5s-57.167 -400.167 -76.5 -567.5s-30 -269.333 -32 -306l-8 -279c62 129.333 167 290.666 315 483.999s314.667 290 500 290c112 0 193.5 -35.667 244.5 -107s78.833 -157 83.5 -257c0 -152 -47 -280 -141 -384s-193 -181 -297 -231
s-179.333 -80 -226 -90v8c109.333 -253.333 232.666 -490.166 369.999 -710.499s294 -433.833 470 -640.5l-168 -66c-404 485.333 -759 966 -1065 1442c105.333 0 216.166 26.833 332.499 80.5s212.833 128.167 289.5 223.5s115 201.666 115 318.999
c0 144.667 -43.667 217 -131 217c-75.333 0 -171 -64.333 -287 -193s-219.667 -287 -311 -475c-115.333 -234 -187.666 -598.667 -216.999 -1094c3.33301 -3.33301 5.5 -6.5 6.5 -9.5s1.5 -5.16699 1.5 -6.5z" />
    <glyph glyph-name="l" unicode="l" horiz-adv-x="1057" 
d="M553 168l376.998 74v-176c-249.333 -8.66699 -487 -58 -713 -148c9.33301 128 16.333 255.167 21 381.5s10.5 304 17.5 533s14.5 422.667 22.5 581s19 313.833 33 466.5c20 204.667 39.5 384 58.5 538s39.667 300 62 438s48.666 283.5 78.999 436.5
s67.833 327.833 112.5 524.5h450v-122c-12.667 -8.66699 -35.167 -25.167 -67.5 -49.5s-71.166 -81.333 -116.499 -171s-90.333 -226.5 -135 -410.5c-32 -132.667 -60.167 -340.334 -84.5 -623c-24.333 -282.667 -45.166 -593.667 -62.499 -933
s-30.666 -640.5 -39.999 -903.5s-14 -408.5 -14 -436.5z" />
    <glyph glyph-name="m" unicode="m" horiz-adv-x="2888" 
d="M344 1729l-286.998 -57.9971v160c203.333 0 408.333 50.333 615 151l-103 -1261c254 469.333 545 889.666 873 1261h254l-78 -1261c126 245.333 256.833 471.833 392.5 679.5s284.834 401.5 447.5 581.5h319c-42.667 -250.667 -77.834 -528 -105.5 -832
c-27.667 -304 -41.5 -567.333 -41.5 -790c0 -17.333 0.666992 -41 2 -71s2 -51.333 2 -64v-32l168 49l16 -148l-528 -151l151 1810c-102 -112 -201.833 -237.667 -299.5 -377s-188 -285.833 -271 -439.5s-156.333 -311.834 -220 -474.501
s-112.834 -319.334 -147.501 -470.001h-221l111 1720c-230.667 -256 -425.834 -535 -585.501 -837s-263.5 -593.667 -311.5 -875h-254z" />
    <glyph glyph-name="n" unicode="n" horiz-adv-x="2032" 
d="M1368 -66l-65.001 50c95.333 345.333 148.333 902.333 159 1671l-387 -467.5c-68.667 -86.333 -141.167 -191 -217.5 -314s-140.833 -257 -193.5 -402s-89.667 -304.833 -111 -479.5h-250l98 1737l-319 -74v160c246 0 467 64 663 192l-139 -1302
c84.667 159.333 172.667 306.333 264 441s190.833 266.5 298.5 395.5s232.834 269.167 375.501 420.5h225l-98 -1737l295 37v-143c-204 -7.33301 -403.333 -69 -598 -185z" />
    <glyph glyph-name="o" unicode="o" horiz-adv-x="1585" 
d="M86 623c3.33301 254 30.335 480.334 81.002 679.001s146.667 363.167 288 493.5s339.333 198.166 594 203.499c101.333 0 184.333 -41.167 249 -123.5s111.5 -185.833 140.5 -310.5s45.167 -254.334 48.5 -389.001c0 -224 -27.833 -427.167 -83.5 -609.5
s-147.834 -329.166 -276.501 -440.499s-296.667 -167 -504 -167h-78c-103.333 12 -187.833 37 -253.5 75s-116.334 103.167 -152.001 195.5s-53.5 223.5 -53.5 393.5zM401.002 807.001c0 -133.333 6.83301 -248.334 20.5 -345.001s46.5 -180.334 98.5 -251.001
s130 -109.667 234 -117c160.667 0 275.167 88.5 343.5 265.5s102.5 390.167 102.5 639.5v58c0 210.667 -32.5 396.334 -97.5 557.001s-171.833 241 -320.5 241c-91.333 -4.66699 -165 -67.667 -221 -189s-95.667 -261.666 -119 -420.999s-37 -305.333 -41 -438z" />
    <glyph glyph-name="p" unicode="p" horiz-adv-x="1864" 
d="M401 1745l-335 -81.998v184c234 16.667 457.667 67.334 671 152.001l-43 -308.5c-19.333 -137 -34 -254.333 -44 -352s-16.333 -197.167 -19 -298.5c10.667 -97.333 16 -169.666 16 -216.999c0 26 26.167 103.667 78.5 233s120.333 267 204 413s181.5 272.667 293.5 380
s227.333 162.666 346 165.999c82 0 134.5 -26.833 157.5 -80.5s34.5 -127.834 34.5 -222.501v-463c0 -169.333 -17.333 -328.833 -52 -478.5s-87.5 -284 -158.5 -403s-160.667 -215 -269 -288s-233.833 -115.833 -376.5 -128.5l-16 98c105.333 17.333 187.333 46 246 86
c99.333 76.667 176.666 216.167 231.999 418.5s83 417.833 83 646.5v455c0 86 -27.333 132.333 -82 139c-46.667 0 -119 -64.833 -217 -194.5s-194 -294.834 -288 -495.501s-163.333 -403.334 -208 -608.001l-77 -398c-29.333 -151.333 -54.666 -295.333 -75.999 -432
s-40 -282 -56 -436l-28 -336l-217 -86c30 229.333 55 466.833 75 712.5s34.667 453.5 44 623.5s22 425.667 38 767s30.333 619.333 43 834z" />
    <glyph glyph-name="q" unicode="q" horiz-adv-x="1638" 
d="M1167 815l-228.999 -384.997c-185.333 -303.333 -361.333 -455 -528 -455c-218.667 13.333 -328 163.666 -328 450.999c15.333 206.667 60.166 404.667 134.499 594s165.833 357.666 274.5 504.999s222.167 263.166 340.5 347.499s224.833 126.5 319.5 126.5
c119.333 -12 186.833 -19.667 202.5 -23s76.5 -24.333 182.5 -63l-217 -3039l-238 -58zM1249 1585c0 186 -64.002 279.001 -192.002 279.001h-17c-83.333 -6 -173.666 -69.167 -270.999 -189.5s-183.5 -270.833 -258.5 -451.5s-122.167 -353.334 -141.5 -518.001
c0 -49.333 -3 -86.333 -9 -111c4.66699 -104 24.5 -185.333 59.5 -244s79.5 -88 133.5 -88c118.667 23.333 230.834 120 336.501 290s192 359.167 259 567.5s100.5 363.5 100.5 465.5z" />
    <glyph glyph-name="r" unicode="r" horiz-adv-x="1536" 
d="M1450 1954v-344.001c-4 1.33301 -12.167 3 -24.5 5s-28.833 3 -49.5 3c-134.667 0 -276.667 -161 -426 -483c-66.667 -148.667 -126 -305 -178 -469s-94 -312.333 -126 -445s-48 -209 -48 -229h-213l94 1720l-405 -82v164c98.667 2 217 21 355 57s258.667 77 362 123
l-54 -1032l90.5 222l136.5 326.5c34.667 79 69.5 151.333 104.5 217s67.833 114.834 98.5 147.501c64 71.333 133.667 107 209 107c20.667 0 37.167 -1 49.5 -3s20.5 -3.66699 24.5 -5z" />
    <glyph glyph-name="s" unicode="s" horiz-adv-x="1343" 
d="M242 479c0 -78.667 16.334 -148.17 49.001 -208.503s77 -106.5 133 -138.5s116.667 -48.667 182 -50c106.667 0 197.5 30.833 272.5 92.5s112.5 146.834 112.5 255.501c0 86 -20.167 156.833 -60.5 212.5s-102.166 113.167 -185.499 172.5l-217 160
c-158 130 -241 285.667 -249 467c0 158.667 44.667 288.334 134 389.001s220.666 156.667 393.999 168c49.333 0 108 -7.5 176 -22.5s100.667 -22.5 98 -22.5v-434h-123v110c0 68 -16.5 128 -49.5 180s-79.167 78 -138.5 78c-65.333 0 -122 -31.5 -170 -94.5
s-72 -126.833 -72 -191.5c9.33301 -162 94 -301.333 254 -418l185 -127c175.333 -120 266.666 -273 273.999 -459c0 -82 -25.167 -172.167 -75.5 -270.5s-123.666 -181.666 -219.999 -249.999s-209.5 -102.5 -339.5 -102.5h-8c-125.333 0 -233.333 17 -324 51
s-153.334 62.333 -188.001 85l49 618l127 -16c-2 -3.33301 -4.83301 -30.333 -8.5 -81z" />
    <glyph glyph-name="t" unicode="t" horiz-adv-x="1294" 
d="M360 1798l-265.996 -11.999v176l283 -8l24 397l312 74l-49 -471l434 8l-8 -168l-467 4c-8 -17.333 -20.333 -406.333 -37 -1167c0 -120 3.16699 -211.333 9.5 -274s23.5 -113.334 51.5 -152.001s73 -59.334 135 -62.001c4 4 7.5 6.5 10.5 7.5s5.16699 1.5 6.5 1.5
c94 8.66699 170.667 53.5 230 134.5s89 190.167 89 327.5h115c0 -124 -23.333 -234 -70 -330s-112.334 -170 -197.001 -222s-182.667 -78 -294 -78c-89.333 0 -167.833 13.833 -235.5 41.5s-114.834 50.5 -141.501 68.5c-2.66699 44.667 -5.33398 110.334 -8.00098 197.001
s-5.33398 152 -8.00098 196c6 282 33 719 81 1311z" />
    <glyph glyph-name="u" unicode="u" horiz-adv-x="2015" 
d="M680 2032l57 -58.001c-117.333 -442 -176 -980 -176 -1614c130 142 257.167 302.5 381.5 481.5s232.5 364.833 324.5 557.5s157 380.334 195 563.001h267l-107 -1712l324 69v-167c-268 0 -497.667 -64.333 -689 -193c94 502.667 144.667 958.667 152 1368
c-294 -505.333 -604 -950.333 -930 -1335h-221l102 1769l-303 -73v151c120.667 7.33301 225.5 25.333 314.5 54s191.833 75 308.5 139z" />
    <glyph glyph-name="v" unicode="v" horiz-adv-x="2351" 
d="M225 1720l8.00293 -487h-139l17 741c116 -12 308.333 -24.333 577 -37c290 12.667 495 25 615 37l24 -94c-54.667 -18 -116.834 -66.833 -186.501 -146.5s-135.834 -178.5 -198.501 -296.5s-113.834 -245.333 -153.501 -382s-59.5 -267 -59.5 -391
c12.667 -314 135.667 -471 369 -471c154.667 0 293 53.333 415 160s216.333 244.334 283 413.001s100 342 100 520v688h369c-57.333 -152.667 -90 -307 -98 -463c8 -141.333 40.667 -292.666 98 -453.999c-22 0 -43.667 -2.66699 -65 -8c-52 8 -100 27 -144 57
c-66 -324 -206.667 -585 -422 -783s-466.333 -305.667 -753 -323h-320c-70.667 122 -116.667 211.667 -138 269s-34 143.666 -38 258.999c0 150.667 39.333 314.5 118 491.5s164.5 336.167 257.5 477.5s146.833 215.666 161.5 222.999h-697z" />
    <glyph glyph-name="w" unicode="w" horiz-adv-x="2753" 
d="M639 -16l-278.999 0.00488281l78 1785l-327 -81l-17 167c246 16 497.333 77.667 754 185c-40.667 -190.667 -69.334 -386.334 -86.001 -587.001s-25 -416 -25 -646c210 361.333 468 753 774 1175h267l-99 -1740c294 220 504.333 491.667 631 815v934h344
c-33.333 -353.333 -51 -558.333 -53 -615c2.66699 -35.333 4.5 -64.833 5.5 -88.5s2.33301 -49.834 4 -78.501s4 -59.334 7 -92.001s5.83301 -58.334 8.5 -77.001h-193c-45.333 -122 -101.5 -236.333 -168.5 -343s-146 -205.834 -237 -297.501s-191.667 -173 -302 -244
s-232.166 -131.167 -365.499 -180.5l82 1713l-235.5 -352.5c-128.333 -191.667 -229.5 -353.667 -303.5 -486s-134.833 -270.333 -182.5 -414s-74.834 -294.167 -81.501 -451.5z" />
    <glyph glyph-name="x" unicode="x" horiz-adv-x="2392" 
d="M1294 1032l435.001 -613.998c40.667 -52 72.667 -88.167 96 -108.5s55.333 -30.5 96 -30.5c38.667 0 70 8 94 24l152 107l65 -123c-259.333 -122 -449 -234 -569 -336l-504 794l-246 -360c-76.667 -116.667 -171.334 -218.167 -284.001 -304.5
s-218.667 -129.5 -318 -129.5c-79.333 0 -136.666 31.333 -171.999 94s-54.333 137.667 -57 225c3.33301 122.667 32 262 86 418l74 201l110 -49l-82 -246c-17.333 -93.333 -29.666 -176.666 -36.999 -249.999c11.333 -109.333 34.666 -173.333 69.999 -192
c8 -4 16.667 -7.16699 26 -9.5s17 -4.83301 23 -7.5c50.667 3.33301 102.667 25.666 156 66.999s94.333 86 123 134l409 586l-454 663c-46.667 74 -93.334 111 -140.001 111c-16.667 0 -59 -19.333 -127 -58l-151 -86l-66 127c134.667 59.333 248 114.166 340 164.499
s182.333 110.166 271 179.499l479 -831l201 311c112 166 216.5 291.5 313.5 376.5s194.5 127.5 292.5 127.5c86 0 153.167 -24.167 201.5 -72.5s72.5 -116.833 72.5 -205.5c0 -97.333 -15.333 -196.5 -46 -297.5s-56.334 -175.5 -77 -223.5l-102 66l33 119
c22 94.667 33 171 33 229c0 52 -11.833 98.5 -35.5 139.5s-58.5 61.5 -104.5 61.5c-104 0 -247.333 -135.333 -430 -406z" />
    <glyph glyph-name="y" unicode="y" horiz-adv-x="2097" 
d="M1585 1999c130 -11.333 230.165 -79.3281 300.498 -203.995s105.5 -275.334 105.5 -452.001c-21.333 -430 -87.666 -802 -198.999 -1116s-243.166 -563.5 -395.499 -748.5s-304.5 -319.167 -456.5 -402.5s-283.667 -125 -395 -125h-377
c-34.667 80 -56.667 208.333 -66 385c6 16.667 9 42.667 9 78c22 243.333 52 425 90 545h278c0 9.33301 -18.833 -74 -56.5 -250s-58.5 -319.333 -62.5 -430c5.33301 -76 19.5 -129.833 42.5 -161.5s67.833 -47.5 134.5 -47.5c106 0 224.667 37.333 356 112
s258.666 191.5 381.999 350.5s224.333 365.167 303 618.5s118 549.666 118 888.999v144c0 327.333 -64.333 498 -193 512c-56.667 0 -110.834 -29.667 -162.501 -89s-97.5 -135.333 -137.5 -228s-72 -189.334 -96 -290.001s-38 -189.334 -42 -266.001
c0 -35.333 -2.66699 -69.333 -8 -102c14.667 -305.333 51.334 -529.333 110.001 -672l-229 -98l-553 1786l-311 -58l-8 144c213.333 17.333 390.666 78.666 531.999 183.999l352 -1049c0 56 22.833 171 68.5 345s113.334 333.5 203.001 478.5s199.834 217.5 330.501 217.5
h33z" />
    <glyph glyph-name="z" unicode="z" horiz-adv-x="2183" 
d="M377 1511l-143.999 0.000976562l62 463c160.667 -12 435 -24.333 823 -37c412 12 708.333 24.333 889 37l33 -102l-1503 -1614c271.333 -34 593.333 -55.667 966 -65l586 24v-184c-194 -11.333 -490.333 -22.333 -889 -33c-348 7.33301 -719.333 23.666 -1114 48.999v78
l1516 1569h-922c-78.667 0 -148.834 -13.833 -210.501 -41.5s-92.5 -75.5 -92.5 -143.5z" />
    <glyph glyph-name="braceleft" unicode="{" horiz-adv-x="1008" 
d="M385 1049l-73.998 -8.99805l66 -24c51.333 -16 97.666 -50 138.999 -102s62 -102.667 62 -152v-856c0 -80.667 16.833 -155.334 50.5 -224.001s84.834 -111.334 153.501 -128.001l66 -17h-103c-144 0 -258.667 42.333 -344 127c-53.333 54 -86 185 -98 393
c5.33301 36 8 75.667 8 119v615c0 51.333 -19.333 98.5 -58 141.5s-83.334 70.833 -134.001 83.5l-37 16l37 17c150 69.333 225 154 225 254v827c0 113.333 38.167 205.166 114.5 275.5c76.333 70.333 171.833 105.5 286.5 105.5h127l-65 -25
c-64.667 -21.333 -114.334 -64 -149.001 -128s-52 -133.333 -52 -208v-766c0 -176 -73.667 -287.667 -221 -335z" />
    <glyph glyph-name="bar" unicode="|" horiz-adv-x="520" 
d="M385 2527v-3502h-266v3502h266z" />
    <glyph glyph-name="braceright" unicode="}" horiz-adv-x="1008" 
d="M586 1049c-72 0 -127.668 36.6689 -167.001 110.002s-59 148.333 -59 225v766c0 70 -18.333 138.333 -55 205s-85 110.334 -145 131l-66 25h131c112.667 0 207.167 -35.167 283.5 -105.5s114.5 -162.166 114.5 -275.499v-827c0 -114 75 -198.667 225 -254l41 -17l-41 -16
c-128.667 -51.333 -193 -126.333 -193 -225v-615v-119c0 -206.667 -28.667 -340.334 -86 -401.001c-89.333 -79.333 -204 -119 -344 -119h-106l65 17c70 16.667 122.333 59.5 157 128.5s52 143.5 52 223.5v856c0 51.333 20.333 101.166 61 149.499
s87.334 83.166 140.001 104.499l61 24z" />
    <glyph glyph-name="asciitilde" unicode="~" horiz-adv-x="1159" 
d="M209 2216l-115.006 33c28.667 82.667 76.834 149.667 144.501 201s136.834 77 207.501 77c40 0 75.5 -8.5 106.5 -25.5s67.5 -44 109.5 -81s71.333 -61.333 88 -73s38.334 -18.5 65.001 -20.5c10.667 5.33301 21.667 8 33 8c38.667 14 75.334 46.667 110.001 98l107 -33
c-32.667 -90.667 -81.5 -162.5 -146.5 -215.5s-133.5 -79.5 -205.5 -79.5c-36.667 2.66699 -67.167 11.5 -91.5 26.5s-56.166 39.333 -95.499 73s-74.166 59 -104.499 76s-64.5 25.5 -102.5 25.5c-18.667 -2.66699 -34 -8.33398 -46 -17
c-12 -8.66699 -22.833 -19.167 -32.5 -31.5z" />
    <glyph glyph-name="exclamdown" unicode="&#xa1;" horiz-adv-x="799" 
d="M688 1745c0 -62.667 -25.1641 -115.833 -75.4971 -159.5s-108.5 -65.5 -174.5 -65.5c-61.333 4 -110.833 29.333 -148.5 76s-56.5 101.667 -56.5 165c5.33301 64.667 30.166 119.167 74.499 163.5s96.166 66.5 155.499 66.5c63.333 0 116.666 -24.5 159.999 -73.5
s65 -106.5 65 -172.5zM377.003 1327l151 82l-90 -2224l-422 -291c140 708.667 260.333 1519.67 361 2433z" />
    <glyph glyph-name="cent" unicode="&#xa2;" horiz-adv-x="1450" 
d="M864 344l-7.99902 -410.001h-111v385c-16 0 -43 -2.66699 -81 -8c-142.667 6.66699 -273.334 62.834 -392.001 168.501s-178 311.834 -178 618.501c0 127.333 15.5 251.666 46.5 372.999s74.5 233.833 130.5 337.5s123.167 193.667 201.5 270
s163.833 133.166 256.5 170.5v327h102v-303h111c144 0 275 -41 393 -123l-32 -462h-230v110v123c0 60.667 -15.5 111.334 -46.5 152.001s-76.833 61 -137.5 61h-33v-1589c104 24.667 190.833 79.167 260.5 163.5s108.5 181.166 116.5 290.499l94 -8v-78
c0 -134 -44.667 -253.833 -134 -359.5s-199 -175.5 -329 -209.5zM737.001 560.999l0.00195312 1536c-3.33301 -1.33301 -22 -11.666 -56 -31c-34 -19.333 -69.833 -61.333 -107.5 -126s-71.834 -167.834 -102.501 -309.501s-48.334 -324.834 -53.001 -549.501
c0 -212.667 27.833 -350.667 83.5 -414s120.5 -98.666 194.5 -105.999h41z" />
    <glyph glyph-name="sterling" unicode="&#xa3;" horiz-adv-x="2642" 
d="M1090 1778l175.998 -360.996h807v-135h-738c84.667 -128 127 -242.667 127 -344c0 -129.333 -19.167 -247.166 -57.5 -353.499s-81.833 -183.833 -130.5 -232.5c430.667 -80.667 694 -128.334 790 -143.001c16 2.66699 27.5 4.5 34.5 5.5s17.5 2.66699 31.5 5
s23.833 4.16602 29.5 5.49902s13.5 4 23.5 8c50 18.667 93.833 55.667 131.5 111s66.834 111.333 87.501 168s31 90.667 31 102l119 -53l-160 -360c-84 -191.333 -215 -287 -393 -287c-61.333 0 -137.333 8.5 -228 25.5s-144.334 28.833 -161.001 35.5l-512 144
c-95.333 -116 -274.333 -189.667 -537 -221c-305.333 0 -461 90 -467 270c2.66699 4.66699 4.66699 8.5 6 11.5l2 4.5c6 60 35.833 119.333 89.5 178s119.334 106.5 197.001 143.5s152.834 55.5 225.501 55.5c82.667 0 171.667 -21.667 267 -65l278 -103
c60 81.333 90 171.666 90 270.999c0 84.667 -56 221 -168 409l-123 209l-655 -25l-8 160l586 -16l-82 176c-68.667 156.667 -103 302.667 -103 438c8 127.333 42.333 245.166 103 353.499s141.5 195.5 242.5 261.5s212.5 101.333 334.5 106
c160.667 0 296.167 -39 406.5 -117s167.5 -182.333 171.5 -313c0 -136 -61.667 -253.333 -185 -352l-81 53c5.33301 19.333 12 49.333 20 89.999c8 40.667 12 80.334 12 119.001c0 96 -32.833 182.833 -98.5 260.5s-147.5 116.5 -245.5 116.5
c-112 0 -201.5 -39.667 -268.5 -119s-103.167 -176.333 -108.5 -291c4 -3.33301 6.5 -6.5 7.5 -9.5s1.5 -5.16699 1.5 -6.5c4.66699 -89.333 12 -160.333 22 -213s30 -111.334 60 -176.001zM982.998 160.004c-107.333 73.333 -295.667 110.001 -565 110.001
c-114.667 0 -179 -36.667 -193 -110c0 -94.667 90.333 -148 271 -160c36 12.667 92.833 25 170.5 37s140 25.667 187 41s90.167 42.666 129.5 81.999z" />
    <glyph glyph-name="yen" unicode="&#xa5;" horiz-adv-x="2478" 
d="M1450 606l-0.00195312 -127.001c0 -54.667 8.33301 -111 25 -169s37 -97 61 -117c40.667 -29.333 113 -48.666 217 -57.999c22 5.33301 48 8 78 8h160v-151c-233.333 27.333 -441 41 -623 41c-212 0 -433 -16.333 -663 -49v151h49c164 0 278.667 16.333 344 49
c57.333 34 86 118.667 86 254v168h-598v168h598v258h-598v176h504l-496 774c-48 78.667 -85.833 138 -113.5 178s-63.5 77.833 -107.5 113.5s-93.333 53.5 -148 53.5h-114h-45v159c216.667 -23.333 399.334 -38.333 548.001 -45c158 6.66699 334.333 21.667 529 45v-159
h-185c-8.66699 0 -23.667 1.33301 -45 4s-37.666 4 -48.999 4c-42 0 -72 -26 -90 -78c3.33301 -16.667 8.83301 -33.167 16.5 -49.5s17 -34.333 28 -54s18.167 -32.834 21.5 -39.5l512 -881l417 758l48 92c16 31.333 29.167 61.166 39.5 89.5
c10.333 28.333 15.5 53.833 15.5 76.5c0 62.667 -56 94 -168 94h-176h-49v151c126 -13.333 276 -20 450 -20c171.333 0 320.333 6.66699 447 20v-135h-86c-50.667 0 -95.167 -17 -133.5 -51s-72.333 -75.667 -102 -125l-88.5 -151l-438 -824h577v-176h-655v-258h655v-168
h-655z" />
    <glyph glyph-name="brokenbar" unicode="&#xa6;" horiz-adv-x="401" 
d="M385 2527v-3502h-266v3502h266z" />
    <glyph glyph-name="section" unicode="&#xa7;" horiz-adv-x="1720" 
d="M360 1454c-102 86.667 -163.331 199.997 -183.998 339.997c0 146.667 35.5 277.834 106.5 393.501s166.833 205.334 287.5 269c120.667 63.667 253 95.5 397 95.5c151.333 0 304 -34.333 458 -103c0 -64 -6.83301 -152 -20.5 -264s-20.5 -197.333 -20.5 -256l-102 8
l-25 287c-126.667 106.667 -271.334 160 -434.001 160c-118.667 0 -219 -30.167 -301 -90.5s-133 -150.5 -153 -270.5c0 -190.667 165 -334 495 -430c160.667 -46.667 287.167 -89 379.5 -127s176.5 -98.167 252.5 -180.5s114 -188.5 114 -318.5
c-3.33301 -86 -23.5 -155.5 -60.5 -208.5s-102.833 -124.167 -197.5 -213.5c144.667 -91.333 217 -222.333 217 -393c-6 -117.333 -50.833 -233.666 -134.5 -348.999s-189.834 -210.666 -318.501 -285.999s-257.667 -116.333 -387 -123c-207.333 0 -394.333 53.333 -561 160
l41 528h94v-184c0 -108 51.833 -186.333 155.5 -235s214.5 -73 332.5 -73c362.667 0 544 150.333 544 451c0 64 -24 118.667 -72 164s-116.667 86.5 -206 123.5s-231.333 89.833 -426 158.5l-127 50c-124 42 -215.833 87.667 -275.5 137s-97.167 95.5 -112.5 138.5
s-25.333 94.5 -30 154.5c0 97.333 23.5 184 70.5 260s114.833 151.667 203.5 227zM1376 830.997l0.00195312 50.002c0 68 -21.833 134 -65.5 198s-117.167 112.667 -220.5 146l-635 200l-45 -65c-66 -69.333 -99 -165 -99 -287c2.66699 -66 47 -125.167 133 -177.5
s200.667 -102.5 344 -150.5l396 -131l73 -28c41.333 57.333 69.666 100.166 84.999 128.499s26.666 67.166 33.999 116.499z" />
    <glyph glyph-name="dieresis" unicode="&#xa8;" horiz-adv-x="1081" 
d="M455 2335c0 -52.667 -17.332 -98 -51.999 -136s-76 -57 -124 -57c-45.333 0 -84.833 17.167 -118.5 51.5s-53.167 75.833 -58.5 124.5c0 54 16.667 101 50 141s75.666 60 126.999 60c52.667 0 95.167 -17.167 127.5 -51.5s48.5 -78.5 48.5 -132.5zM999.001 2318
c-4 -48.667 -24.1689 -90.167 -60.502 -124.5s-80.166 -51.5 -131.499 -51.5c-46 0 -85.833 17.5 -119.5 52.5s-52.5 76.167 -56.5 123.5c0 54 16.667 101 50 141s75.333 60 126 60c52.667 0 97.834 -19.833 135.501 -59.5s56.5 -86.834 56.5 -141.5z" />
    <glyph glyph-name="copyright" unicode="&#xa9;" horiz-adv-x="2679" 
d="M1352 0c-200.667 0 -379.667 34.666 -537 103.999s-289 163.5 -395 282.5s-186.333 253.667 -241 404s-83 305.833 -85 466.5c2 160 30.333 315.333 85 466s135 285.334 241 404.001s237.667 212.334 395 281c157.333 68.667 336.333 103 537 103
s379.5 -34.333 536.5 -103s288.5 -162.334 394.5 -281.001s185.5 -253 238.5 -403s79.5 -305.667 79.5 -467s-26.5 -317.166 -79.5 -467.499s-132.333 -285 -238 -404s-237.167 -213 -394.5 -282s-336.333 -103.5 -537 -103.5zM1352 2376
c-236 0 -438.167 -52.501 -606.5 -157.501s-295 -243.167 -380 -414.5s-129.167 -353.666 -132.5 -546.999c3.33301 -194.667 47.5 -377.667 132.5 -549s211.667 -309.666 380 -414.999s370.5 -158 606.5 -158s439.167 52.833 609.5 158.5s298.333 244.667 384 417
s128.5 354.5 128.5 546.5c0 190.667 -43 372.167 -129 544.5s-214 311.166 -384 416.499s-373 158 -609 158zM1778 1704c0 28 -22.168 58 -66.501 90s-105.5 55.333 -183.5 70c4.66699 0 -13 2.66699 -53 8s-78.333 8 -115 8c-165.333 0 -295.166 -56.5 -389.499 -169.5
s-143.5 -255.833 -147.5 -428.5c5.33301 -22 8 -57.333 8 -106c14 -103.333 47.5 -195.833 100.5 -277.5s120.833 -146.834 203.5 -195.501s171.334 -75.334 266.001 -80.001c102 0 181.833 9.5 239.5 28.5s132.167 50.167 223.5 93.5l16 -16l-33 -90
c-56.667 -28.667 -128.834 -54.334 -216.501 -77.001s-166.834 -34 -237.501 -34c-223.333 13.333 -401.166 73.333 -533.499 180s-211.166 254.334 -236.499 443.001c-3.33301 22 -5 52 -5 90c0 204.667 58.667 368.334 176 491.001s252.666 196.667 405.999 222
c38 5.33301 94 8 168 8c78 0 151.5 -7.16699 220.5 -21.5s166.167 -37.166 291.5 -68.499l-41 -295h-61v127z" />
    <glyph glyph-name="ordfeminine" unicode="&#xaa;" horiz-adv-x="1200" 
d="M975 1974c-8 -140.667 -16.332 -267.667 -24.999 -381c7.33301 -106 21 -159 41 -159c12.667 6 28 9.66699 46 11s30 3 36 5l37 12l33 -61c-47.333 -6 -110.833 -26.5 -190.5 -61.5s-133.5 -56.833 -161.5 -65.5c-6 0 -11.667 4 -17 12
c32.667 171.333 49 299.666 49 384.999v184l-209 -335c-38.667 -64.667 -90.167 -120.5 -154.5 -167.5s-124.5 -70.5 -180.5 -70.5c-46.667 2 -82.334 29.167 -107.001 81.5s-37 112.5 -37 180.5c6 135.333 47.333 277.333 124 426s165 273.167 265 373.5
s183.333 150.5 250 150.5c11.333 0 26.333 -1.33301 45 -4s33.667 -4 45 -4l168 17c-33.333 -317.333 -52.333 -493.666 -57 -528.999zM799.001 2408c-54.667 0 -118.834 -37.333 -192.501 -112s-139 -170.334 -196 -287c-57 -116.667 -90.167 -234.667 -99.5 -354
c0 -55.333 6.16699 -98.5 18.5 -129.5s41.833 -46.5 88.5 -46.5c78.667 3.33301 157.334 73.333 236.001 210s140.667 281 186 433c16 40 24 85 24 135c0 86.667 -21.667 137 -65 151zM999.001 930h-798v180h798v-180z" />
    <glyph glyph-name="guillemotleft" unicode="&#xab;" horiz-adv-x="1864" 
d="M102 1176l729 544v-360l-520 -369l512 -368v-373l-721 557v369zM1016 1176l737 544v-352l-520 -377l504 -360v-373l-721 557v361z" />
    <glyph glyph-name="logicalnot" unicode="&#xac;" horiz-adv-x="2720" 
d="M2400 881h-2306v192h2515v-1073h-209v881z" />
    <glyph glyph-name="registered" unicode="&#xae;" horiz-adv-x="2687" 
d="M1352 0c-200.667 0 -379.667 34.666 -537 103.999s-289 163.5 -395 282.5s-186.333 253.667 -241 404s-83 305.833 -85 466.5c2 160 30.333 315.333 85 466s135 285.334 241 404.001s237.667 212.334 395 281c157.333 68.667 336.333 103 537 103
s379.5 -34.333 536.5 -103s288.5 -162.334 394.5 -281.001s185.5 -253 238.5 -403s79.5 -305.667 79.5 -467s-26.5 -317.166 -79.5 -467.499s-132.333 -285 -238 -404s-237.167 -213 -394.5 -282s-336.333 -103.5 -537 -103.5zM1352 2376
c-236 0 -438.167 -52.501 -606.5 -157.501s-295 -243.167 -380 -414.5s-129.167 -353.666 -132.5 -546.999c3.33301 -194.667 47.5 -377.667 132.5 -549s211.667 -309.666 380 -414.999s370.5 -158 606.5 -158s439.167 52.833 609.5 158.5s298.333 244.667 384 417
s128.5 354.5 128.5 546.5c0 190.667 -43 372.167 -129 544.5s-214 311.166 -384 416.499s-373 158 -609 158zM1217 1274l8 29.001l69 -9c94 0 179 26.167 255 78.5s114 120.5 114 204.5c0 88.667 -32.333 158.667 -97 210s-141.667 77 -231 77c-32 0 -93.333 -11 -184 -33
v-1102c0 -76.667 61.333 -115 184 -115v-53h-561v53c122.667 0 184 38.333 184 115v1032c0 74 -42.333 111 -127 111h-57v65h680c109.333 0 203.5 -27.833 282.5 -83.5s118.5 -132.834 118.5 -231.501c0 -100 -30.333 -172.333 -91 -217s-155.667 -94 -285 -148l442 -569
c4 -6.66699 12 -16.167 24 -28.5s27.333 -21.833 46 -28.5c8 0 14.667 -1.33301 20 -4s12.333 -4 21 -4v-54c-20 0 -40.667 1.5 -62 4.5s-40.333 4.5 -57 4.5c-66 0 -116.667 -5.66699 -152 -17z" />
    <glyph glyph-name="plusminus" unicode="&#xb1;" horiz-adv-x="1593" 
d="M721 1200v615h168v-615h614v-168h-622v-614h-160v614h-610v168h610zM86 -8v127h1401v-127h-1401z" />
    <glyph glyph-name="acute" unicode="&#xb4;" horiz-adv-x="913" 
d="M82 2208l487 409l222 -192l-656 -291z" />
    <glyph glyph-name="mu" unicode="&#xb5;" horiz-adv-x="2376" 
d="M242 1982l327 -16.002v-1368c0 -107.333 34 -203.166 102 -287.499s154.333 -126.5 259 -126.5c68 3.33301 140.833 24.333 218.5 63s143.167 89.5 196.5 152.5s80 129.167 80 198.5v1376h328v-1544c0 -80 21.333 -154.667 64 -224s100.667 -104 174 -104
c82.667 14 141.334 75.667 176 185l33 106h65l-24 -123c-17.333 -94.667 -76.333 -174.334 -177 -239.001s-201.667 -97 -303 -97c-85.333 14 -163 57 -233 129s-107 157.333 -111 256l-98 -102c-67.333 -76 -151.166 -139.333 -251.499 -190s-187.166 -76 -260.499 -76
c-73.333 5.33301 -153.833 26.5 -241.5 63.5s-156.167 90.833 -205.5 161.5v-135c0 -55.333 5.66699 -103.5 17 -144.5s29.166 -91.833 53.499 -152.5s42.666 -116 54.999 -166s18.5 -107.333 18.5 -172c0 -69.333 -19.333 -131.666 -58 -186.999s-89 -83 -151 -83
c-52 4 -94.667 29 -128 75s-52 101.333 -56 166c0 74.667 21.833 180.834 65.5 318.501s65.5 239.167 65.5 304.5v1982z" />
    <glyph glyph-name="paragraph" unicode="&#xb6;" horiz-adv-x="2130" 
d="M1434 2384h-226v-2703h226v2703zM1696 2150l0.000976562 -2326c0 -128.667 83.333 -193 250 -193h69v-94c-74.667 0 -186.5 2.83301 -335.5 8.5s-271.833 8.5 -368.5 8.5c-94.667 0 -218.667 -2.83301 -372 -8.5s-271 -8.5 -353 -8.5v94l86 9
c89.333 19.333 154.666 40 195.999 62s62 65.333 62 130v1450c-142 0 -277.333 28.5 -406 85.5s-233.5 139.833 -314.5 248.5s-123.5 233.667 -127.5 375c4 75.333 13.667 136.666 29 184c28.667 78 80.5 143.833 155.5 197.5s159 92.834 252 117.5
c93 24.667 183.833 37 272.5 37l49 -8c16.667 0 108.167 -4.16699 274.5 -12.5s279.5 -12.5 339.5 -12.5c68 0 163.5 2.83301 286.5 8.5s222.833 8.5 299.5 8.5v-103c-108 0 -192.667 -10.667 -254 -32c-60 -18 -90 -93.333 -90 -226zM938.001 1417v959l-57 8
c-40 0 -90.5 -13 -151.5 -39s-117.5 -72.333 -169.5 -139s-81.667 -156.334 -89 -269c0 -125.333 40.833 -235.833 122.5 -331.5s196.5 -158.5 344.5 -188.5z" />
    <glyph glyph-name="periodcentered" unicode="&#xb7;" horiz-adv-x="864" 
d="M94 1110c4 90.667 41.668 167.333 113.001 230s154 94 248 94c59.333 -6 113.166 -26.333 161.499 -61s86 -79.5 113 -134.5s40.5 -112.833 40.5 -173.5c-4 -92 -38.667 -169.667 -104 -233s-144 -95 -236 -95c-90 0 -168.5 37 -235.5 111s-100.5 161.333 -100.5 262z
" />
    <glyph glyph-name="ordmasculine" unicode="&#xba;" horiz-adv-x="1126" 
d="M135 1663c3.33301 158 20.3311 296.498 50.998 415.498s88.834 218 174.501 297s205.834 118.5 360.501 118.5c87.333 0 150.333 -48.667 189 -146s60.334 -213.666 65.001 -348.999c0 -126.667 -15.167 -244.167 -45.5 -352.5s-83 -198.166 -158 -269.499
s-175.167 -108.333 -300.5 -111c-16.667 5.33301 -34.334 8 -53.001 8c-98.667 6.66699 -170.5 36 -215.5 88s-67.5 152.333 -67.5 301zM318.998 1778c0 -130 13 -232.668 39 -308.001s85.667 -114.666 179 -117.999c92 0 157.333 49.667 196 149s58 223 58 371
c0 352 -79.333 528 -238 528c-54 0 -98.5 -36.333 -133.5 -109s-60.5 -157.5 -76.5 -254.5s-24 -183.167 -24 -258.5zM863.998 937.997h-671v180h671v-180z" />
    <glyph glyph-name="guillemotright" unicode="&#xbb;" horiz-adv-x="1839" 
d="M1008 1712l729 -545v-368l-721 -557v372l504 361l-512 377v360zM82 1704l725 -545v-360l-713 -557v372l504 361l-516 377v352z" />
    <glyph glyph-name="questiondown" unicode="&#xbf;" horiz-adv-x="1200" 
d="M983 1769c0 -72 -21.667 -132.999 -65 -182.999s-98 -75 -164 -75c-63.333 0 -117.166 24.333 -161.499 73s-68.5 105 -72.5 169c0 65.333 22.167 122.666 66.5 171.999s100.166 74 167.499 74c62.667 0 116.5 -23.167 161.5 -69.5s67.5 -99.833 67.5 -160.5z
M217 8.00098l556.999 1360l115 -74l-311 -884c-100 -293.333 -153.333 -531 -160 -713c9.33301 -240.667 110.333 -361 303 -361c122.667 0 240 45.333 352 136l37 -33c-74 -144.667 -111 -280 -111 -406c-26.667 -9.33301 -71.667 -21.166 -135 -35.499
s-135.666 -21.5 -216.999 -21.5c-157.333 0 -286.5 50.5 -387.5 151.5s-156.167 232.167 -165.5 393.5c7.33301 152 48.333 314.333 123 487z" />
    <glyph glyph-name="Agrave" unicode="&#xc0;" horiz-adv-x="2646" 
d="M49 -16l0.000976562 150.998c13.333 0 42 -5.33301 86 -16c165.333 7.33301 285.666 107 360.999 299c376.667 944 580 1607.33 610 1990c58.667 8 104 14.5 136 19.5s64.833 13 98.5 24s74.167 28.167 121.5 51.5l356.5 -1059.5
c59.667 -175 127.834 -362.5 204.501 -562.5l149 -420.5c37.333 -104.333 73 -183.333 107 -237s74.333 -80.5 121 -80.5h185v-135c-123.333 5.33301 -286 8 -488 8c-112 0 -307.333 -5.33301 -586 -16v143l218 -8c111.333 0 167 38.333 167 115
c0 6.66699 -1.33301 17.334 -4 32.001s-4 24.334 -4 29.001l-200 602h-816l-208 -544c-6 -27.333 -14.333 -63 -25 -107c0 -80 75 -125 225 -135c77.333 10.667 130.666 16 159.999 16v-159c-234.667 21.333 -397 32 -487 32c-101.333 0 -264 -10.667 -488 -32zM1257 2159
l-327 -1094h700zM1176 3015l471 -312l-62 -69l-647 151z" />
    <glyph glyph-name="Aacute" unicode="&#xc1;" 
d="M49 -16l0.000976562 150.998c13.333 0 42 -5.33301 86 -16c165.333 7.33301 285.666 107 360.999 299c376.667 944 580 1607.33 610 1990c58.667 8 104 14.5 136 19.5s64.833 13 98.5 24s74.167 28.167 121.5 51.5l356.5 -1059.5
c59.667 -175 127.834 -362.5 204.501 -562.5l149 -420.5c37.333 -104.333 73 -183.333 107 -237s74.333 -80.5 121 -80.5h185v-135c-123.333 5.33301 -286 8 -488 8c-112 0 -307.333 -5.33301 -586 -16v143l218 -8c111.333 0 167 38.333 167 115
c0 6.66699 -1.33301 17.334 -4 32.001s-4 24.334 -4 29.001l-200 602h-816l-208 -544c-6 -27.333 -14.333 -63 -25 -107c0 -80 75 -125 225 -135c77.333 10.667 130.666 16 159.999 16v-159c-234.667 21.333 -397 32 -487 32c-101.333 0 -264 -10.667 -488 -32zM1257 2159
l-327 -1094h700zM897.001 2687l487 410l226 -193l-660 -287z" />
    <glyph glyph-name="Acircumflex" unicode="&#xc2;" 
d="M49 -16l0.000976562 150.998c13.333 0 42 -5.33301 86 -16c165.333 7.33301 285.666 107 360.999 299c376.667 944 580 1607.33 610 1990c58.667 8 104 14.5 136 19.5s64.833 13 98.5 24s74.167 28.167 121.5 51.5l356.5 -1059.5
c59.667 -175 127.834 -362.5 204.501 -562.5l149 -420.5c37.333 -104.333 73 -183.333 107 -237s74.333 -80.5 121 -80.5h185v-135c-123.333 5.33301 -286 8 -488 8c-112 0 -307.333 -5.33301 -586 -16v143l218 -8c111.333 0 167 38.333 167 115
c0 6.66699 -1.33301 17.334 -4 32.001s-4 24.334 -4 29.001l-200 602h-816l-208 -544c-6 -27.333 -14.333 -63 -25 -107c0 -80 75 -125 225 -135c77.333 10.667 130.666 16 159.999 16v-159c-234.667 21.333 -397 32 -487 32c-101.333 0 -264 -10.667 -488 -32zM1257 2159
l-327 -1094h700zM1798 2642l-516 180l-520 -205l520 471z" />
    <glyph glyph-name="Atilde" unicode="&#xc3;" 
d="M49 -16l0.000976562 150.998c13.333 0 42 -5.33301 86 -16c165.333 7.33301 285.666 107 360.999 299c376.667 944 580 1607.33 610 1990c58.667 8 104 14.5 136 19.5s64.833 13 98.5 24s74.167 28.167 121.5 51.5l356.5 -1059.5
c59.667 -175 127.834 -362.5 204.501 -562.5l149 -420.5c37.333 -104.333 73 -183.333 107 -237s74.333 -80.5 121 -80.5h185v-135c-123.333 5.33301 -286 8 -488 8c-112 0 -307.333 -5.33301 -586 -16v143l218 -8c111.333 0 167 38.333 167 115
c0 6.66699 -1.33301 17.334 -4 32.001s-4 24.334 -4 29.001l-200 602h-816l-208 -544c-6 -27.333 -14.333 -63 -25 -107c0 -80 75 -125 225 -135c77.333 10.667 130.666 16 159.999 16v-159c-234.667 21.333 -397 32 -487 32c-101.333 0 -264 -10.667 -488 -32zM1257 2159
l-327 -1094h700zM922.001 2728l-115.001 33c69.333 170 189.333 262.667 360 278c36.667 0 70.834 -9 102.501 -27s66.5 -43.833 104.5 -77.5s67.167 -57.5 87.5 -71.5s42.5 -22 66.5 -24c10.667 5.33301 21.667 8 33 8c40 16 79.333 48.667 118 98l99 -33
c-19.333 -82 -58.5 -148.333 -117.5 -199s-131.833 -82.667 -218.5 -96c-35.333 0 -68 8.33301 -98 25s-64 41.5 -102 74.5s-71.333 58.167 -100 75.5s-59.667 26 -93 26c-44 0 -86.333 -30 -127 -90z" />
    <glyph glyph-name="Adieresis" unicode="&#xc4;" horiz-adv-x="2671" 
d="M49 -16l0.000976562 150.998c13.333 0 42 -5.33301 86 -16c165.333 7.33301 285.666 107 360.999 299c376.667 944 580 1607.33 610 1990c58.667 8 104 14.5 136 19.5s64.833 13 98.5 24s74.167 28.167 121.5 51.5l356.5 -1059.5
c59.667 -175 127.834 -362.5 204.501 -562.5l149 -420.5c37.333 -104.333 73 -183.333 107 -237s74.333 -80.5 121 -80.5h185v-135c-123.333 5.33301 -286 8 -488 8c-112 0 -307.333 -5.33301 -586 -16v143l218 -8c111.333 0 167 38.333 167 115
c0 6.66699 -1.33301 17.334 -4 32.001s-4 24.334 -4 29.001l-200 602h-816l-208 -544c-6 -27.333 -14.333 -63 -25 -107c0 -80 75 -125 225 -135c77.333 10.667 130.666 16 159.999 16v-159c-234.667 21.333 -397 32 -487 32c-101.333 0 -264 -10.667 -488 -32zM1257 2159
l-327 -1094h700zM1208 2818c0 -53.333 -17.667 -98.666 -53 -136c-35.333 -37.333 -76.333 -56 -123 -56c-47.333 0 -87.5 17.167 -120.5 51.5s-51.5 75.833 -55.5 124.5c0 52 16.667 97.667 50 137s75.333 59 126 59c52 0 94.333 -17.167 127 -51.5s49 -77.166 49 -128.5z
M1753 2802c-4 -50 -24.168 -91.833 -60.501 -125.5s-80.166 -50.5 -131.499 -50.5c-48.667 0 -89 16.667 -121 50s-50.667 75.333 -56 126c0 52 16.333 97.667 49 137s75.334 59 128.001 59c51.333 0 96.166 -19.667 134.499 -59s57.5 -85 57.5 -137z" />
    <glyph glyph-name="Aring" unicode="&#xc5;" horiz-adv-x="2671" 
d="M49 -16l0.000976562 150.998c13.333 0 42 -5.33301 86 -16c165.333 7.33301 285.666 107 360.999 299c376.667 944 580 1607.33 610 1990c58.667 8 104 14.5 136 19.5s64.833 13 98.5 24s74.167 28.167 121.5 51.5l356.5 -1059.5
c59.667 -175 127.834 -362.5 204.501 -562.5l149 -420.5c37.333 -104.333 73 -183.333 107 -237s74.333 -80.5 121 -80.5h185v-135c-123.333 5.33301 -286 8 -488 8c-112 0 -307.333 -5.33301 -586 -16v143l218 -8c111.333 0 167 38.333 167 115
c0 6.66699 -1.33301 17.334 -4 32.001s-4 24.334 -4 29.001l-200 602h-816l-208 -544c-6 -27.333 -14.333 -63 -25 -107c0 -80 75 -125 225 -135c77.333 10.667 130.666 16 159.999 16v-159c-234.667 21.333 -397 32 -487 32c-101.333 0 -264 -10.667 -488 -32zM1257 2159
l-327 -1094h700zM1520 2888c0 -70.667 -24.1689 -130.667 -72.502 -180s-106.166 -74 -173.499 -74c-65.333 0 -122 24 -170 72s-72 105.667 -72 173c0 63.333 24.167 119.5 72.5 168.5s104.833 73.5 169.5 73.5c68.667 0 126.834 -22.167 174.501 -66.5
s71.5 -99.833 71.5 -166.5zM1274 3015c-41.333 0 -76.333 -14 -105 -42s-43 -62 -43 -102c0 -34.667 14.667 -65.834 44 -93.5c29.333 -27.667 64 -41.5 104 -41.5c38.667 0 73.5 13.833 104.5 41.5s46.5 58.834 46.5 93.5c0 40 -15 74 -45 102s-65.333 42 -106 42z" />
    <glyph glyph-name="AE" unicode="&#xc6;" horiz-adv-x="3658" 
d="M2056 2150l-721 -1093h721v1093zM1888 2384l-16 118.999l1495 8l33 -565h-152l-8 143c0 74.667 -31.333 133 -94 175s-132.334 63 -209 63h-561v-959l610 16l82.5 14.5c23.667 4.33301 44.5 11.166 62.5 20.499s32.5 23.833 43.5 43.5s16.5 46.834 16.5 81.501v119h139
c0 -117.333 -2.66699 -207.333 -8 -270c2.66699 -50.667 6 -126.834 10 -228.501s7.33301 -179.834 10 -234.501h-151v143c0 40 -13.667 74 -41 102s-61.666 42 -103 42h-41l-622 16v-664c0 -118.667 17.5 -209.667 52.5 -273s104.833 -95 209.5 -95h418
c86 0 166.333 28.667 241 86c49.333 40 82.5 102.167 99.5 186.5s26.167 150.5 27.5 198.5h144l-74 -656c-320 11.333 -522 17 -606 17h-385c-426.667 0 -754.334 -8.33301 -983.001 -25l49 144l160 -9c82.667 0 155.167 14.833 217.5 44.5s93.5 81.834 93.5 156.501l8 578
h-831l-410 -553c-38.667 -68.667 -62 -127.334 -70 -176.001c4 0 6.5 -1.16699 7.5 -3.5s1.5 -4.16602 1.5 -5.49902c5.33301 -27.333 61.333 -46.333 168 -57c40 4 74.667 7.33301 104 10s50.666 4.66699 63.999 6l-58 -151c-154 22 -308.333 33 -463 33
c-90 0 -189.833 -5.33301 -299.5 -16s-177.5 -19 -203.5 -25l45 151c10.667 0 38 -5.33301 82 -16c140.667 16.667 263.334 75.334 368.001 176.001l103 115c48.667 52.667 142.834 174.167 282.501 364.5l428.5 603c146 211.667 277.833 410.834 395.5 597.501
s185.5 309.334 203.5 368z" />
    <glyph glyph-name="Ccedilla" unicode="&#xc7;" horiz-adv-x="2634" 
d="M1442 -66l-98.999 -175.997h127c57.333 0 105.166 -20 143.499 -60s57.5 -88 57.5 -144c0 -78.667 -33.333 -144.167 -100 -196.5s-139.667 -78.5 -219 -78.5c-164 12 -246 62.667 -246 152c5.33301 54.667 31.333 82 78 82c60 0 90 -33 90 -99v-37
c13.333 -27.333 42 -41 86 -41c49.333 9.33301 89.666 30.5 120.999 63.5s47 73.5 47 121.5c0 41.333 -7.83301 70.833 -23.5 88.5s-43.5 33.167 -83.5 46.5s-63 21.666 -69 24.999c-31.333 -6.66699 -63 -20.334 -95 -41.001l-32 24l135 270
c-186 12.667 -356.667 54.334 -512 125.001s-289.5 165.5 -402.5 284.5s-199.833 256.5 -260.5 412.5s-91 323 -91 501c6 230 68.5 443.667 187.5 641s279.333 354.333 481 471s419.834 175 654.501 175c70 0 138.5 -5.33301 205.5 -16s154 -27.167 261 -49.5
s189.5 -38.166 247.5 -47.5c58 -9.33301 120.333 -14 187 -14v-578h-127c-1.33301 9.33301 -7.5 43.166 -18.5 101.499s-39.5 117.833 -85.5 178.5s-123.833 114 -233.5 160s-257.834 70 -444.501 72c-187.333 0 -357.166 -41.5 -509.499 -124.5
s-273.5 -197.167 -363.5 -342.5s-140.333 -306.333 -151 -483c0 -208.667 52.333 -401.334 157 -578.001s243.667 -317 417 -421s357.333 -157.333 552 -160c11.333 5.33301 25 8 41 8c134.667 4 246.5 16.333 335.5 37s165 55.667 228 105s115.5 118 157.5 206l144 307
l135 -74l-377 -737c-102 -52.667 -218.667 -92.5 -350 -119.5s-259 -40.5 -383 -40.5z" />
    <glyph glyph-name="Egrave" unicode="&#xc8;" horiz-adv-x="2130" 
d="M49 2351v152.002c250.667 -14.667 538.667 -24.334 864 -29c326.667 4.66699 617.667 14.334 873 29l29 -566l-144 -8l-16 152c-7.33301 88 -38 148.167 -92 180.5s-127.333 48.5 -220 48.5h-536v-958l610 16c68.667 5.33301 120 17.666 154 36.999s51 63 51 131v111h139
c0 -112 -2.66699 -199.667 -8 -263c9.33301 -182 17.666 -336 24.999 -462h-148v143c0 95.333 -62.667 143 -188 143l-619 17v-664c0 -82 5.33301 -148.5 16 -199.5s35 -91.833 73 -122.5s94.333 -46 169 -46h422c137.333 0 230.5 46.167 279.5 138.5
s76.167 203.166 81.5 332.499h151l-78 -664c-388 22 -676 33 -864 33c-300 0 -641.333 -13.667 -1024 -41v160h238c104.667 0 173.834 24.833 207.501 74.5s50.5 128.5 50.5 236.5v1249c0 164.667 -6.66699 297.5 -20 398.5s-45 170.167 -95 207.5
c-17.333 22 -80 33 -188 33h-193zM864 3015l471 -312l-61 -69l-651 151z" />
    <glyph glyph-name="Eacute" unicode="&#xc9;" horiz-adv-x="2130" 
d="M49 2351v152.002c250.667 -14.667 538.667 -24.334 864 -29c326.667 4.66699 617.667 14.334 873 29l29 -566l-144 -8l-16 152c-7.33301 88 -38 148.167 -92 180.5s-127.333 48.5 -220 48.5h-536v-958l610 16c68.667 5.33301 120 17.666 154 36.999s51 63 51 131v111h139
c0 -112 -2.66699 -199.667 -8 -263c9.33301 -182 17.666 -336 24.999 -462h-148v143c0 95.333 -62.667 143 -188 143l-619 17v-664c0 -82 5.33301 -148.5 16 -199.5s35 -91.833 73 -122.5s94.333 -46 169 -46h422c137.333 0 230.5 46.167 279.5 138.5
s76.167 203.166 81.5 332.499h151l-78 -664c-388 22 -676 33 -864 33c-300 0 -641.333 -13.667 -1024 -41v160h238c104.667 0 173.834 24.833 207.501 74.5s50.5 128.5 50.5 236.5v1249c0 164.667 -6.66699 297.5 -20 398.5s-45 170.167 -95 207.5
c-17.333 22 -80 33 -188 33h-193zM713 2679l487 409l225 -192l-655 -287z" />
    <glyph glyph-name="Ecircumflex" unicode="&#xca;" horiz-adv-x="2122" 
d="M49 2351v152.002c250.667 -14.667 538.667 -24.334 864 -29c326.667 4.66699 617.667 14.334 873 29l29 -566l-144 -8l-16 152c-7.33301 88 -38 148.167 -92 180.5s-127.333 48.5 -220 48.5h-536v-958l610 16c68.667 5.33301 120 17.666 154 36.999s51 63 51 131v111h139
c0 -112 -2.66699 -199.667 -8 -263c9.33301 -182 17.666 -336 24.999 -462h-148v143c0 95.333 -62.667 143 -188 143l-619 17v-664c0 -82 5.33301 -148.5 16 -199.5s35 -91.833 73 -122.5s94.333 -46 169 -46h422c137.333 0 230.5 46.167 279.5 138.5
s76.167 203.166 81.5 332.499h151l-78 -664c-388 22 -676 33 -864 33c-300 0 -641.333 -13.667 -1024 -41v160h238c104.667 0 173.834 24.833 207.501 74.5s50.5 128.5 50.5 236.5v1249c0 164.667 -6.66699 297.5 -20 398.5s-45 170.167 -95 207.5
c-17.333 22 -80 33 -188 33h-193zM1503 2642l-520 180l-520 -205l520 471z" />
    <glyph glyph-name="Edieresis" unicode="&#xcb;" horiz-adv-x="2122" 
d="M49 2351v152.002c250.667 -14.667 538.667 -24.334 864 -29c326.667 4.66699 617.667 14.334 873 29l29 -566l-144 -8l-16 152c-7.33301 88 -38 148.167 -92 180.5s-127.333 48.5 -220 48.5h-536v-958l610 16c68.667 5.33301 120 17.666 154 36.999s51 63 51 131v111h139
c0 -112 -2.66699 -199.667 -8 -263c9.33301 -182 17.666 -336 24.999 -462h-148v143c0 95.333 -62.667 143 -188 143l-619 17v-664c0 -82 5.33301 -148.5 16 -199.5s35 -91.833 73 -122.5s94.333 -46 169 -46h422c137.333 0 230.5 46.167 279.5 138.5
s76.167 203.166 81.5 332.499h151l-78 -664c-388 22 -676 33 -864 33c-300 0 -641.333 -13.667 -1024 -41v160h238c104.667 0 173.834 24.833 207.501 74.5s50.5 128.5 50.5 236.5v1249c0 164.667 -6.66699 297.5 -20 398.5s-45 170.167 -95 207.5
c-17.333 22 -80 33 -188 33h-193zM889 2818c0 -53.333 -17.667 -98.666 -53 -136c-35.333 -37.333 -76.333 -56 -123 -56c-48.667 0 -89.167 16.667 -121.5 50s-50.5 75.333 -54.5 126c0 53.333 16.333 99.333 49 138s75 58 127 58c51.333 0 93.5 -17 126.5 -51
s49.5 -77 49.5 -129zM1434 2802c-4 -49.333 -24.333 -91 -61 -125s-80.667 -51 -132 -51c-48.667 0 -89.167 17 -121.5 51s-50.5 75.667 -54.5 125c0 52 16.333 97.667 49 137s75 59 127 59c51.333 0 96.333 -20 135 -60s58 -85.333 58 -136z" />
    <glyph glyph-name="Igrave" unicode="&#xcc;" horiz-adv-x="1311" 
d="M86 2343v151c59.333 -5.33301 238.333 -14.666 537 -28c290.667 12 472 21.333 544 28v-159h-168c-88 0 -148.333 -26.333 -181 -79s-51.334 -130.334 -56.001 -233.001c5.33301 -10.667 8 -27 8 -49v-1245c0 -172.667 13 -313.5 39 -422.5s89.333 -163.5 190 -163.5h193
v-143c-162 22 -346.333 33 -553 33s-391 -11 -553 -33v152h184c144.667 0 217 101 217 303v1360c0 150.667 -5.66699 273.167 -17 367.501c-11.333 94.333 -39.666 145.166 -84.999 152.5c-22 5.33301 -69.667 8 -143 8h-156zM463 2990l475 -311l-66 -70l-647 152z" />
    <glyph glyph-name="Iacute" unicode="&#xcd;" horiz-adv-x="1311" 
d="M86 2343v151c59.333 -5.33301 238.333 -14.666 537 -28c290.667 12 472 21.333 544 28v-159h-168c-88 0 -148.333 -26.333 -181 -79s-51.334 -130.334 -56.001 -233.001c5.33301 -10.667 8 -27 8 -49v-1245c0 -172.667 13 -313.5 39 -422.5s89.333 -163.5 190 -163.5h193
v-143c-162 22 -346.333 33 -553 33s-391 -11 -553 -33v152h184c144.667 0 217 101 217 303v1360c0 150.667 -5.66699 273.167 -17 367.501c-11.333 94.333 -39.666 145.166 -84.999 152.5c-22 5.33301 -69.667 8 -143 8h-156zM319 2687l488 410l225 -193l-655 -287z" />
    <glyph glyph-name="Icircumflex" unicode="&#xce;" horiz-adv-x="1311" 
d="M86 2343v151c59.333 -5.33301 238.333 -14.666 537 -28c290.667 12 472 21.333 544 28v-159h-168c-88 0 -148.333 -26.333 -181 -79s-51.334 -130.334 -56.001 -233.001c5.33301 -10.667 8 -27 8 -49v-1245c0 -172.667 13 -313.5 39 -422.5s89.333 -163.5 190 -163.5h193
v-143c-162 22 -346.333 33 -553 33s-391 -11 -553 -33v152h184c144.667 0 217 101 217 303v1360c0 150.667 -5.66699 273.167 -17 367.501c-11.333 94.333 -39.666 145.166 -84.999 152.5c-22 5.33301 -69.667 8 -143 8h-156zM1151 2626l-520 184l-520 -209l520 471z" />
    <glyph glyph-name="Idieresis" unicode="&#xcf;" horiz-adv-x="1311" 
d="M86 2343v151c59.333 -5.33301 238.333 -14.666 537 -28c290.667 12 472 21.333 544 28v-159h-168c-88 0 -148.333 -26.333 -181 -79s-51.334 -130.334 -56.001 -233.001c5.33301 -10.667 8 -27 8 -49v-1245c0 -172.667 13 -313.5 39 -422.5s89.333 -163.5 190 -163.5h193
v-143c-162 22 -346.333 33 -553 33s-391 -11 -553 -33v152h184c144.667 0 217 101 217 303v1360c0 150.667 -5.66699 273.167 -17 367.501c-11.333 94.333 -39.666 145.166 -84.999 152.5c-22 5.33301 -69.667 8 -143 8h-156zM545 2818c0 -53.333 -17.667 -98.666 -53 -136
c-35.333 -37.333 -76.333 -56 -123 -56c-48.667 0 -89.167 16.667 -121.5 50s-50.5 75.333 -54.5 126c0 53.333 16.333 99.333 49 138s75 58 127 58c51.333 0 93.5 -17 126.5 -51s49.5 -77 49.5 -129zM1090 2802c-4 -49.333 -24.333 -91 -61 -125s-80.667 -51 -132 -51
c-48.667 0 -89.167 17 -121.5 51s-50.5 75.667 -54.5 125c0 52 16.333 97.667 49 137s75 59 127 59c51.333 0 96.333 -20 135 -60s58 -85.333 58 -136z" />
    <glyph glyph-name="Ntilde" unicode="&#xd1;" horiz-adv-x="3113" 
d="M729 2494l1774 -1990l-78 1610c0 89.333 -12.167 147.166 -36.5 173.5c-24.333 26.333 -65.5 39.5 -123.5 39.5h-143h-123l8 167c154 -15.333 316.333 -27.333 487 -36c189.333 8 363 20 521 36v-159h-185c-68 0 -114.333 -14.833 -139 -44.5s-37 -79.167 -37 -148.5
l-8 -2216h-94l-1921 2196l8 -1536c0 -144 17.833 -253.833 53.5 -329.5s112.167 -113.5 229.5 -113.5h176v-143c-148 22 -318.667 33 -512 33c-171.333 0 -339.333 -8.33301 -504 -25v152h143c93.333 0 153.5 25 180.5 75s40.5 126 40.5 228v74v1577
c0 86 -12.333 147 -37 183s-75 54 -151 54h-172v152c56.667 -12.667 167.334 -25 332.001 -37c161.333 12 265 21.333 311 28zM1073 2720l-115.001 33c70.667 170 191 262.667 361 278c36.667 0 70.834 -9 102.501 -27s68 -45 109 -81s69.667 -59.833 86 -71.5
s37.166 -18.834 62.499 -21.5c11.333 6 22.333 9 33 9c38 14 77.667 46.667 119 98l98 -33c-19.333 -82 -58.5 -148.333 -117.5 -199s-131.833 -82.667 -218.5 -96c-34.667 0 -67 8.33301 -97 25s-63.667 41.167 -101 73.5s-70.833 57.5 -100.5 75.5s-61.167 27 -94.5 27
c-28.667 0 -50.167 -6.5 -64.5 -19.5s-35.166 -36.5 -62.499 -70.5z" />
    <glyph glyph-name="Ograve" unicode="&#xd2;" horiz-adv-x="2785" 
d="M94 1294c0 184 33.5 353.833 100.5 509.5s159.5 289.5 277.5 401.5s255 198.667 411 260s320.333 93 493 95c237.333 0 458 -60.167 662 -180.5s365.833 -282.5 485.5 -486.5s179.5 -424 179.5 -660c0 -262.667 -58.5 -491.167 -175.5 -685.5
s-274.5 -342.333 -472.5 -444s-416 -152.5 -654 -152.5c-245.333 0 -467.333 60.333 -666 181s-354.5 284 -467.5 490s-170.833 430 -173.5 672zM401 1327c0 -201.333 41.498 -394.669 124.498 -580.002s200.333 -335.666 352 -450.999s323.5 -174.333 515.5 -177
c6.66699 3.33301 12 5.5 16 6.5s6.66699 1.5 8 1.5c190 5.33301 358.167 49.833 504.5 133.5s260 207.5 341 371.5s121.5 364.333 121.5 601c0 142.667 -24.167 281.334 -72.5 416.001s-116.666 255.167 -205 361.5c-88.333 106.333 -193.166 191 -314.499 254
s-251.666 94.5 -390.999 94.5c-195.333 0 -368 -44.833 -518 -134.5s-266.333 -212.5 -349 -368.5s-127 -332.333 -133 -529zM1208 3006l471 -311l-61 -69l-651 151z" />
    <glyph glyph-name="Oacute" unicode="&#xd3;" horiz-adv-x="2785" 
d="M94 1294c0 184 33.5 353.833 100.5 509.5s159.5 289.5 277.5 401.5s255 198.667 411 260s320.333 93 493 95c237.333 0 458 -60.167 662 -180.5s365.833 -282.5 485.5 -486.5s179.5 -424 179.5 -660c0 -262.667 -58.5 -491.167 -175.5 -685.5
s-274.5 -342.333 -472.5 -444s-416 -152.5 -654 -152.5c-245.333 0 -467.333 60.333 -666 181s-354.5 284 -467.5 490s-170.833 430 -173.5 672zM401 1327c0 -201.333 41.498 -394.669 124.498 -580.002s200.333 -335.666 352 -450.999s323.5 -174.333 515.5 -177
c6.66699 3.33301 12 5.5 16 6.5s6.66699 1.5 8 1.5c190 5.33301 358.167 49.833 504.5 133.5s260 207.5 341 371.5s121.5 364.333 121.5 601c0 142.667 -24.167 281.334 -72.5 416.001s-116.666 255.167 -205 361.5c-88.333 106.333 -193.166 191 -314.499 254
s-251.666 94.5 -390.999 94.5c-195.333 0 -368 -44.833 -518 -134.5s-266.333 -212.5 -349 -368.5s-127 -332.333 -133 -529zM966.998 2695l487 410l225 -193l-655 -286z" />
    <glyph glyph-name="Ocircumflex" unicode="&#xd4;" horiz-adv-x="2785" 
d="M94 1294c0 184 33.5 353.833 100.5 509.5s159.5 289.5 277.5 401.5s255 198.667 411 260s320.333 93 493 95c237.333 0 458 -60.167 662 -180.5s365.833 -282.5 485.5 -486.5s179.5 -424 179.5 -660c0 -262.667 -58.5 -491.167 -175.5 -685.5
s-274.5 -342.333 -472.5 -444s-416 -152.5 -654 -152.5c-245.333 0 -467.333 60.333 -666 181s-354.5 284 -467.5 490s-170.833 430 -173.5 672zM401 1327c0 -201.333 41.498 -394.669 124.498 -580.002s200.333 -335.666 352 -450.999s323.5 -174.333 515.5 -177
c6.66699 3.33301 12 5.5 16 6.5s6.66699 1.5 8 1.5c190 5.33301 358.167 49.833 504.5 133.5s260 207.5 341 371.5s121.5 364.333 121.5 601c0 142.667 -24.167 281.334 -72.5 416.001s-116.666 255.167 -205 361.5c-88.333 106.333 -193.166 191 -314.499 254
s-251.666 94.5 -390.999 94.5c-195.333 0 -368 -44.833 -518 -134.5s-266.333 -212.5 -349 -368.5s-127 -332.333 -133 -529zM1880 2634l-520 184l-520 -209l520 471z" />
    <glyph glyph-name="Otilde" unicode="&#xd5;" horiz-adv-x="2785" 
d="M94 1294c0 184 33.5 353.833 100.5 509.5s159.5 289.5 277.5 401.5s255 198.667 411 260s320.333 93 493 95c237.333 0 458 -60.167 662 -180.5s365.833 -282.5 485.5 -486.5s179.5 -424 179.5 -660c0 -262.667 -58.5 -491.167 -175.5 -685.5
s-274.5 -342.333 -472.5 -444s-416 -152.5 -654 -152.5c-245.333 0 -467.333 60.333 -666 181s-354.5 284 -467.5 490s-170.833 430 -173.5 672zM401 1327c0 -201.333 41.498 -394.669 124.498 -580.002s200.333 -335.666 352 -450.999s323.5 -174.333 515.5 -177
c6.66699 3.33301 12 5.5 16 6.5s6.66699 1.5 8 1.5c190 5.33301 358.167 49.833 504.5 133.5s260 207.5 341 371.5s121.5 364.333 121.5 601c0 142.667 -24.167 281.334 -72.5 416.001s-116.666 255.167 -205 361.5c-88.333 106.333 -193.166 191 -314.499 254
s-251.666 94.5 -390.999 94.5c-195.333 0 -368 -44.833 -518 -134.5s-266.333 -212.5 -349 -368.5s-127 -332.333 -133 -529zM990.998 2777l-109.996 32.999c64.667 169.333 184.667 262 360 278c36 0 69.5 -8.66699 100.5 -26s66.667 -43.666 107 -78.999
s69.666 -59.5 87.999 -72.5s40.166 -20.5 65.499 -22.5c10.667 5.33301 20 8 28 8c38.667 14 79.667 45.333 123 94l94 -29c-19.333 -82 -58.5 -149 -117.5 -201s-131.833 -84.667 -218.5 -98c-34.667 0 -66.834 8.33301 -96.501 25s-63.5 41.5 -101.5 74.5
s-71.333 58.167 -100 75.5s-60.334 26 -95.001 26c-38.667 0 -81 -28.667 -127 -86z" />
    <glyph glyph-name="Odieresis" unicode="&#xd6;" horiz-adv-x="2793" 
d="M94 1294c0 184 33.5 353.833 100.5 509.5s159.5 289.5 277.5 401.5s255 198.667 411 260s320.333 93 493 95c237.333 0 458 -60.167 662 -180.5s365.833 -282.5 485.5 -486.5s179.5 -424 179.5 -660c0 -262.667 -58.5 -491.167 -175.5 -685.5
s-274.5 -342.333 -472.5 -444s-416 -152.5 -654 -152.5c-245.333 0 -467.333 60.333 -666 181s-354.5 284 -467.5 490s-170.833 430 -173.5 672zM401 1327c0 -201.333 41.498 -394.669 124.498 -580.002s200.333 -335.666 352 -450.999s323.5 -174.333 515.5 -177
c6.66699 3.33301 12 5.5 16 6.5s6.66699 1.5 8 1.5c190 5.33301 358.167 49.833 504.5 133.5s260 207.5 341 371.5s121.5 364.333 121.5 601c0 142.667 -24.167 281.334 -72.5 416.001s-116.666 255.167 -205 361.5c-88.333 106.333 -193.166 191 -314.499 254
s-251.666 94.5 -390.999 94.5c-195.333 0 -368 -44.833 -518 -134.5s-266.333 -212.5 -349 -368.5s-127 -332.333 -133 -529zM1286 2847c0 -52.667 -17.333 -98.001 -52 -136.001s-76 -57 -124 -57c-46 0 -85.667 17.5 -119 52.5s-51 76.167 -53 123.5
c0 54.667 16.167 101.834 48.5 141.501s73.5 59.5 123.5 59.5c54 0 96.833 -17.167 128.5 -51.5s47.5 -78.5 47.5 -132.5zM1831 2830c-4 -48.667 -24.167 -90.167 -60.5 -124.5s-80.5 -51.5 -132.5 -51.5c-46 0 -85.833 17.5 -119.5 52.5s-52.5 76.167 -56.5 123.5
c0 54 16.667 101 50 141s75.333 60 126 60c53.333 0 98.833 -19.833 136.5 -59.5s56.5 -86.834 56.5 -141.5z" />
    <glyph glyph-name="Oslash" unicode="&#xd8;" horiz-adv-x="2793" 
d="M999 225c136.667 -65.333 276 -98.002 418 -98.002c190 5.33301 358.167 49.833 504.5 133.5s260 207.5 341 371.5s121.5 364.333 121.5 601c0 192.667 -41.5 374.834 -124.5 546.501s-195.833 308.834 -338.5 411.501zM872 302.998l914.001 1970
c-14 14 -55.5 31.833 -124.5 53.5s-161.5 32.5 -277.5 32.5c-182 0 -346 -39.667 -492 -119s-261.667 -196.666 -347 -351.999s-130.333 -339.666 -135 -552.999c0 -209.333 42.167 -406 126.5 -590s196.166 -331.333 335.499 -442zM922.001 40.9961l-160 -336.001l-148 53
l160 344c-205.333 115.333 -368.666 277.333 -489.999 486s-182 441.334 -182 698.001c0 185.333 33.167 356.333 99.5 513s158.333 292 276 406s253.5 201.667 407.5 263s317.667 92 491 92c174.667 0 340 -31.333 496 -94l127 270l143 -49l-127 -287
c133.333 -77.333 252.166 -176.5 356.5 -297.5c104.333 -121 185.666 -256.833 243.999 -407.5s87.5 -304.667 87.5 -462c0 -199.333 -34.167 -379.333 -102.5 -540s-163.5 -296 -285.5 -406s-262.833 -193.5 -422.5 -250.5s-329.167 -85.5 -508.5 -85.5
c-132.667 0 -286.667 30 -462 90z" />
    <glyph glyph-name="Ugrave" unicode="&#xd9;" horiz-adv-x="2855" 
d="M2232 1098l0.00195312 708.001c0 170.667 -10.833 293.167 -32.5 367.501c-21.667 74.333 -51.667 119.833 -90 136.5s-98.5 25 -180.5 25h-176v159c84 -13.333 227.333 -25.333 430 -36c222.667 8.66699 415.334 20.667 578 36v-159h-119
c-88.667 0 -144.334 -27.167 -167 -81.5c-22.667 -54.333 -34 -147.5 -34 -279.5v-950c0 -364.667 -89.667 -636 -269 -814s-428.333 -267 -747 -267c-153.333 4 -289.5 22.333 -408.5 55s-223.5 86.5 -313.5 161.5s-160 178.333 -210 310s-75 294.5 -75 488.5v857
c0 142 -3.66699 247.5 -11 316.5s-26.833 122.833 -58.5 161.5s-83.5 58 -155.5 58h-99v152c83.333 -12.667 247.333 -25 492 -37c254.667 11.333 428 23.666 520 36.999v-160h-184c-68 0 -117.667 -14.667 -149 -44s-50.5 -68 -57.5 -116s-10.5 -117.667 -10.5 -209v-999
c0 -188.667 31.167 -345 93.5 -469s149.166 -216 260.499 -276s241.666 -91.667 390.999 -95c261.333 0 457 77.167 587 231.5s195 398.166 195 731.499zM1311 2990l475 -311l-66 -70l-647 152z" />
    <glyph glyph-name="Uacute" unicode="&#xda;" horiz-adv-x="2855" 
d="M2232 1098l0.00195312 708.001c0 170.667 -10.833 293.167 -32.5 367.501c-21.667 74.333 -51.667 119.833 -90 136.5s-98.5 25 -180.5 25h-176v159c84 -13.333 227.333 -25.333 430 -36c222.667 8.66699 415.334 20.667 578 36v-159h-119
c-88.667 0 -144.334 -27.167 -167 -81.5c-22.667 -54.333 -34 -147.5 -34 -279.5v-950c0 -364.667 -89.667 -636 -269 -814s-428.333 -267 -747 -267c-153.333 4 -289.5 22.333 -408.5 55s-223.5 86.5 -313.5 161.5s-160 178.333 -210 310s-75 294.5 -75 488.5v857
c0 142 -3.66699 247.5 -11 316.5s-26.833 122.833 -58.5 161.5s-83.5 58 -155.5 58h-99v152c83.333 -12.667 247.333 -25 492 -37c254.667 11.333 428 23.666 520 36.999v-160h-184c-68 0 -117.667 -14.667 -149 -44s-50.5 -68 -57.5 -116s-10.5 -117.667 -10.5 -209v-999
c0 -188.667 31.167 -345 93.5 -469s149.166 -216 260.499 -276s241.666 -91.667 390.999 -95c261.333 0 457 77.167 587 231.5s195 398.166 195 731.499zM1151 2687l487 410l226 -193l-656 -287z" />
    <glyph glyph-name="Ucircumflex" unicode="&#xdb;" horiz-adv-x="2855" 
d="M2232 1098l0.00195312 708.001c0 170.667 -10.833 293.167 -32.5 367.501c-21.667 74.333 -51.667 119.833 -90 136.5s-98.5 25 -180.5 25h-176v159c84 -13.333 227.333 -25.333 430 -36c222.667 8.66699 415.334 20.667 578 36v-159h-119
c-88.667 0 -144.334 -27.167 -167 -81.5c-22.667 -54.333 -34 -147.5 -34 -279.5v-950c0 -364.667 -89.667 -636 -269 -814s-428.333 -267 -747 -267c-153.333 4 -289.5 22.333 -408.5 55s-223.5 86.5 -313.5 161.5s-160 178.333 -210 310s-75 294.5 -75 488.5v857
c0 142 -3.66699 247.5 -11 316.5s-26.833 122.833 -58.5 161.5s-83.5 58 -155.5 58h-99v152c83.333 -12.667 247.333 -25 492 -37c254.667 11.333 428 23.666 520 36.999v-160h-184c-68 0 -117.667 -14.667 -149 -44s-50.5 -68 -57.5 -116s-10.5 -117.667 -10.5 -209v-999
c0 -188.667 31.167 -345 93.5 -469s149.166 -216 260.499 -276s241.666 -91.667 390.999 -95c261.333 0 457 77.167 587 231.5s195 398.166 195 731.499zM1913 2634l-520 184l-521 -209l521 471z" />
    <glyph glyph-name="Udieresis" unicode="&#xdc;" horiz-adv-x="2863" 
d="M2232 1098l0.00195312 708.001c0 170.667 -10.833 293.167 -32.5 367.501c-21.667 74.333 -51.667 119.833 -90 136.5s-98.5 25 -180.5 25h-176v159c84 -13.333 227.333 -25.333 430 -36c222.667 8.66699 415.334 20.667 578 36v-159h-119
c-88.667 0 -144.334 -27.167 -167 -81.5c-22.667 -54.333 -34 -147.5 -34 -279.5v-950c0 -364.667 -89.667 -636 -269 -814s-428.333 -267 -747 -267c-153.333 4 -289.5 22.333 -408.5 55s-223.5 86.5 -313.5 161.5s-160 178.333 -210 310s-75 294.5 -75 488.5v857
c0 142 -3.66699 247.5 -11 316.5s-26.833 122.833 -58.5 161.5s-83.5 58 -155.5 58h-99v152c83.333 -12.667 247.333 -25 492 -37c254.667 11.333 428 23.666 520 36.999v-160h-184c-68 0 -117.667 -14.667 -149 -44s-50.5 -68 -57.5 -116s-10.5 -117.667 -10.5 -209v-999
c0 -188.667 31.167 -345 93.5 -469s149.166 -216 260.499 -276s241.666 -91.667 390.999 -95c261.333 0 457 77.167 587 231.5s195 398.166 195 731.499zM1360 2830c0 -52 -17.333 -96.333 -52 -133s-76 -55 -124 -55c-46 0 -85.833 17.167 -119.5 51.5
s-52.5 75.833 -56.5 124.5c0 52.667 17 98.667 51 138s75.667 59 125 59c51.333 0 93.5 -17.333 126.5 -52s49.5 -79 49.5 -133zM1905 2818c-4 -48.667 -24.5 -90.167 -61.5 -124.5s-80.833 -51.5 -131.5 -51.5c-46 0 -85.833 17.167 -119.5 51.5s-52.5 75.833 -56.5 124.5
c0 51.333 17 97 51 137s75.667 60 125 60c51.333 0 96.333 -20 135 -60s58 -85.667 58 -137z" />
    <glyph glyph-name="Yacute" unicode="&#xdd;" horiz-adv-x="2544" 
d="M2015 2032l-519.996 -959v-594c0 -59.333 8.16699 -117 24.5 -173s38.166 -93.667 65.499 -113c42 -28 132 -47.333 270 -58c49.333 5.33301 111 8 185 8v-151c-238 27.333 -445.667 41 -623 41c-224.667 0 -445.667 -16.333 -663 -49v151
c57.333 0 99.666 -2.66699 126.999 -8c126.667 10 214 29 262 57c54.667 36 82 123.333 82 262v627l-586 909c-64.667 110.667 -123.667 195.834 -177 255.5c-53.333 59.667 -121.333 89.5 -204 89.5h-147v159c206 -23.333 384.667 -38.333 536 -45c131.333 6 313 21 545 45
v-159h-184c-90.667 0 -141.334 -5.66699 -152.001 -17c-6.66699 -4.66699 -15 -25 -25 -61c3.33301 -15.333 22.666 -60.333 57.999 -135l512 -881l422 758l46.5 86.5c17.667 32.333 32 62.166 43 89.5c11 27.333 16.5 52 16.5 74c0 68 -72.333 102 -217 102h-184v143
c179.333 -24 328 -39 446 -45c132 6.66699 282.333 21.667 451 45v-127h-98c-48 0 -91 -17.5 -129 -52.5s-72.167 -79.167 -102.5 -132.5zM1217 2712l487 409l225 -192l-655 -287z" />
    <glyph glyph-name="germandbls" unicode="&#xdf;" horiz-adv-x="1921" 
d="M897 119l77.9971 307.005h106l-8 -164c44.667 -44 77.834 -72.833 99.501 -86.5s59.5 -24.5 113.5 -32.5c101.333 0 180.666 27 237.999 81s86 113 86 177c0 146.667 -109.333 282 -328 406l-65 41c-94 65.333 -162 120.666 -204 165.999s-63 104.666 -63 177.999
c0 62 24.333 130 73 204s108.334 137 179.001 189s134.334 78 191.001 78h143l8 90c0 29.333 2.83301 68.666 8.5 117.999s8.5 89.333 8.5 120c0 88 -19.833 168.333 -59.5 241s-94.667 129.834 -165 171.5c-70.333 41.667 -149.833 62.5 -238.5 62.5
c-157.333 0 -271.833 -63.167 -343.5 -189.5s-107.5 -274.833 -107.5 -445.5l-8 -1479c0 -66.667 14.667 -117.834 44 -153.501s76 -64.834 140 -87.501c16.667 5.33301 41.334 8 74.001 8zM941.997 49.0049l-45.002 33.002v-49h-803v102c22 0 38.333 -2.66699 49 -8
c61.333 8 112.833 33.167 154.5 75.5s62.5 94.833 62.5 157.5v1049l-249 -16v69l258 123c-4 23.333 -7.16699 49.166 -9.5 77.499s-4.83301 50.5 -7.5 66.5c10.667 117.333 29.167 217 55.5 299s72.166 155.667 137.499 221c240.667 251.333 464.667 377 672 377
c174.667 0 313.167 -52.333 415.5 -157s153.5 -242.334 153.5 -413c0 -115.333 -22 -232.666 -66 -351.999l-102 -287c-9.33301 3.33301 -32.333 13.5 -69 30.5s-68.667 29.167 -96 36.5s-55.666 11 -84.999 11c-57.333 0 -105.166 -14 -143.499 -42
s-57.5 -72.667 -57.5 -134c0 -44.667 21 -82.834 63 -114.501s107 -69.834 195 -114.501l119 -66c202 -98.667 303 -244.667 303 -438c0 -98.667 -31.5 -194 -94.5 -286s-143.5 -166.333 -241.5 -223s-193.333 -85 -286 -85l-112.5 6.5
c-30.333 1.66699 -59.166 6 -86.499 13s-55.333 19.5 -84 37.5z" />
    <glyph glyph-name="agrave" unicode="&#xe0;" horiz-adv-x="1847" 
d="M1528 217c77.333 25.333 147.002 43.001 209.002 53.001l49 -94c-137.333 -30 -234.166 -55.667 -290.499 -77s-146.5 -65.333 -270.5 -132c-5.33301 -5.33301 -16.333 -8 -33 -8c-10.667 0 -16 16.333 -16 49c30.667 189.333 50.5 327.333 59.5 414s13.5 189 13.5 307
v209l-352 -569c-68.667 -114 -155.167 -208.167 -259.5 -282.5s-210.5 -111.5 -318.5 -111.5c-155.333 7.33301 -233 155 -233 443c8.66699 170 52.167 348.667 130.5 536s174.666 360.5 288.999 519.5s231.166 287.667 350.499 386s220.333 147.5 303 147.5
c24.667 0 52.5 -5.5 83.5 -16.5s56.5 -16.5 76.5 -16.5l291 33c-14.667 -172 -36.667 -408.167 -66 -708.5s-48.333 -500.833 -57 -601.5s-14.334 -196.334 -17.001 -287.001c8 -128.667 27.333 -193 58 -193zM1200 1839c-12 8 -27.001 11.998 -45.001 11.998
c-58.667 0 -130.834 -38 -216.501 -114s-170.667 -177 -255 -303s-155.5 -264 -213.5 -414s-91.667 -294.667 -101 -434c0 -22 -3 -41.333 -9 -58c12.667 -166 74.334 -249 185.001 -249c90.667 2.66699 183.334 61.834 278.001 177.501s180.167 255.334 256.5 419.001
s135.5 316.834 177.5 459.501c24.667 71.333 37 165.666 37 282.999c0 119.333 -31.333 193 -94 221zM1057 2646l471 -311l-66 -70l-647 152z" />
    <glyph glyph-name="aacute" unicode="&#xe1;" horiz-adv-x="1847" 
d="M1528 217c77.333 25.333 147.002 43.001 209.002 53.001l49 -94c-137.333 -30 -234.166 -55.667 -290.499 -77s-146.5 -65.333 -270.5 -132c-5.33301 -5.33301 -16.333 -8 -33 -8c-10.667 0 -16 16.333 -16 49c30.667 189.333 50.5 327.333 59.5 414s13.5 189 13.5 307
v209l-352 -569c-68.667 -114 -155.167 -208.167 -259.5 -282.5s-210.5 -111.5 -318.5 -111.5c-155.333 7.33301 -233 155 -233 443c8.66699 170 52.167 348.667 130.5 536s174.666 360.5 288.999 519.5s231.166 287.667 350.499 386s220.333 147.5 303 147.5
c24.667 0 52.5 -5.5 83.5 -16.5s56.5 -16.5 76.5 -16.5l291 33c-14.667 -172 -36.667 -408.167 -66 -708.5s-48.333 -500.833 -57 -601.5s-14.334 -196.334 -17.001 -287.001c8 -128.667 27.333 -193 58 -193zM1200 1839c-12 8 -27.001 11.998 -45.001 11.998
c-58.667 0 -130.834 -38 -216.501 -114s-170.667 -177 -255 -303s-155.5 -264 -213.5 -414s-91.667 -294.667 -101 -434c0 -22 -3 -41.333 -9 -58c12.667 -166 74.334 -249 185.001 -249c90.667 2.66699 183.334 61.834 278.001 177.501s180.167 255.334 256.5 419.001
s135.5 316.834 177.5 459.501c24.667 71.333 37 165.666 37 282.999c0 119.333 -31.333 193 -94 221zM848.001 2351l487 410l226 -193l-656 -287z" />
    <glyph glyph-name="acircumflex" unicode="&#xe2;" horiz-adv-x="1847" 
d="M1528 217c77.333 25.333 147.002 43.001 209.002 53.001l49 -94c-137.333 -30 -234.166 -55.667 -290.499 -77s-146.5 -65.333 -270.5 -132c-5.33301 -5.33301 -16.333 -8 -33 -8c-10.667 0 -16 16.333 -16 49c30.667 189.333 50.5 327.333 59.5 414s13.5 189 13.5 307
v209l-352 -569c-68.667 -114 -155.167 -208.167 -259.5 -282.5s-210.5 -111.5 -318.5 -111.5c-155.333 7.33301 -233 155 -233 443c8.66699 170 52.167 348.667 130.5 536s174.666 360.5 288.999 519.5s231.166 287.667 350.499 386s220.333 147.5 303 147.5
c24.667 0 52.5 -5.5 83.5 -16.5s56.5 -16.5 76.5 -16.5l291 33c-14.667 -172 -36.667 -408.167 -66 -708.5s-48.333 -500.833 -57 -601.5s-14.334 -196.334 -17.001 -287.001c8 -128.667 27.333 -193 58 -193zM1200 1839c-12 8 -27.001 11.998 -45.001 11.998
c-58.667 0 -130.834 -38 -216.501 -114s-170.667 -177 -255 -303s-155.5 -264 -213.5 -414s-91.667 -294.667 -101 -434c0 -22 -3 -41.333 -9 -58c12.667 -166 74.334 -249 185.001 -249c90.667 2.66699 183.334 61.834 278.001 177.501s180.167 255.334 256.5 419.001
s135.5 316.834 177.5 459.501c24.667 71.333 37 165.666 37 282.999c0 119.333 -31.333 193 -94 221zM1622 2281l-516 185l-520 -209l520 471z" />
    <glyph glyph-name="atilde" unicode="&#xe3;" horiz-adv-x="1864" 
d="M1528 217c77.333 25.333 147.002 43.001 209.002 53.001l49 -94c-137.333 -30 -234.166 -55.667 -290.499 -77s-146.5 -65.333 -270.5 -132c-5.33301 -5.33301 -16.333 -8 -33 -8c-10.667 0 -16 16.333 -16 49c30.667 189.333 50.5 327.333 59.5 414s13.5 189 13.5 307
v209l-352 -569c-68.667 -114 -155.167 -208.167 -259.5 -282.5s-210.5 -111.5 -318.5 -111.5c-155.333 7.33301 -233 155 -233 443c8.66699 170 52.167 348.667 130.5 536s174.666 360.5 288.999 519.5s231.166 287.667 350.499 386s220.333 147.5 303 147.5
c24.667 0 52.5 -5.5 83.5 -16.5s56.5 -16.5 76.5 -16.5l291 33c-14.667 -172 -36.667 -408.167 -66 -708.5s-48.333 -500.833 -57 -601.5s-14.334 -196.334 -17.001 -287.001c8 -128.667 27.333 -193 58 -193zM1200 1839c-12 8 -27.001 11.998 -45.001 11.998
c-58.667 0 -130.834 -38 -216.501 -114s-170.667 -177 -255 -303s-155.5 -264 -213.5 -414s-91.667 -294.667 -101 -434c0 -22 -3 -41.333 -9 -58c12.667 -166 74.334 -249 185.001 -249c90.667 2.66699 183.334 61.834 278.001 177.501s180.167 255.334 256.5 419.001
s135.5 316.834 177.5 459.501c24.667 71.333 37 165.666 37 282.999c0 119.333 -31.333 193 -94 221zM774.001 2376l-110.001 31.999c69.333 170.667 189.333 263.667 360 279c36.667 0 70.5 -8.66699 101.5 -26s66.333 -43.666 106 -79
c39.667 -35.333 69 -59.666 88 -72.999s40.5 -21 64.5 -23c11.333 5.33301 22.333 8 33 8c38.667 15.333 78.334 48.333 119.001 99l94 -33c-17.333 -81.333 -55.666 -147.5 -114.999 -198.5s-133 -83.167 -221 -96.5c-34.667 0 -66.5 8 -95.5 24s-63.333 41.167 -103 75.5
s-72.834 59.833 -99.501 76.5s-57 25 -91 25c-39.333 0 -83 -30 -131 -90z" />
    <glyph glyph-name="adieresis" unicode="&#xe4;" horiz-adv-x="1855" 
d="M1528 217c77.333 25.333 147.002 43.001 209.002 53.001l49 -94c-137.333 -30 -234.166 -55.667 -290.499 -77s-146.5 -65.333 -270.5 -132c-5.33301 -5.33301 -16.333 -8 -33 -8c-10.667 0 -16 16.333 -16 49c30.667 189.333 50.5 327.333 59.5 414s13.5 189 13.5 307
v209l-352 -569c-68.667 -114 -155.167 -208.167 -259.5 -282.5s-210.5 -111.5 -318.5 -111.5c-155.333 7.33301 -233 155 -233 443c8.66699 170 52.167 348.667 130.5 536s174.666 360.5 288.999 519.5s231.166 287.667 350.499 386s220.333 147.5 303 147.5
c24.667 0 52.5 -5.5 83.5 -16.5s56.5 -16.5 76.5 -16.5l291 33c-14.667 -172 -36.667 -408.167 -66 -708.5s-48.333 -500.833 -57 -601.5s-14.334 -196.334 -17.001 -287.001c8 -128.667 27.333 -193 58 -193zM1200 1839c-12 8 -27.001 11.998 -45.001 11.998
c-58.667 0 -130.834 -38 -216.501 -114s-170.667 -177 -255 -303s-155.5 -264 -213.5 -414s-91.667 -294.667 -101 -434c0 -22 -3 -41.333 -9 -58c12.667 -166 74.334 -249 185.001 -249c90.667 2.66699 183.334 61.834 278.001 177.501s180.167 255.334 256.5 419.001
s135.5 316.834 177.5 459.501c24.667 71.333 37 165.666 37 282.999c0 119.333 -31.333 193 -94 221zM1118 2474c0 -54 -17.333 -99.666 -52 -136.999s-76 -56 -124 -56c-46 0 -85.667 17.167 -119 51.5s-51 76.166 -53 125.499c0 52 16.167 97.667 48.5 137
s73.5 59 123.5 59c54 0 96.833 -17 128.5 -51s47.5 -77 47.5 -129zM1663 2458c-4 -50.667 -24.167 -92.834 -60.5 -126.5c-36.333 -33.667 -80.5 -50.5 -132.5 -50.5c-46 0 -85.5 16.833 -118.5 50.5s-52.167 75.834 -57.5 126.5c0 52 16.667 97.667 50 137
s75.333 59 126 59c53.333 0 98.833 -19.667 136.5 -59s56.5 -85 56.5 -137z" />
    <glyph glyph-name="aring" unicode="&#xe5;" horiz-adv-x="1864" 
d="M1528 217c77.333 25.333 147.002 43.001 209.002 53.001l49 -94c-137.333 -30 -234.166 -55.667 -290.499 -77s-146.5 -65.333 -270.5 -132c-5.33301 -5.33301 -16.333 -8 -33 -8c-10.667 0 -16 16.333 -16 49c30.667 189.333 50.5 327.333 59.5 414s13.5 189 13.5 307
v209l-352 -569c-68.667 -114 -155.167 -208.167 -259.5 -282.5s-210.5 -111.5 -318.5 -111.5c-155.333 7.33301 -233 155 -233 443c8.66699 170 52.167 348.667 130.5 536s174.666 360.5 288.999 519.5s231.166 287.667 350.499 386s220.333 147.5 303 147.5
c24.667 0 52.5 -5.5 83.5 -16.5s56.5 -16.5 76.5 -16.5l291 33c-14.667 -172 -36.667 -408.167 -66 -708.5s-48.333 -500.833 -57 -601.5s-14.334 -196.334 -17.001 -287.001c8 -128.667 27.333 -193 58 -193zM1200 1839c-12 8 -27.001 11.998 -45.001 11.998
c-58.667 0 -130.834 -38 -216.501 -114s-170.667 -177 -255 -303s-155.5 -264 -213.5 -414s-91.667 -294.667 -101 -434c0 -22 -3 -41.333 -9 -58c12.667 -166 74.334 -249 185.001 -249c90.667 2.66699 183.334 61.834 278.001 177.501s180.167 255.334 256.5 419.001
s135.5 316.834 177.5 459.501c24.667 71.333 37 165.666 37 282.999c0 119.333 -31.333 193 -94 221zM1409 2376c0 -70 -24.832 -129.833 -74.499 -179.5s-108.167 -74.5 -175.5 -74.5c-64 0 -119.5 24.167 -166.5 72.5s-70.5 105.833 -70.5 172.5
c0 63.333 23.667 119.5 71 168.5s102.666 73.5 165.999 73.5c69.333 0 128.333 -22.167 177 -66.5s73 -99.833 73 -166.5zM1159 2503c-40 0 -73.833 -13.834 -101.5 -41.501s-41.5 -61.834 -41.5 -102.5c0 -35.333 14.333 -66.666 43 -94c28.667 -27.333 62 -41 100 -41
c40 0 75.333 13.667 106 41s46 58.666 46 94c0 40.667 -14.833 74.834 -44.5 102.501s-65.5 41.5 -107.5 41.5z" />
    <glyph glyph-name="ae" unicode="&#xe6;" horiz-adv-x="2654" 
d="M1200 1839c-16 8 -32.332 12 -48.999 12c-60 0 -132 -37.167 -216 -111.5s-168.5 -175.333 -253.5 -303s-156 -266 -213 -415s-90.167 -294.167 -99.5 -435.5c0 -22 -3 -41.333 -9 -58c12.667 -166 74.334 -249 185.001 -249
c87.333 2.66699 177.666 61.334 270.999 176.001s178.166 252.667 254.499 414s138.5 316.666 186.5 465.999c24.667 71.333 37 163 37 275c0 124.667 -31.333 201 -94 229zM1577 1794c76.667 72.667 145.505 123.667 206.505 153s132.833 44 215.5 44
c112 0 202.667 -23.5 272 -70.5s119.166 -110.167 149.499 -189.5s45.5 -169 45.5 -269c0 -84 -16.333 -198.667 -49 -344c-292.667 -91.333 -575.334 -151.333 -848.001 -180c-2 0 -7.66699 -43.667 -17 -131c8 -164.667 42 -314.5 102 -449.5s169.333 -206.5 328 -214.5
c124.667 0 232.334 48.333 323 145c90.667 96.667 136 211 136 343v57l135 -16c0 -58 -17.5 -143.667 -52.5 -257s-105.667 -220.333 -212 -321s-255.5 -151 -447.5 -151c-146 0 -274.333 50.333 -385 151c-34.667 -10 -86.167 -34.667 -154.5 -74
s-112.5 -62.333 -132.5 -69c-10.667 0 -19 13.667 -25 41c49.333 360 74 600.333 74 721v225l-344 -569c-66 -114.667 -151.667 -209 -257 -283s-212.333 -111 -321 -111c-155.333 7.33301 -233 155 -233 443c8.66699 170 52.167 348.667 130.5 536
s174.666 360.5 288.999 519.5s231.166 287.667 350.499 386s220.333 147.5 303 147.5c21.333 0 48.166 -5.5 80.499 -16.5s58.833 -16.5 79.5 -16.5l283 33c-12.667 -112 -23.667 -168 -33 -168v8c5.33301 0 8 -17.667 8 -53zM1593.01 1065l353.003 53
c85.333 12.667 151.666 55.5 198.999 128.5s71 158.5 71 256.5c0 105.333 -13.167 194.5 -39.5 267.5s-85.5 109.5 -177.5 109.5c-70.667 -2 -131.834 -32.833 -183.501 -92.5s-94.334 -134 -128.001 -223s-58.5 -175.5 -74.5 -259.5s-25.333 -153 -28 -207
c2.66699 -8.66699 4.66699 -16 6 -22s2 -9.66699 2 -11z" />
    <glyph glyph-name="ccedilla" unicode="&#xe7;" horiz-adv-x="1454" 
d="M1126 176c-86 -84.667 -168.673 -139.331 -248.006 -163.998s-137 -37 -173 -37l-99 -184l156 -8c54.667 -4 97.667 -25 129 -63s47 -86.667 47 -146c0 -70.667 -31 -132 -93 -184s-133.333 -78 -214 -78h-8c-58 0 -113.5 14.167 -166.5 42.5s-79.5 64.5 -79.5 108.5
c0 20.667 6.83301 38.167 20.5 52.5s29.834 21.5 48.501 21.5c66 0 99 -32.667 99 -98c0 -22.667 2.66699 -38.667 8 -48s20.333 -14 45 -14c50.667 0 96.834 16.667 138.501 50s62.5 75.666 62.5 126.999c0 30 -5.66699 54 -17 72s-26.166 31.5 -44.499 40.5
s-39.166 16.333 -62.499 22l-69 16.5c-34 -10 -60 -21 -78 -33l-32 17l135 286h-53c-153.333 0 -271.166 67.167 -353.499 201.5s-125.833 296.833 -130.5 487.5c0 152.667 15.333 305.334 46 458.001s80 295.5 148 428.5s155.667 239.667 263 320
s233.666 120.5 378.999 120.5c137.333 0 258.666 -28.667 363.999 -86v-488h-245v111c0 218 -69.667 327 -209 327c-97.333 -2.66699 -177 -54.334 -239 -155.001s-107.167 -225.667 -135.5 -375s-44.166 -303 -47.499 -461c0 -447.333 117.333 -671 352 -671
c122.667 10 220.334 50.167 293.001 120.5s123.167 143 151.5 218s42.5 124.5 42.5 148.5h111c0 -25.333 -9.66699 -68.833 -29 -130.5s-47.166 -126.834 -83.499 -195.501s-79.5 -128 -129.5 -178z" />
    <glyph glyph-name="egrave" unicode="&#xe8;" horiz-adv-x="1487" 
d="M1266 705l127.001 -16.998c0 -56.667 -16.833 -139.834 -50.5 -249.501s-103 -214.334 -208 -314.001s-253.833 -149.5 -446.5 -149.5c-139.333 0 -254 36.333 -344 109s-155.5 169.834 -196.5 291.501s-61.5 257.167 -61.5 406.5c8 157.333 25.333 304.5 52 441.5
s67.834 264.667 123.501 383s129.5 213.666 221.5 285.999s202.667 110.5 332 114.5c112.667 0 203.667 -22.833 273 -68.5s119 -107.5 149 -185.5s45 -166.667 45 -266c0 -85.333 -16.333 -200 -49 -344c-268.667 -89.333 -551.334 -151 -848.001 -185
c-2 0 -7.33301 -47.667 -16 -143c15.333 -419.333 158.666 -635 429.999 -647c83.333 0 161 23.5 233 70.5s129 109.5 171 187.5s63 160 63 246v33zM401.001 1090l360.999 52.999c85.333 16.667 151.666 60.334 198.999 131.001s71 152.667 71 246
c0 106 -13.167 195.167 -39.5 267.5s-85.5 108.5 -177.5 108.5c-137.333 -3.33301 -240.166 -97.666 -308.499 -282.999s-106.166 -353 -113.499 -503c3.33301 -4.66699 5.5 -8.83398 6.5 -12.501s1.5 -6.16699 1.5 -7.5zM623 2671l475 -312l-66 -69l-647 151z" />
    <glyph glyph-name="eacute" unicode="&#xe9;" horiz-adv-x="1487" 
d="M1266 705l127.001 -16.998c0 -56.667 -16.833 -139.834 -50.5 -249.501s-103 -214.334 -208 -314.001s-253.833 -149.5 -446.5 -149.5c-139.333 0 -254 36.333 -344 109s-155.5 169.834 -196.5 291.501s-61.5 257.167 -61.5 406.5c8 157.333 25.333 304.5 52 441.5
s67.834 264.667 123.501 383s129.5 213.666 221.5 285.999s202.667 110.5 332 114.5c112.667 0 203.667 -22.833 273 -68.5s119 -107.5 149 -185.5s45 -166.667 45 -266c0 -85.333 -16.333 -200 -49 -344c-268.667 -89.333 -551.334 -151 -848.001 -185
c-2 0 -7.33301 -47.667 -16 -143c15.333 -419.333 158.666 -635 429.999 -647c83.333 0 161 23.5 233 70.5s129 109.5 171 187.5s63 160 63 246v33zM401.001 1090l360.999 52.999c85.333 16.667 151.666 60.334 198.999 131.001s71 152.667 71 246
c0 106 -13.167 195.167 -39.5 267.5s-85.5 108.5 -177.5 108.5c-137.333 -3.33301 -240.166 -97.666 -308.499 -282.999s-106.166 -353 -113.499 -503c3.33301 -4.66699 5.5 -8.83398 6.5 -12.501s1.5 -6.16699 1.5 -7.5zM455 2376l487 409l225 -192l-655 -287z" />
    <glyph glyph-name="ecircumflex" unicode="&#xea;" horiz-adv-x="1495" 
d="M1266 705l127.001 -16.998c0 -56.667 -16.833 -139.834 -50.5 -249.501s-103 -214.334 -208 -314.001s-253.833 -149.5 -446.5 -149.5c-139.333 0 -254 36.333 -344 109s-155.5 169.834 -196.5 291.501s-61.5 257.167 -61.5 406.5c8 157.333 25.333 304.5 52 441.5
s67.834 264.667 123.501 383s129.5 213.666 221.5 285.999s202.667 110.5 332 114.5c112.667 0 203.667 -22.833 273 -68.5s119 -107.5 149 -185.5s45 -166.667 45 -266c0 -85.333 -16.333 -200 -49 -344c-268.667 -89.333 -551.334 -151 -848.001 -185
c-2 0 -7.33301 -47.667 -16 -143c15.333 -419.333 158.666 -635 429.999 -647c83.333 0 161 23.5 233 70.5s129 109.5 171 187.5s63 160 63 246v33zM401.001 1090l360.999 52.999c85.333 16.667 151.666 60.334 198.999 131.001s71 152.667 71 246
c0 106 -13.167 195.167 -39.5 267.5s-85.5 108.5 -177.5 108.5c-137.333 -3.33301 -240.166 -97.666 -308.499 -282.999s-106.166 -353 -113.499 -503c3.33301 -4.66699 5.5 -8.83398 6.5 -12.501s1.5 -6.16699 1.5 -7.5zM1241 2306l-520 180l-520 -205l520 472z" />
    <glyph glyph-name="edieresis" unicode="&#xeb;" horiz-adv-x="1495" 
d="M1266 705l127.001 -16.998c0 -56.667 -16.833 -139.834 -50.5 -249.501s-103 -214.334 -208 -314.001s-253.833 -149.5 -446.5 -149.5c-139.333 0 -254 36.333 -344 109s-155.5 169.834 -196.5 291.501s-61.5 257.167 -61.5 406.5c8 157.333 25.333 304.5 52 441.5
s67.834 264.667 123.501 383s129.5 213.666 221.5 285.999s202.667 110.5 332 114.5c112.667 0 203.667 -22.833 273 -68.5s119 -107.5 149 -185.5s45 -166.667 45 -266c0 -85.333 -16.333 -200 -49 -344c-268.667 -89.333 -551.334 -151 -848.001 -185
c-2 0 -7.33301 -47.667 -16 -143c15.333 -419.333 158.666 -635 429.999 -647c83.333 0 161 23.5 233 70.5s129 109.5 171 187.5s63 160 63 246v33zM401.001 1090l360.999 52.999c85.333 16.667 151.666 60.334 198.999 131.001s71 152.667 71 246
c0 106 -13.167 195.167 -39.5 267.5s-85.5 108.5 -177.5 108.5c-137.333 -3.33301 -240.166 -97.666 -308.499 -282.999s-106.166 -353 -113.499 -503c3.33301 -4.66699 5.5 -8.83398 6.5 -12.501s1.5 -6.16699 1.5 -7.5zM639 2478c0 -52 -17.333 -96.333 -52 -133
s-76 -55 -124 -55c-47.333 0 -87.5 17.167 -120.5 51.5s-51.5 75.833 -55.5 124.5c0 52.667 16.833 98.5 50.5 137.5s75.5 58.5 125.5 58.5c52.667 0 95.167 -17 127.5 -51s48.5 -78.333 48.5 -133zM1184 2466c-4 -50 -23.833 -91.833 -59.5 -125.5
s-80.167 -50.5 -133.5 -50.5c-47.333 0 -87.5 17.167 -120.5 51.5s-51.5 75.833 -55.5 124.5c0 52 16.667 97.667 50 137s75.333 59 126 59c53.333 0 98.833 -19.667 136.5 -59s56.5 -85 56.5 -137z" />
    <glyph glyph-name="igrave" unicode="&#xec;" horiz-adv-x="922" 
d="M430 1704l-355.999 -56.999v147c156 18 389.333 78 700 180l-143 -1982l-312 -66c30.667 187.333 54.167 376.5 70.5 567.5s27.166 379.667 32.499 566s8 401.166 8 644.499zM377.001 2662l471 -311l-66 -70l-647 152z" />
    <glyph glyph-name="iacute" unicode="&#xed;" horiz-adv-x="938" 
d="M430 1704l-355.999 -56.999v147c156 18 389.333 78 700 180l-143 -1982l-312 -66c30.667 187.333 54.167 376.5 70.5 567.5s27.166 379.667 32.499 566s8 401.166 8 644.499zM127.001 2367l487 410l226 -192l-656 -287z" />
    <glyph glyph-name="icircumflex" unicode="&#xee;" horiz-adv-x="922" 
d="M430 1704l-355.999 -56.999v147c156 18 389.333 78 700 180l-143 -1982l-312 -66c30.667 187.333 54.167 376.5 70.5 567.5s27.166 379.667 32.499 566s8 401.166 8 644.499zM1049 2318l-521 185l-520 -205l520 471z" />
    <glyph glyph-name="idieresis" unicode="&#xef;" horiz-adv-x="922" 
d="M430 1704l-355.999 -56.999v147c156 18 389.333 78 700 180l-143 -1982l-312 -66c30.667 187.333 54.167 376.5 70.5 567.5s27.166 379.667 32.499 566s8 401.166 8 644.499zM418.001 2494c0 -51.333 -17.667 -95.5 -53 -132.5s-76.333 -55.5 -123 -55.5
c-47.333 0 -87.5 16.5 -120.5 49.5s-51.5 73.833 -55.5 122.5c0 56 16.333 103.5 49 142.5s75 58.5 127 58.5c51.333 0 93.5 -17.333 126.5 -52s49.5 -79 49.5 -133zM958.001 2478c-4 -48.667 -23.833 -89.499 -59.5 -122.499s-78.5 -49.5 -128.5 -49.5
c-48 0 -88.833 16.833 -122.5 50.5s-51.5 74.167 -53.5 121.5c0 54.667 16.333 101.834 49 141.5c32.667 39.667 75 59.5 127 59.5c51.333 0 95.5 -19.833 132.5 -59.5s55.5 -86.834 55.5 -141.501z" />
    <glyph glyph-name="ntilde" unicode="&#xf1;" horiz-adv-x="2081" 
d="M1368 -66l-65.001 50c95.333 345.333 148.333 902.333 159 1671l-387 -467.5c-68.667 -86.333 -141.167 -191 -217.5 -314s-140.833 -257 -193.5 -402s-89.667 -304.833 -111 -479.5h-250l98 1737l-319 -74v160c246 0 467 64 663 192l-139 -1302
c84.667 159.333 172.667 306.333 264 441s190.833 266.5 298.5 395.5s232.834 269.167 375.501 420.5h225l-98 -1737l295 37v-143c-204 -7.33301 -403.333 -69 -598 -185zM712.999 2408l-114.998 33c70 169.333 190 262.333 360 279c36.667 0 70.5 -8.66699 101.5 -26
s65.833 -43.333 104.5 -78s68.167 -59 88.5 -73s42.5 -22 66.5 -24c10.667 5.33301 21.667 8 33 8c45.333 17.333 84.666 50.333 117.999 99l99 -33c-20 -83.333 -59.833 -150.833 -119.5 -202.5s-131.834 -82.5 -216.501 -92.5c-38 0 -70.833 7.83301 -98.5 23.5
s-61.167 39.834 -100.5 72.5c-39.333 32.667 -73 57.5 -101 74.5s-59 25.5 -93 25.5c-40 0 -82.333 -28.667 -127 -86z" />
    <glyph glyph-name="ograve" unicode="&#xf2;" horiz-adv-x="1593" 
d="M86 614c3.33301 254 30.333 480.5 81 679.5s146.667 363.667 288 494s339.333 198.166 594 203.499c101.333 0 184.333 -41.167 249 -123.5s111.5 -185.833 140.5 -310.5s45.167 -254.667 48.5 -390c0 -350 -68.167 -640.167 -204.5 -870.5
s-356.166 -345.5 -659.499 -345.5h-78c-103.333 12 -187.833 37 -253.5 75s-116.334 102.833 -152.001 194.5s-53.5 222.834 -53.5 393.501zM401 799c0 -133.333 6.83203 -248.331 20.499 -344.998s46.5 -180.334 98.5 -251.001s130 -109.667 234 -117
c160.667 0 275.167 88.5 343.5 265.5s102.5 390.167 102.5 639.5v58c0 210.667 -32.5 396.334 -97.5 557.001s-171.833 241 -320.5 241c-131.333 -6.66699 -225.666 -122.334 -282.999 -347.001s-90 -458.334 -98 -701.001zM720.999 2671l471 -312l-66 -69l-647 151z" />
    <glyph glyph-name="oacute" unicode="&#xf3;" horiz-adv-x="1585" 
d="M86 623c3.33301 254 30.335 480.334 81.002 679.001s146.667 363.167 288 493.5s339.333 198.166 594 203.499c101.333 0 184.333 -41.167 249 -123.5s111.5 -185.833 140.5 -310.5s45.167 -254.334 48.5 -389.001c0 -224 -27.833 -427.167 -83.5 -609.5
s-147.834 -329.166 -276.501 -440.499s-296.667 -167 -504 -167h-78c-103.333 12 -187.833 37 -253.5 75s-116.334 103.167 -152.001 195.5s-53.5 223.5 -53.5 393.5zM401.002 807.001c0 -133.333 6.83301 -248.334 20.5 -345.001s46.5 -180.334 98.5 -251.001
s130 -109.667 234 -117c160.667 0 275.167 88.5 343.5 265.5s102.5 390.167 102.5 639.5v58c0 210.667 -32.5 396.334 -97.5 557.001s-171.833 241 -320.5 241c-91.333 -4.66699 -165 -67.667 -221 -189s-95.667 -261.666 -119 -420.999s-37 -305.333 -41 -438z
M578.002 2367l487 410l221 -192l-655 -287z" />
    <glyph glyph-name="ocircumflex" unicode="&#xf4;" horiz-adv-x="1593" 
d="M86 623c3.33301 254 30.335 480.334 81.002 679.001s146.667 363.167 288 493.5s339.333 198.166 594 203.499c101.333 0 184.333 -41.167 249 -123.5s111.5 -185.833 140.5 -310.5s45.167 -254.334 48.5 -389.001c0 -224 -27.833 -427.167 -83.5 -609.5
s-147.834 -329.166 -276.501 -440.499s-296.667 -167 -504 -167h-78c-103.333 12 -187.833 37 -253.5 75s-116.334 103.167 -152.001 195.5s-53.5 223.5 -53.5 393.5zM401.002 807.001c0 -133.333 6.83301 -248.334 20.5 -345.001s46.5 -180.334 98.5 -251.001
s130 -109.667 234 -117c160.667 0 275.167 88.5 343.5 265.5s102.5 390.167 102.5 639.5v58c0 210.667 -32.5 396.334 -97.5 557.001s-171.833 241 -320.5 241c-91.333 -4.66699 -165 -67.667 -221 -189s-95.667 -261.666 -119 -420.999s-37 -305.333 -41 -438zM1376 2306
l-520 180l-520 -205l520 472z" />
    <glyph glyph-name="otilde" unicode="&#xf5;" horiz-adv-x="1577" 
d="M86 623c3.33301 254 30.335 480.334 81.002 679.001s146.667 363.167 288 493.5s339.333 198.166 594 203.499c101.333 0 184.333 -41.167 249 -123.5s111.5 -185.833 140.5 -310.5s45.167 -254.334 48.5 -389.001c0 -224 -27.833 -427.167 -83.5 -609.5
s-147.834 -329.166 -276.501 -440.499s-296.667 -167 -504 -167h-78c-103.333 12 -187.833 37 -253.5 75s-116.334 103.167 -152.001 195.5s-53.5 223.5 -53.5 393.5zM401.002 807.001c0 -133.333 6.83301 -248.334 20.5 -345.001s46.5 -180.334 98.5 -251.001
s130 -109.667 234 -117c160.667 0 275.167 88.5 343.5 265.5s102.5 390.167 102.5 639.5v58c0 210.667 -32.5 396.334 -97.5 557.001s-171.833 241 -320.5 241c-91.333 -4.66699 -165 -67.667 -221 -189s-95.667 -261.666 -119 -420.999s-37 -305.333 -41 -438z
M520.002 2417l-109.999 32c64.667 170 184.667 263 360 279c36 0 69 -8.5 99 -25.5s66 -44.167 108 -81.5s71.167 -61.833 87.5 -73.5s36.833 -18.5 61.5 -20.5c11.333 5.33301 22.333 8 33 8c41.333 16 82.333 49 123 99l94 -33
c-19.333 -82 -58.666 -148.833 -117.999 -200.5s-132 -83.167 -218 -94.5c-38 0 -70.833 7.83301 -98.5 23.5s-61.834 40.334 -102.501 74c-40.667 33.667 -74.334 58.667 -101.001 75s-57 24.5 -91 24.5c-38.667 0 -81 -28.667 -127 -86z" />
    <glyph glyph-name="odieresis" unicode="&#xf6;" horiz-adv-x="1577" 
d="M86 623c3.33301 254 30.335 480.334 81.002 679.001s146.667 363.167 288 493.5s339.333 198.166 594 203.499c101.333 0 184.333 -41.167 249 -123.5s111.5 -185.833 140.5 -310.5s45.167 -254.334 48.5 -389.001c0 -224 -27.833 -427.167 -83.5 -609.5
s-147.834 -329.166 -276.501 -440.499s-296.667 -167 -504 -167h-78c-103.333 12 -187.833 37 -253.5 75s-116.334 103.167 -152.001 195.5s-53.5 223.5 -53.5 393.5zM401.002 807.001c0 -133.333 6.83301 -248.334 20.5 -345.001s46.5 -180.334 98.5 -251.001
s130 -109.667 234 -117c160.667 0 275.167 88.5 343.5 265.5s102.5 390.167 102.5 639.5v58c0 210.667 -32.5 396.334 -97.5 557.001s-171.833 241 -320.5 241c-91.333 -4.66699 -165 -67.667 -221 -189s-95.667 -261.666 -119 -420.999s-37 -305.333 -41 -438z
M807.002 2494c0 -52 -17.333 -96.333 -52 -133s-76 -55 -124 -55c-46 0 -85.833 16.833 -119.5 50.5s-52.5 74.167 -56.5 121.5c0 55.333 16.833 102.666 50.5 142c33.667 39.333 75.5 59 125.5 59c52.667 0 95.167 -17.167 127.5 -51.5s48.5 -78.833 48.5 -133.5z
M1352 2478c-4 -48 -24 -88.667 -60 -122s-80.333 -50 -133 -50c-46 0 -85.833 16.833 -119.5 50.5s-52.5 74.167 -56.5 121.5c0 54 16.667 101 50 141s75.333 60 126 60c53.333 0 98.833 -19.833 136.5 -59.5s56.5 -86.834 56.5 -141.5z" />
    <glyph glyph-name="oslash" unicode="&#xf8;" horiz-adv-x="1630" 
d="M303 41c-64 40 -112 105.831 -144 197.498s-48 219.834 -48 384.501c2 186.667 15.833 358.334 41.5 515.001s72.667 300.167 141 430.5s166.333 234.166 294 311.499s289.5 117 485.5 119c56 0 104 -8.33301 144 -25l126 283l119 -41l-151 -328
c122.667 -136 189.334 -373.333 200.001 -712c0 -224 -27.833 -427.167 -83.5 -609.5s-147.834 -329.166 -276.501 -440.499s-296.667 -167 -504 -167c-72 0 -144.333 8.33301 -217 25l-127 -263l-119 54zM463 368.998l626.999 1327c-68.667 106 -163 159 -283 159
c-89.333 -2.66699 -162.666 -65 -219.999 -187s-98.833 -262.833 -124.5 -422.5s-40.5 -305.834 -44.5 -438.501c0 -182.667 15 -328.667 45 -438zM536.999 216.999c65.333 -74.667 144.333 -115.667 237 -123c110 0 198.5 44.667 265.5 134s114.667 202.833 143 340.5
s42.5 281.167 42.5 430.5c0 218 -24.667 399.667 -74 545z" />
    <glyph glyph-name="ugrave" unicode="&#xf9;" horiz-adv-x="2023" 
d="M680 2032l57 -58.001c-117.333 -442 -176 -980 -176 -1614c130 142 257.167 302.5 381.5 481.5s232.5 364.833 324.5 557.5s157 380.334 195 563.001h267l-107 -1712l324 69v-167c-268 0 -497.667 -64.333 -689 -193c94 502.667 144.667 958.667 152 1368
c-294 -505.333 -604 -950.333 -930 -1335h-221l102 1769l-303 -73v151c120.667 7.33301 225.5 25.333 314.5 54s191.833 75 308.5 139zM897 2671l471 -312l-65 -69l-648 151z" />
    <glyph glyph-name="uacute" unicode="&#xfa;" horiz-adv-x="2023" 
d="M680 2032l57 -58.001c-117.333 -442 -176 -980 -176 -1614c130 142 257.167 302.5 381.5 481.5s232.5 364.833 324.5 557.5s157 380.334 195 563.001h267l-107 -1712l324 69v-167c-268 0 -497.667 -64.333 -689 -193c94 502.667 144.667 958.667 152 1368
c-294 -505.333 -604 -950.333 -930 -1335h-221l102 1769l-303 -73v151c120.667 7.33301 225.5 25.333 314.5 54s191.833 75 308.5 139zM831 2359l488 410l225 -193l-655 -286z" />
    <glyph glyph-name="ucircumflex" unicode="&#xfb;" horiz-adv-x="1999" 
d="M680 2032l57 -58.001c-117.333 -442 -176 -980 -176 -1614c130 142 257.167 302.5 381.5 481.5s232.5 364.833 324.5 557.5s157 380.334 195 563.001h267l-107 -1712l324 69v-167c-268 0 -497.667 -64.333 -689 -193c94 502.667 144.667 958.667 152 1368
c-294 -505.333 -604 -950.333 -930 -1335h-221l102 1769l-303 -73v151c120.667 7.33301 225.5 25.333 314.5 54s191.833 75 308.5 139zM1528 2298l-520 180l-521 -205l521 471z" />
    <glyph glyph-name="udieresis" unicode="&#xfc;" horiz-adv-x="1999" 
d="M680 2032l57 -58.001c-117.333 -442 -176 -980 -176 -1614c130 142 257.167 302.5 381.5 481.5s232.5 364.833 324.5 557.5s157 380.334 195 563.001h267l-107 -1712l324 69v-167c-268 0 -497.667 -64.333 -689 -193c94 502.667 144.667 958.667 152 1368
c-294 -505.333 -604 -950.333 -930 -1335h-221l102 1769l-303 -73v151c120.667 7.33301 225.5 25.333 314.5 54s191.833 75 308.5 139zM950 2478c0 -52 -17.333 -96.333 -52 -133s-76 -55 -124 -55c-47.333 0 -87.5 17.167 -120.5 51.5s-51.5 75.833 -55.5 124.5
c0 52 16.667 97.667 50 137s75.333 59 126 59c54 0 96.833 -17 128.5 -51s47.5 -78.333 47.5 -133zM1495 2466c-4 -50 -23.832 -91.833 -59.499 -125.5s-79.834 -50.5 -132.501 -50.5c-46.667 0 -86.5 16.833 -119.5 50.5s-52.167 75.5 -57.5 125.5
c0 52 16.667 97.667 50 137s75.666 59 126.999 59c52.667 0 97.834 -19.667 135.501 -59s56.5 -85 56.5 -137z" />
    <glyph glyph-name="yacute" unicode="&#xfd;" horiz-adv-x="2105" 
d="M1585 1999c130 -11.333 230.165 -79.3281 300.498 -203.995s105.5 -275.334 105.5 -452.001c-21.333 -430 -87.666 -802 -198.999 -1116s-243.166 -563.5 -395.499 -748.5s-304.5 -319.167 -456.5 -402.5s-283.667 -125 -395 -125h-377
c-34.667 80 -56.667 208.333 -66 385c6 16.667 9 42.667 9 78c22 243.333 52 425 90 545h278c0 9.33301 -18.833 -74 -56.5 -250s-58.5 -319.333 -62.5 -430c5.33301 -76 19.5 -129.833 42.5 -161.5s67.833 -47.5 134.5 -47.5c106 0 224.667 37.333 356 112
s258.666 191.5 381.999 350.5s224.333 365.167 303 618.5s118 549.666 118 888.999v144c0 327.333 -64.333 498 -193 512c-56.667 0 -110.834 -29.667 -162.501 -89s-97.5 -135.333 -137.5 -228s-72 -189.334 -96 -290.001s-38 -189.334 -42 -266.001
c0 -35.333 -2.66699 -69.333 -8 -102c14.667 -305.333 51.334 -529.333 110.001 -672l-229 -98l-553 1786l-311 -58l-8 144c213.333 17.333 390.666 78.666 531.999 183.999l352 -1049c0 56 22.833 171 68.5 345s113.334 333.5 203.001 478.5s199.834 217.5 330.501 217.5
h33zM1016 2216l487 410l226 -193l-656 -291z" />
    <glyph glyph-name="ydieresis" unicode="&#xff;" horiz-adv-x="2097" 
d="M1585 1999c130 -11.333 230.165 -79.3281 300.498 -203.995s105.5 -275.334 105.5 -452.001c-21.333 -430 -87.666 -802 -198.999 -1116s-243.166 -563.5 -395.499 -748.5s-304.5 -319.167 -456.5 -402.5s-283.667 -125 -395 -125h-377
c-34.667 80 -56.667 208.333 -66 385c6 16.667 9 42.667 9 78c22 243.333 52 425 90 545h278c0 9.33301 -18.833 -74 -56.5 -250s-58.5 -319.333 -62.5 -430c5.33301 -76 19.5 -129.833 42.5 -161.5s67.833 -47.5 134.5 -47.5c106 0 224.667 37.333 356 112
s258.666 191.5 381.999 350.5s224.333 365.167 303 618.5s118 549.666 118 888.999v144c0 327.333 -64.333 498 -193 512c-56.667 0 -110.834 -29.667 -162.501 -89s-97.5 -135.333 -137.5 -228s-72 -189.334 -96 -290.001s-38 -189.334 -42 -266.001
c0 -35.333 -2.66699 -69.333 -8 -102c14.667 -305.333 51.334 -529.333 110.001 -672l-229 -98l-553 1786l-311 -58l-8 144c213.333 17.333 390.666 78.666 531.999 183.999l352 -1049c0 56 22.833 171 68.5 345s113.334 333.5 203.001 478.5s199.834 217.5 330.501 217.5
h33zM974.998 2478c0 -52 -17.333 -96.333 -52 -133s-76 -55 -124 -55c-47.333 0 -87.5 17.167 -120.5 51.5s-51.5 75.833 -55.5 124.5c0 52.667 16.833 98.5 50.5 137.5s75.5 58.5 125.5 58.5c52.667 0 95.167 -17 127.5 -51s48.5 -78.333 48.5 -133zM1520 2466
c-4 -49.333 -23.833 -91 -59.5 -125s-80.167 -51 -133.5 -51c-47.333 0 -87.5 17.167 -120.5 51.5s-51.5 75.833 -55.5 124.5c0 52 16.667 97.667 50 137s75.333 59 126 59c53.333 0 98.833 -19.667 136.5 -59s56.5 -85 56.5 -137z" />
    <glyph glyph-name="dotlessi" unicode="&#x131;" horiz-adv-x="807" 
d="M430 1704l-355.999 -56.999v147c156 18 389.333 78 700 180l-143 -1982l-312 -66c30.667 187.333 54.167 376.5 70.5 567.5s27.166 379.667 32.499 566s8 401.166 8 644.499z" />
    <glyph glyph-name="OE" unicode="&#x152;" horiz-adv-x="3703" 
d="M446 1327c0 -189.333 39.667 -377.499 119 -564.499s189.5 -340.333 330.5 -460s298.5 -180.834 472.5 -183.501c27.333 5.33301 61.333 8 102 8c170 24.667 293.167 76 369.5 154s124.666 186.833 144.999 326.5s30.5 348.167 30.5 625.5
c0 171.333 -6.16699 319 -18.5 443s-38.166 236.333 -77.499 337s-99 181.667 -179 243s-185 95.666 -315 102.999c-190 0 -357.167 -41.167 -501.5 -123.5s-258 -201.166 -341 -356.499s-128.5 -339.333 -136.5 -552zM1409 -48.999c-238 0 -454.501 60.667 -649.501 182
s-347.833 285.5 -458.5 492.5s-166 429.833 -166 668.5c0 234.667 54 449.167 162 643.5s254.667 347.333 440 459s386 167.5 602 167.5c10 0 24.667 -0.666992 44 -2s33.333 -2 42 -2c45.333 0 93.833 -6.16699 145.5 -18.5s90.834 -22.5 117.501 -30.5
c320.667 -16.667 584 -25 790 -25c270.667 0 546.334 11 827 33l25 -573h-147l-17 143c0 74.667 -32.5 133 -97.5 175s-136.167 63 -213.5 63h-463v-959l606 8c22 0 38.333 -2.66699 49 -8c106.667 17.333 160 73.333 160 168v111h135c0 -118 -2.66699 -208.333 -8 -271
c4 -78.667 7.83301 -150.167 11.5 -214.5l13.5 -248.5h-144v152c0 46 -19 80 -57 102c-19.333 27.333 -64.333 41 -135 41l-615 17v-664c0 -117.333 16.5 -208 49.5 -272s101.167 -96 204.5 -96h418c91.333 0 172 28.667 242 86c52.667 43.333 87 106.666 103 189.999
s24 148.333 24 195h143l-74 -656c-392 22 -658 33 -798 33c-232 0 -559.667 -11 -983 -33c-33.333 -8 -83 -18.667 -149 -32s-125.667 -21.666 -179 -24.999z" />
    <glyph glyph-name="oe" unicode="&#x153;" horiz-adv-x="2585" 
d="M1511 1073l369.001 70.002c87.333 13.333 154.166 60 200.499 140s69.5 178 69.5 294l-14 106c-5.33301 41.333 -14.666 77.166 -27.999 107.499s-33.5 54.166 -60.5 71.499s-63.833 26 -110.5 26c-81.333 0 -154.833 -41.167 -220.5 -123.5s-116.334 -187 -152.001 -314
s-53.5 -252.833 -53.5 -377.5zM111.001 614.002c3.33301 256.667 29.8311 484.501 79.498 683.501s145.167 364.333 286.5 496s340 200.167 596 205.5c68.667 0 135.334 -23.833 200.001 -71.5s115.334 -127.5 152.001 -239.5c116 207.333 284 311 504 311
c162.667 0 280.5 -48.333 353.5 -145s109.5 -224.667 109.5 -384c0 -79.333 -16.333 -191 -49 -335c-260.667 -88.667 -543.334 -150.334 -848.001 -185.001c-2 0 -7.33301 -47.667 -16 -143c6 -162.667 39.333 -309.334 100 -440.001s172 -199.667 334 -207
c81.333 0 157 23.167 227 69.5s125.333 107.166 166 182.499s61 153.666 61 234.999v49l136 -16c0 -55.333 -17.833 -139.666 -53.5 -252.999s-106.167 -219.666 -211.5 -318.999s-253.333 -149 -444 -149c-227.333 10 -394 113.667 -500 311
c-149.333 -207.333 -391 -311 -725 -311c-105.333 8.66699 -190.666 31.334 -255.999 68.001s-115.333 101.5 -150 194.5s-52 223.833 -52 392.5zM417.999 807.003c0 -212.667 22.0029 -383.165 66.0029 -511.498s140.667 -198.166 290 -209.499c90 0 165 29.667 225 89
s105.167 131.833 135.5 217.5s52.166 176.167 65.499 271.5c16.667 95.333 25 226.333 25 393c0 133.333 -13.833 259.666 -41.5 378.999s-72.667 217.666 -135 294.999s-142.833 116 -241.5 116c-86.667 -4.66699 -158.834 -67.667 -216.501 -189
s-99.834 -261.833 -126.501 -421.5s-42 -302.834 -46 -429.501z" />
    <glyph glyph-name="florin" unicode="&#x192;" horiz-adv-x="1688" 
d="M1303 2626c-17.333 5.33301 -27 8.00195 -29 8.00195c-40 0 -67.167 -31.667 -81.5 -95s-30.333 -175.333 -48 -336s-38.834 -287.334 -63.501 -380.001h344l-16 -144h-369l-209 -1056c-26.667 -147.333 -65 -301 -115 -461s-117 -302.167 -201 -426.5
s-180.667 -186.5 -290 -186.5c-22.667 0 -47 4.33301 -73 13c-24.667 6 -47 23 -67 51s-32 58.667 -36 92c5.33301 5.33301 8 13.666 8 24.999c26.667 81.333 82.667 126.333 168 135c29.333 0 51.5 -17.167 66.5 -51.5s32.5 -55.5 52.5 -63.5
c62.667 0 108.167 52.167 136.5 156.5s67.5 289.833 117.5 556.5l242 1216h-385l8 144h426c36.667 162 75.5 310.833 116.5 446.5s98.833 263.834 173.5 384.5c74.667 120.667 162.334 182.334 263.001 185c38.667 0 75 -13.167 109 -39.5s51 -58.5 51 -96.5
c0 -47.333 -18.833 -84.333 -56.5 -111s-80.5 -40 -128.5 -40c-19.333 0 -40.5 11 -63.5 33s-39.833 35.667 -50.5 41z" />
    <glyph glyph-name="circumflex" unicode="&#x2c6;" horiz-adv-x="1888" 
d="M1798 2318l-516 185l-520 -205l520 471z" />
    <glyph glyph-name="ring" unicode="&#x2da;" horiz-adv-x="1647" 
d="M1577 2408c0 -70.667 -24.833 -131.334 -74.5 -182c-49.667 -50.667 -108.167 -76 -175.5 -76c-63.333 0 -118.666 25 -165.999 75s-71 108.333 -71 175c0 63.333 23.667 119.5 71 168.5s102.666 73.5 165.999 73.5c69.333 0 128.333 -22.167 177 -66.5
s73 -100.166 73 -167.5zM1327 2535c-40 0 -73.833 -13.5 -101.5 -40.5s-41.5 -61.167 -41.5 -102.5c0 -37.333 14 -69.166 42 -95.5c28 -26.333 61.667 -39.5 101 -39.5c41.333 0 77 13.167 107 39.5s45 58.166 45 95.5c0 41.333 -14.833 75.5 -44.5 102.5
s-65.5 40.5 -107.5 40.5z" />
    <glyph glyph-name="tilde" unicode="&#x2dc;" horiz-adv-x="1872" 
d="M930 1831l-114.999 33c72 174 192.333 266.667 361 278c36 0 69.167 -8.16699 99.5 -24.5s64.166 -40.833 101.499 -73.5s67 -56.667 89 -72s45.333 -24 70 -26c10.667 5.33301 21.667 8 33 8c39.333 12.667 79 44 119 94l98 -33c-19.333 -82 -58.5 -148.333 -117.5 -199
s-131.833 -82.667 -218.5 -96c-36 0 -69 8.33301 -99 25s-64 41.5 -102 74.5s-71 58.167 -99 75.5s-59 26 -93 26c-44 0 -86.333 -30 -127 -90z" />
    <glyph glyph-name="emdash" unicode="&#x2013;" horiz-adv-x="2646" 
d="M2535 983h-2449v266h2449v-266z" />
    <glyph glyph-name="endash" unicode="&#x2014;" horiz-adv-x="3510" 
d="M3408 983h-3326v266h3326v-266z" />
    <glyph glyph-name="quoteleft" unicode="&#x2018;" horiz-adv-x="807" 
d="M352 1266h-101.999l-164 356l426 872h193l-121 -275c-48.667 -111.333 -89.334 -214.833 -122.001 -310.5s-59.167 -197.667 -79.5 -306s-30.5 -220.5 -30.5 -336.5z" />
    <glyph glyph-name="quoteright" unicode="&#x2019;" horiz-adv-x="807" 
d="M455 2503h106l152 -361l-426 -868h-193c104 232 175 394 213 486s72.167 203 102.5 333s45.5 266.667 45.5 410z" />
    <glyph glyph-name="quotedblleft" unicode="&#x201c;" horiz-adv-x="1602" 
d="M1176 1720c-27.333 -121.333 -46.667 -272.665 -58 -453.998h-102l-152 356l422 872h193c0 1.33301 -21.333 -46.334 -64 -143c-42.667 -96.667 -85.5 -199.334 -128.5 -308.001s-79.833 -216.334 -110.5 -323.001zM409.999 1712c-20 -66 -34.167 -155.333 -42.5 -268
s-13.5 -175 -15.5 -187h-102l-156 365l426 872h193l-63.5 -145.5c-42.333 -97 -85.833 -203.333 -130.5 -319s-81 -221.5 -109 -317.5z" />
    <glyph glyph-name="quotedblright" unicode="&#x201d;" horiz-adv-x="1577" 
d="M455 2503h106l152 -361l-426 -868h-193l146.5 333.5c41 97 77.667 194.333 110 292s57.833 196.5 76.5 296.5s28 202.333 28 307zM1225 2511l102 -0.000976562l152 -369l-422 -868h-193c102.667 231.333 175.667 401.833 219 511.5s77.833 223.334 103.5 341.001
s38.5 245.834 38.5 384.5z" />
    <glyph glyph-name="dagger" unicode="&#x2020;" horiz-adv-x="1753" 
d="M881 8c-16.667 0 -42.999 -1.33301 -78.999 -4s-63 -4 -81 -4c4 144 7.83301 271.5 11.5 382.5s6.66699 222.833 9 335.5s3.5 206.334 3.5 281.001v443c-243.333 0 -460.333 -11 -651 -33v287c78.667 0 187.167 -4.16699 325.5 -12.5s244.166 -12.5 317.499 -12.5
c0 258.667 -13.667 536 -41 832h361c0 -101.333 -6.83301 -241.5 -20.5 -420.5s-20.5 -316.167 -20.5 -411.5h311c84 0 153.667 4.16699 209 12.5s84 12.5 86 12.5h25c0 -30.667 1.33301 -78.334 4 -143.001s4 -112.667 4 -144c-70.667 0 -176 5.5 -316 16.5
s-250.333 16.5 -331 16.5c0 -162 4 -404.333 12 -727s12 -563.667 12 -723c-98.667 10.667 -149 16 -151 16z" />
    <glyph glyph-name="ellipsis" unicode="&#x2026;" horiz-adv-x="2433" 
d="M176 217c4 64 29 118.167 75 162.5s101.667 66.5 167 66.5c63.333 -4 114.666 -28.167 153.999 -72.5s59 -99.166 59 -164.499c0 -66 -21.333 -124.167 -64 -174.5s-95 -75.5 -157 -75.5c-67.333 0 -123.166 25.667 -167.499 77s-66.5 111.666 -66.5 180.999zM1806 217
c5.33301 64.667 30.999 119 76.999 163s101 66 165 66c64 -4 116.167 -28.333 156.5 -73s60.5 -99.334 60.5 -164.001c0 -65.333 -22 -123.333 -66 -174s-97 -76 -159 -76c-65.333 0 -120.666 25.833 -165.999 77.5s-68 111.834 -68 180.501zM990.999 217
c4 63.333 29.332 117.333 75.999 162s102 67 166 67c64 -4 116.167 -28.333 156.5 -73s60.5 -99.334 60.5 -164.001c0 -65.333 -22 -123.333 -66 -174s-97 -76 -159 -76c-65.333 0 -120.666 25.833 -165.999 77.5s-68 111.834 -68 180.501z" />
    <glyph glyph-name="trademark" unicode="&#x2122;" horiz-adv-x="2855" 
d="M807 1319l41.0039 -16v-46h-496v46l49 8c22 4.66699 42.167 9.16699 60.5 13.5s32.666 12.5 42.999 24.5s15.5 32 15.5 60v983l-278 -8c-28 0 -47.333 -19 -58 -57l-16 -127h-57l-9 294c27.333 -5.33301 192.666 -8 495.999 -8c59.333 0 145.666 1.33301 258.999 4
s197.666 4 252.999 4l-4 -286h-57l-17 110c0 54.667 -21.667 82 -65 82l-271 8v-991c0 -20.667 5.66699 -42.334 17 -65.001c13.333 -10 31.833 -17.667 55.5 -23s36.5 -8.66602 38.5 -9.99902zM1921 1241l-470.999 1040v-856c0 -3.33301 6.66699 -25 20 -65
c22 -22 60.333 -33 115 -33h25v-53h-418v53h49c74 0 111 32.667 111 98v926v33c0 43.333 -48 65 -144 65h-16v54h25c56 0 95.333 -5.66699 118 -17c19.333 0 50.666 1.33301 93.999 4s76.333 4 99 4l463 -983l184 377l120 217.5c37.333 67.667 69.833 134.167 97.5 199.5
s46.5 128.333 56.5 189h336v-53h-24c-96 0 -144 -32.667 -144 -98v-926c0 -29.333 4.83301 -48.666 14.5 -57.999s26 -16.333 49 -21s41.5 -11 55.5 -19l41 -8v-54h-496v54l46 8c22 4.66699 41.5 9.16699 58.5 13.5s30.5 11.666 40.5 21.999s15 28.5 15 54.5v864l-487 -1032
h-33z" />
    <glyph glyph-name=".null" horiz-adv-x="0" 
 />
    <glyph glyph-name="nonmarkingreturn" horiz-adv-x="0" 
 />
    </font>
</defs>
</svg>
