<?xml version="1.0" encoding="UTF-8" standalone="no"?>
<!-- Created with Inkscape (http://www.inkscape.org/) -->

<svg
   xmlns:dc="http://purl.org/dc/elements/1.1/"
   xmlns:cc="http://creativecommons.org/ns#"
   xmlns:rdf="http://www.w3.org/1999/02/22-rdf-syntax-ns#"
   xmlns:svg="http://www.w3.org/2000/svg"
   xmlns="http://www.w3.org/2000/svg"
   xmlns:sodipodi="http://sodipodi.sourceforge.net/DTD/sodipodi-0.dtd"
   xmlns:inkscape="http://www.inkscape.org/namespaces/inkscape"
   width="210mm"
   height="297mm"
   viewBox="0 0 744.09448819 1052.3622047"
   id="svg4250"
   version="1.1"
   inkscape:version="0.91 r13725"
   sodipodi:docname="SeraphLucifer.svg">
  <defs
     id="defs4252" />
  <sodipodi:namedview
     id="base"
     pagecolor="#ffffff"
     bordercolor="#666666"
     borderopacity="1.0"
     inkscape:pageopacity="0.0"
     inkscape:pageshadow="2"
     inkscape:zoom="0.35"
     inkscape:cx="-49.285714"
     inkscape:cy="520"
     inkscape:document-units="px"
     inkscape:current-layer="layer1"
     showgrid="false"
     inkscape:window-width="1920"
     inkscape:window-height="1147"
     inkscape:window-x="0"
     inkscape:window-y="0"
     inkscape:window-maximized="1" />
  <metadata
     id="metadata4255">
    <rdf:RDF>
      <cc:Work
         rdf:about="">
        <dc:format>image/svg+xml</dc:format>
        <dc:type
           rdf:resource="http://purl.org/dc/dcmitype/StillImage" />
        <dc:title></dc:title>
      </cc:Work>
    </rdf:RDF>
  </metadata>
  <g
     inkscape:label="Layer 1"
     inkscape:groupmode="layer"
     id="layer1">
    <g
       id="g4750"
       transform="translate(-1362.8841,-495.82351)">
      <path
         id="path3750-7"
         d="m 1684.5,1036 c 8.5818,-4.9216 13.051,-14.295 12.005,-25.179 -0.4531,-4.7159 -0.3681,-4.993 0.9891,-3.2256 3.3439,4.3548 6.6229,13.054 6.6889,17.746 0.061,4.3202 -0.3188,5.1927 -3.5448,8.1503 -3.7581,3.4455 -10.478,5.5457 -17.686,5.5275 l -3.7008,-0.01 5.2487,-3.0101 z m 21.475,-0.6258 c 1.6614,-2.8157 1.9431,-4.5696 1.5068,-9.3813 l -0.5367,-5.918 3.2249,2.4597 c 3.7442,2.8558 5.9268,6.4763 5.4299,9.0068 -0.4406,2.2438 -4.4047,5.2228 -8.5084,6.3942 l -3.1599,0.9019 z m 77.276,2.3905 c -9.0398,-2.9843 -9.7822,-9.8384 -1.6897,-15.601 l 2.7743,-1.9755 -0.4086,6.4182 c -0.3101,4.8699 5e-4,7.0426 1.2875,9.0069 2.0747,3.1664 1.8518,3.4107 -1.9635,2.1512 z m 16.143,0.1571 c -12.768,-2.9996 -15.618,-11.636 -8.3512,-25.305 l 3.208,-6.0344 0.5364,7.4733 c 0.841,11.716 4.9224,18.637 13.521,22.926 l 3.943,1.9672 -4.5,-0.061 c -2.475,-0.033 -6.2356,-0.4684 -8.3568,-0.9668 z m -151.64,-2.1421 -4.5,-1.035 7.5,-1.8506 c 17.651,-4.3554 32.046,-14.653 38.7,-27.685 l 3.1999,-6.2669 1.1613,4.2932 c 2.5955,9.5946 -0.6826,20.853 -7.782,26.726 -7.5354,6.234 -24.957,8.8819 -38.279,5.818 z m 169,-0.1786 c -2.475,-0.6868 -5.8838,-1.9675 -7.5752,-2.8458 -4.6703,-2.4254 -10.18,-9.104 -11.482,-13.92 -1.1689,-4.3203 -0.8523,-16.526 0.4847,-18.689 0.4251,-0.68781 1.9693,1.3575 3.8178,5.0567 6.6353,13.278 21.385,23.881 38.367,27.58 l 7.8884,1.7182 -5,1.1675 c -6.5846,1.5374 -20.847,1.5007 -26.5,-0.068 z m -89.736,-7.1138 c -8.3166,-2.2398 -14.729,-5.999 -20.81,-12.199 -5.7378,-5.8504 -5.9036,-6.152 -23.093,-41.988 -5.0949,-10.622 -12.643,-19.474 -20.035,-23.497 -9.6968,-5.2777 -21.601,-7.4824 -60.826,-11.265 -8.8,-0.84858 -20.275,-2.2597 -25.5,-3.1358 -46.242,-7.7538 -69.188,-29.432 -75.548,-71.373 -2.1803,-14.379 -1.7601,-15.445 1.9014,-4.8241 11.786,34.186 34.343,51.349 75.206,57.221 6.0169,0.86466 20.84,2.27 32.94,3.123 12.1,0.85299 25.15,2.0197 29,2.5927 22.708,3.3797 36.054,10.409 44.784,23.586 5.4344,8.203 6.4207,10.466 13.21,30.301 2.9178,8.525 6.4357,18.054 7.8174,21.175 5.7221,12.926 14.985,23.34 25.689,28.881 4.2889,2.2204 4.9495,2.8435 3,2.8297 -1.375,-0.01 -4.856,-0.6522 -7.7355,-1.4276 z m 33.231,-1.7351 c 8.6874,-4.6708 17.194,-13.616 22.311,-23.461 2.3549,-4.5306 6.7602,-15.556 9.7896,-24.5 10.078,-29.758 17.19,-40.587 31.342,-47.732 12.516,-6.3179 23.612,-8.1917 68.482,-11.565 36.341,-2.7321 54.67,-8.308 71.663,-21.8 10.324,-8.197 21.452,-25.832 25.508,-40.421 0.9555,-3.4368 1.9078,-6.0782 2.1162,-5.8698 0.7414,0.74139 -1.7993,18.253 -3.7667,25.962 -8.5069,33.333 -31.559,52 -72.941,59.064 -4.675,0.79804 -15.925,2.1703 -25,3.0495 -48.969,4.7442 -59.394,7.4 -69.906,17.809 -5.9,5.8416 -9.2337,11.495 -17.971,30.475 -4.2844,9.3073 -9.1644,18.912 -10.844,21.344 -7.0362,10.186 -15.794,16.519 -26.813,19.389 -9.3247,2.4288 -10.649,1.8472 -3.9698,-1.7437 z m -140,1.1923 c -5.9715,-1.1774 -14.682,-3.8725 -15.8,-4.8887 -0.44,-0.3999 3.385,-0.9962 8.5,-1.3252 13.363,-0.8593 21.68,-3.5746 44.8,-14.628 11.275,-5.3902 22.525,-10.341 25,-11.001 2.475,-0.66035 5.2985,-1.4308 6.2745,-1.712 1.6681,-0.48073 1.6581,-0.20527 -0.1654,4.5938 -4.4939,11.827 -15.664,21.53 -30.647,26.623 -6.6436,2.2581 -10.032,2.7573 -20.462,3.0148 -6.875,0.1697 -14.75,-0.1351 -17.5,-0.6773 z m 220,-0.3325 c -20.133,-4.6435 -34.179,-15.925 -38.914,-31.254 l -0.6707,-2.1712 6.2924,1.4531 c 3.4886,0.80563 15.427,5.8762 26.792,11.379 22.376,10.834 31.583,13.861 45.435,14.936 8.4996,0.6597 8.8778,0.7821 6.0649,1.9627 -10.701,4.4915 -33.447,6.3587 -45,3.694 z m -251.99,-12.132 c -6.8503,-1.7304 -18.593,-7.2974 -23.012,-10.909 l -3,-2.4523 4,1.1254 c 2.2,0.6189 8.725,1.1209 14.5,1.1155 12.438,-0.012 20.36,-1.7599 46.5,-10.262 22.044,-7.1698 27.631,-8.3957 38.5,-8.4478 6.2583,-0.03 10.412,0.57525 15.75,2.2949 7.1823,2.3138 9.3398,4.0791 5,4.091 -3.0371,0.008 -21.06,6.4282 -38.75,13.803 -7.975,3.3246 -18.1,7.0168 -22.5,8.2049 -10.563,2.8525 -28.609,3.5536 -36.988,1.4372 z m 284.49,0.064 c -8.9765,-1.7913 -19.474,-5.4287 -38.91,-13.483 -15.681,-6.498 -24.401,-9.4761 -30.09,-10.276 -2.3004,-0.32362 -2.1806,-0.4941 1.5,-2.1349 6.8878,-3.0705 17.382,-4.838 24.5,-4.1265 9.7367,0.9733 16.693,2.7555 39.108,10.02 28.284,9.1658 43.943,11.18 57.312,7.3718 l 3.08,-0.8774 -3,2.4575 c -4.7031,3.8526 -16.368,9.3015 -23.5,10.977 -7.7765,1.8274 -21.044,1.8592 -30,0.072 z m -305.5,-22.925 c -14.802,-2.8879 -24.353,-8.403 -36.008,-20.792 -4.1655,-4.4279 -7.3823,-8.2421 -7.1485,-8.4759 0.2338,-0.23381 2.6145,0.96368 5.2905,2.6611 2.676,1.69742 8.3015,4.1718 12.501,5.4987 17.128,5.4119 33.748,5.6588 68.365,1.0157 35.169,-4.7174 49.627,-4.3933 62.047,1.3908 6.0958,2.8388 12.763,7.9544 14.432,11.073 0.8049,1.504 0.2831,1.4649 -4.7882,-0.35883 -4.8072,-1.7287 -8.0224,-2.0398 -20.692,-2.0019 -14.066,0.0421 -16.557,0.36566 -40,5.1974 -28.381,5.8494 -42.264,7.0812 -54,4.7914 z m 330.36,0.37206 c -3.6494,-0.42616 -15.574,-2.5896 -26.5,-4.8076 -10.926,-2.218 -23.645,-4.5719 -28.266,-5.2308 -10.749,-1.5329 -25.892,-0.70725 -33.349,1.8184 -3.1625,1.0711 -5.75,1.6245 -5.75,1.2299 0,-1.7863 9.7322,-9.4178 15.32,-12.014 12.515,-5.8131 23.247,-6.1755 57.68,-1.9476 31.308,3.8442 45.023,4.5864 56.5,3.0576 10.693,-1.4244 22.145,-5.0747 28.859,-9.1993 2.6724,-1.6417 5.035,-2.8088 5.2502,-2.5936 0.2152,0.2152 -2.9875,4.0282 -7.1171,8.4733 -16.897,18.188 -35.262,24.409 -62.627,21.213 z m -221.02,-19.943 c -13.921,-9.0884 -30.988,-11.676 -65.346,-9.9092 -29.029,1.4931 -49.572,0.7721 -59.484,-2.0877 -20.401,-5.8861 -36.104,-19.753 -46.108,-40.716 -2.6749,-5.6048 -7.9078,-19.64 -7.9078,-21.209 0,-0.30365 1.6829,2.2928 3.7399,5.7698 7.5849,12.822 20.033,23.981 33.625,30.144 15.459,7.0095 31.326,9.5809 68.002,11.02 40.518,1.5904 52.985,4.366 67.176,14.957 4.5007,3.3588 13.438,14.459 12.374,15.367 -0.229,0.19538 -2.9608,-1.3059 -6.0706,-3.3361 z m 132.15,3.1952 c 0,-1.857 7.3428,-11.362 11.252,-14.565 2.3841,-1.9536 7.6902,-5.1247 11.791,-7.0469 12.555,-5.8846 17.248,-6.493 73.957,-9.5881 10.869,-0.59324 22.625,-1.8642 28.5,-3.0815 24.888,-5.1562 41.896,-16.204 54.361,-35.311 2.8267,-4.3331 5.1394,-7.6224 5.1394,-7.3096 0,0.31279 -1.1815,3.858 -2.6256,7.8783 -11.363,31.635 -29.535,49.308 -56.374,54.829 -11.124,2.2884 -30.279,2.5927 -57.221,0.90922 -29.666,-1.8537 -49.005,1.2472 -62.607,10.039 -3.3944,2.1939 -6.1716,3.6552 -6.1716,3.2474 z"
         sodipodi:nodetypes="csscsccccsccssscssscccssscssccsscssccssccccsscsccssssssssssssssscsssssssssssssscssscsssssssssscssssssscssssscssscsssssscssccsscsssscssssssssssssssssssssscssscsssssssssssss"
         style="fill:#000000"
         inkscape:connector-curvature="0" />
      <g
         id="g4684"
         transform="matrix(-1,0,0,1,3494.5,0)">
        <g
           id="g4674">
          <g
             id="g3894"
             transform="matrix(-1,0,0,-1,3494.5,1996.7)">
            <path
               id="path3896"
               style="fill:#000000"
               inkscape:connector-curvature="0"
               d="m 1730.8,944.7 c 1.0208,1.3813 1.7054,2.6158 2.0179,3.7065 0.3124,1.0907 0.2542,2.037 -0.1805,2.8136 -0.4346,0.7767 -1.2452,1.3838 -2.4212,1.7718 -1.1759,0.388 -2.7179,0.5574 -4.5958,0.4294 -1.7366,-0.1102 -3.779,-0.4922 -6.0497,-1.2888 -1.3934,-0.4889 -2.7823,-1.0432 -4.1567,-1.6721 2.1212,-0.3755 4.1349,-0.918 6.0596,-1.5727 2.1906,-0.7453 3.5853,-1.4812 4.522,-2.1919 0.9367,-0.7108 1.4064,-1.4125 1.6507,-2.2427 0.2372,-0.8065 0.434,-1.3668 0.6447,-1.6759 0.246,-0.359 0.5108,-0.3808 0.8919,-0.06 0.381,0.32 0.8774,0.9823 1.6171,1.9834 z m -9.9303,-10.529 c 0.5903,2.1403 1.2243,4.0809 1.429,5.7983 0.2047,1.7173 -10e-4,3.2175 -0.8165,4.4468 -0.8153,1.2293 -2.2334,2.2007 -4.3686,2.6878 -1.0676,0.2436 -2.3138,0.3622 -3.7472,0.2934 -1.4333,-0.069 -3.0542,-0.3247 -4.8624,-0.8651 -1.7032,-0.5498 -3.5211,-1.3496 -5.3862,-2.4339 -2.6015,-1.5124 -5.063,-3.3111 -7.3259,-5.3089 2.3368,0.6412 4.6867,1.1064 6.9942,1.3662 2.7133,0.3056 4.9879,0.05 6.8329,-0.5551 1.8451,-0.6049 3.2662,-1.5552 4.3882,-2.6899 1.122,-1.1348 1.9491,-2.4533 2.6479,-3.8758 0.6987,-1.4226 1.2734,-2.9511 1.8681,-4.5751 0.3636,-0.993 0.7818,-1.9607 1.2433,-2.9023 -0.034,0.9857 -0.018,1.9602 0.072,2.9118 0.062,0.6512 0.1324,1.4455 0.2497,2.2478 0.1581,1.2312 0.525,2.5234 0.7817,3.454 z m -3.3431,-11.596 c -0.3087,0.8754 -0.7145,1.9376 -1.0932,2.9584 -0.3787,1.0208 -0.7284,1.999 -1.0045,2.6594 -0.3813,0.9115 -0.9192,1.8949 -1.557,2.8899 -0.6379,0.995 -1.3766,2.001 -2.1859,2.9291 -1.6188,1.8562 -3.5487,3.3961 -5.5106,3.7782 -1.0822,0.2108 -2.9179,0.141 -5.0265,-0.3117 -2.1086,-0.4528 -4.4772,-1.2986 -6.5319,-2.3405 -2.5438,-1.2323 -4.6477,-2.6618 -5.4286,-3.6259 -0.3223,-0.3979 -0.069,-0.829 0.6472,-1.2287 0.716,-0.3998 1.8942,-0.769 3.4154,-1.0754 2.3706,-0.4775 4.5877,-1.4781 6.6669,-2.8424 2.0792,-1.3641 4.0254,-3.0859 5.8686,-5.0532 1.8432,-1.9672 3.5882,-4.1771 5.2028,-6.6306 1.6146,-2.4536 3.1021,-5.1518 4.3042,-8.2239 0.8496,-1.5498 1.6813,-3.1209 2.4949,-4.7124 0.9565,-1.8711 1.9944,-3.683 3.0991,-5.4405 -0.1834,1.3534 -0.3269,2.7038 -0.4251,4.0502 -0.09,1.2409 -0.2949,2.7657 -0.516,4.4427 -0.011,1.7004 -0.1132,3.426 -0.271,5.0906 -0.1578,1.6645 -0.3696,3.2689 -0.5935,4.7595 -0.2239,1.4905 -0.4583,2.8686 -0.6832,4.0948 -0.2249,1.2261 -0.4403,2.3016 -0.6601,3.1806 -0.07,0.231 -0.1405,0.4488 -0.2121,0.6518 l 10e-5,0 z m 25.712,40.412 c -5.7252,-0.9453 -12.32,-1.5953 -19.383,-2.5298 -3.2833,-0.3972 -6.7504,-1.0073 -10.321,-1.9455 -3.5709,-0.9381 -7.2454,-2.2082 -10.971,-3.8682 -1.299,-0.6494 -2.556,-1.323 -3.7714,-2.0124 -1.8983,-1.0768 -4.3591,-2.547 -6.9984,-4.4408 -2.6394,-1.8937 -5.4517,-4.2147 -8.0562,-6.8342 -2.3024,-2.2052 -4.582,-4.5262 -6.7226,-6.7763 -2.1406,-2.2502 -4.1432,-4.4247 -5.9411,-6.3562 -1.5045,-1.6162 -2.8808,-3.1248 -4.1466,-4.5106 -3.0563,-3.9221 -5.6557,-7.7944 -7.8828,-11.551 -2.227,-3.7563 -4.0817,-7.3979 -5.631,-10.905 -3.0988,-7.0145 -4.9901,-13.479 -6.0264,-19.526 -0.9075,-5.1111 -1.2782,-9.9636 -1.2034,-14.733 0.075,-4.7697 0.5962,-9.459 1.5354,-14.246 1.1052,-5.6324 2.516,-10.667 4.6363,-16.047 1.3084,-3.3126 2.878,-6.7816 4.8484,-10.585 1.9703,-3.8038 4.3411,-7.9433 7.2829,-12.546 2.9418,-4.603 6.455,-9.67 10.741,-15.264 4.286,-5.594 9.3472,-11.714 15.399,-18.361 5.3305,-5.8546 10.229,-11.03 14.71,-15.796 9.2958,-9.93 16.84,-18.222 23.338,-26.279 6.4977,-8.0576 11.952,-15.874 17.391,-24.54 1.636,-2.6063 3.2884,-5.5472 4.937,-8.7032 2.1397,-4.1013 4.2868,-8.5814 6.4339,-13.18 2.1471,-4.5984 4.3003,-9.315 6.3873,-13.914 1.8155,-4.0022 3.7094,-7.9929 5.6167,-11.79 0.4548,-0.9439 0.9399,-1.8912 1.453,-2.8353 1.0717,-1.9717 2.3708,-3.8199 3.4705,-5.1584 1.0997,-1.3387 1.9597,-2.1604 2.0588,-2.0966 0.092,0.059 -0.086,0.4631 -0.4443,1.1312 -0.3579,0.6681 -0.8904,1.5997 -1.4762,2.7075 -0.5858,1.108 -1.222,2.3917 -1.8168,3.767 -0.5948,1.3753 -1.1477,2.8417 -1.6231,4.3235 -0.7741,2.2925 -1.4884,4.6843 -2.1041,6.9609 -0.6157,2.2767 -1.1378,4.4394 -1.589,6.2913 -0.1696,0.6966 -0.3312,1.3505 -0.4849,1.9509 -2.454,9.5833 -5.0478,18.499 -8.5174,27.199 -4.0336,10.122 -9.1875,19.882 -15.663,29.83 -6.476,9.948 -14.278,20.085 -23.484,31.009 -2.0099,2.3855 -4.0881,4.8098 -6.2312,7.284 -1.7064,1.9701 -4.635,5.2337 -7.9155,9.0083 -3.2804,3.7746 -6.9053,8.0705 -10.09,11.966 -6.7594,8.2692 -12.132,15.796 -16.47,22.571 -4.3378,6.7752 -7.645,12.797 -10.221,18.169 -1.9909,4.1608 -3.524,7.9727 -4.7053,11.513 -1.1813,3.54 -2.0115,6.8087 -2.575,9.9222 -0.5634,3.1136 -0.8603,6.073 -0.9475,9.022 -0.087,2.9489 0.035,5.8882 0.3403,8.9782 0.073,0.7396 0.1548,1.4666 0.2459,2.1862 0.3085,2.5244 0.747,4.9637 1.3868,7.528 0.6397,2.5642 1.4797,5.2555 2.6468,8.2632 1.1671,3.0078 2.6589,6.3364 4.6833,10.11 2.0244,3.7736 4.5777,8.002 7.9928,12.643 0.4346,0.5362 0.8851,1.0911 1.3527,1.6645 2.0632,2.5299 4.282,5.2545 6.5321,7.8599 2.2501,2.6053 4.5327,5.082 6.6327,7.1882 1.6254,1.681 3.2006,3.0922 4.5411,4.2123 1.3405,1.1202 2.4454,1.9534 3.1546,2.511 2.3935,1.8817 4.8906,3.5756 7.4965,5.063 3.1877,1.7037 6.2758,2.9993 9.2883,4.0807 3.0126,1.0815 5.9495,1.948 8.7934,2.7182 5.3353,1.4952 10.506,2.9701 15.603,4.7045 2.6762,0.9106 4.7251,1.5974 6.1529,2.1319 1.4278,0.5345 2.2381,0.9136 2.4448,1.1557 0.2066,0.2421 -0.1895,0.3468 -1.2002,0.3062 -1.0106,-0.041 -2.6373,-0.2237 -4.9139,-0.5996 z m -29.158,-62.765 c -1.5628,2.9121 -3.0759,5.6888 -4.5932,8.3069 -1.4037,2.9898 -3.0072,5.5566 -4.7166,7.7993 -1.7093,2.2427 -3.5313,4.1583 -5.4814,5.714 -1.9501,1.5556 -4.0338,2.7459 -6.2833,3.4686 -2.2494,0.7226 -4.6681,0.9705 -7.2353,0.6645 -0.6047,-0.072 -1.2094,-0.1467 -1.814,-0.2236 0.3932,-2.1725 0.8625,-4.2692 1.373,-6.3138 0.1713,-0.6858 0.507,-1.6593 0.9843,-2.8417 0.8801,-2.5083 2.3696,-5.847 4.375,-9.3075 2.0054,-3.4603 4.528,-7.0353 7.2516,-10.235 3.4352,-4.0361 6.5209,-7.1633 9.2236,-9.8631 2.7026,-2.6998 5.0314,-4.9637 7.0976,-7.0954 1.9833,-2.0471 3.7492,-3.9668 5.4566,-5.95 1.7073,-1.9831 3.3567,-4.0283 5.1376,-6.2856 2.2366,-2.8349 3.4914,-4.2407 4.0413,-4.6444 0.55,-0.4038 0.4088,0.209 0.025,1.5193 -0.6194,2.1157 -1.5218,4.5235 -2.5542,7.0934 -1.0324,2.57 -2.1925,5.3033 -3.3552,8.0793 -1.5499,3.7342 -3.1985,7.5243 -4.7195,11.012 -1.521,3.4871 -2.9111,6.6773 -4.2131,9.1036 z m 4.0922,-31.15 c -1.507,1.623 -3.1267,3.2896 -4.9582,5.1338 -1.8315,1.8443 -3.8761,3.8641 -6.2037,6.2447 -1.7481,1.7871 -3.6668,3.7787 -5.7564,6.088 -2.0896,2.3092 -4.3521,4.9345 -6.7389,8.0384 -3.6759,4.7803 -6.2761,9.1959 -8.1297,13.121 -1.8536,3.9248 -2.9667,7.3604 -3.5985,10.357 -0.3246,1.1889 -0.5669,2.3017 -0.7337,3.3558 -0.187,1.1822 -0.3016,1.7382 -0.5279,1.3886 -0.2263,-0.3496 -0.5685,-1.6157 -1.0759,-3.9104 0,-0.015 -0.01,-0.031 -0.011,-0.046 -0.5999,-2.4853 -1.0276,-5.1925 -1.2484,-7.95 -0.2209,-2.7575 -0.2353,-5.5645 -0.057,-8.2637 0.3564,-5.3983 1.4984,-10.342 2.9328,-13.833 1.1861,-2.8867 2.4274,-5.3752 3.9537,-7.8941 1.76,-2.9055 3.8955,-5.8638 6.9217,-9.3297 3.0262,-3.4659 6.9465,-7.4431 12.403,-12.098 4.4536,-3.7993 8.5026,-7.0485 12.132,-10.021 6.2364,-5.1325 11.281,-9.3783 15.454,-13.501 4.1731,-4.123 7.4781,-8.108 10.347,-12.464 0.5691,-0.8641 1.1436,-1.7258 1.7234,-2.5853 -0.3625,1.2302 -0.7147,2.4586 -1.0562,3.6852 -0.8031,2.8842 -2.5251,7.1438 -4.3782,11.435 -1.8531,4.2915 -3.8292,8.6244 -5.4903,11.611 -0.7785,1.3995 -1.7244,2.926 -2.7746,4.526 -1.9108,2.8945 -4.1843,5.9896 -6.4723,8.9355 -2.288,2.946 -4.5875,5.7487 -6.6574,7.9778 z m 2.6134,-33.507 c -0.952,0.9002 -2.7838,2.514 -5.0834,4.597 -2.2997,2.0829 -5.0645,4.6407 -7.8999,7.3971 -1.6592,1.6087 -3.3448,3.281 -4.9812,4.9498 -3.6122,3.6835 -7.3692,7.9347 -10.456,11.867 -3.0872,3.9324 -5.5088,7.5329 -6.7298,9.5347 -1.2535,2.0551 -2.4923,4.4506 -3.6277,7.0772 -2.0108,4.645 -3.6548,10.049 -4.5671,15.375 -0.4562,2.6633 -0.7354,5.302 -0.8378,7.7844 -0.1023,2.4824 -0.028,4.808 0.1907,6.8365 0.2382,2.2074 0.4655,4.1828 0.5951,5.5815 0.1297,1.3988 0.1536,2.2197 -0.01,2.1087 -0.3703,-0.2508 -1.0337,-1.4613 -1.7855,-3.2844 -0.7518,-1.823 -1.5831,-4.2588 -2.3053,-6.9327 -0.7222,-2.6738 -1.3329,-5.584 -1.7433,-8.3394 -0.4104,-2.7553 -0.6233,-5.3542 -0.6435,-7.4173 -0.04,-4.0807 0.2654,-7.8213 0.9439,-11.494 1.0019,-5.4825 2.7745,-10.858 5.7925,-16.836 3.018,-5.9773 7.2997,-12.557 13.53,-20.067 2.2264,-2.6832 4.6984,-5.4876 7.4573,-8.4127 5.3088,-5.6286 10.03,-10.162 14.188,-14.043 4.1583,-3.8808 7.7578,-7.1028 10.907,-9.9537 3.1495,-2.8507 5.8509,-5.3268 8.2544,-7.637 2.4036,-2.3102 4.51,-4.4527 6.4904,-6.5968 3.5962,-3.8934 7.239,-8.2394 10.524,-12.523 3.4845,-4.4932 6.5628,-8.8635 8.7013,-12.57 1.66,-2.8768 3.2353,-5.1558 3.4565,-5.1004 0.2213,0.055 -1.3803,4.9607 -3.3669,10.958 -1.0749,3.2449 -2.1844,6.3473 -3.3519,9.3265 -3.7678,9.8083 -8.1251,18.053 -13.59,25.666 -2.7323,3.8061 -5.7392,7.4572 -9.068,11.096 -3.3289,3.6392 -6.9799,7.2652 -10.984,11.052 z m -50.693,70.951 c -0.3535,-0.3082 -0.9983,-1.5006 -1.7426,-3.2443 -0.7444,-1.7437 -1.5816,-4.04 -2.3365,-6.5309 -0.7549,-2.4909 -1.4257,-5.1749 -1.9167,-7.673 -0.4911,-2.4981 -0.805,-4.8085 -0.92,-6.5576 -0.023,-0.3454 -0.041,-0.7189 -0.056,-1.1166 -0.09,-2.2483 -0.044,-5.2776 0.172,-8.4147 0.2156,-3.1371 0.601,-6.3798 1.068,-9.101 0.7308,-4.2576 1.5225,-7.7523 2.6782,-11.37 1.1557,-3.6179 2.6792,-7.3639 5.0494,-11.939 1.3352,-2.5725 2.9352,-5.4167 4.9102,-8.6286 1.975,-3.2118 4.3248,-6.7918 7.1816,-10.801 2.8569,-4.0089 6.2213,-8.4467 10.246,-13.335 4.0249,-4.8888 8.7121,-10.227 14.22,-16.008 2.9942,-3.142 6.0989,-6.3751 9.0463,-9.4285 2.9474,-3.0534 5.7362,-5.9289 8.0771,-8.3914 1.5472,-1.6238 2.8995,-3.0673 3.9725,-4.2659 8.1736,-9.1298 15.104,-17.78 21.044,-26.598 5.94,-8.818 10.889,-17.802 15.27,-27.531 1.0605,-2.3482 2.0779,-4.7307 3.0709,-7.1534 2.0911,-5.1019 3.9972,-8.969 4.0166,-8.6961 0.019,0.273 -0.8266,3.8748 -1.7309,8.0221 -0.7477,3.4287 -1.5092,6.7684 -2.3259,10.032 -3.1456,12.647 -6.8027,23.872 -11.513,34.206 -4.7098,10.333 -10.468,19.773 -17.591,28.817 -1.4021,1.7939 -2.8567,3.5671 -4.3642,5.325 -3.8767,4.5208 -9.3471,9.9872 -16.189,16.786 -3.421,3.3993 -7.1823,7.1368 -11.233,11.304 -4.051,4.1677 -8.3919,8.7647 -12.95,13.924 -4.3179,4.888 -8.0917,9.8093 -11.356,14.731 -4.2193,6.3683 -7.5559,12.79 -10.015,19.211 -2.4588,6.4206 -4.0435,12.838 -4.7962,19.176 -0.6363,5.2487 -0.6453,10.468 -0.043,15.581 0.3278,2.7823 0.6679,5.2656 0.8913,7.0212 0.2234,1.7556 0.3192,2.7832 0.1639,2.6478 z" />
            <g
               id="g3898"
               transform="translate(-66.022,33.471)">
              <path
                 id="path3900"
                 sodipodi:nodetypes="cssscssc"
                 style="fill:#ffffff"
                 inkscape:connector-curvature="0"
                 d="m 1783.3,624.68 c 0,0 5.347,40.653 13.999,87.904 5.7706,31.513 11.285,67.686 24.001,90.354 31.782,56.656 29.019,89.82 18.655,100.87 -10.364,11.055 -26.255,25.564 -26.255,25.564 0,0 44.219,2.7637 76.692,-42.837 32.473,-45.6007 33.284,-75.808 -19.346,-129.89 -52.475,-53.927 -87.747,-131.97 -87.747,-131.97 z" />
              <path
                 id="path3902"
                 style="fill:#000000"
                 inkscape:connector-curvature="0"
                 d="m 1829.7,911.54 c -1.0208,1.3813 -1.7054,2.6158 -2.0179,3.7065 -0.3124,1.0907 -0.2542,2.037 0.1805,2.8136 0.4346,0.7767 1.2452,1.3838 2.4212,1.7718 1.1759,0.388 2.7179,0.5574 4.5958,0.4294 1.7366,-0.1102 3.779,-0.4922 6.0497,-1.2888 1.3934,-0.4889 2.7823,-1.0432 4.1567,-1.6721 -2.1212,-0.3755 -4.1349,-0.918 -6.0596,-1.5727 -2.1906,-0.7453 -3.5853,-1.4812 -4.522,-2.1919 -0.9367,-0.7108 -1.4064,-1.4125 -1.6507,-2.2427 -0.2372,-0.8065 -0.434,-1.3668 -0.6447,-1.6759 -0.246,-0.359 -0.5108,-0.3808 -0.8919,-0.06 -0.381,0.32 -0.8774,0.9823 -1.6171,1.9834 z m 9.9303,-10.529 c -0.5903,2.1403 -1.2243,4.0809 -1.429,5.7983 -0.2047,1.7173 10e-4,3.2175 0.8165,4.4468 0.8153,1.2293 2.2334,2.2007 4.3686,2.6878 1.0676,0.2436 2.3138,0.3622 3.7472,0.2934 1.4333,-0.069 3.0542,-0.3247 4.8624,-0.8651 1.7032,-0.5498 3.5211,-1.3496 5.3862,-2.4339 2.6015,-1.5124 5.063,-3.3111 7.3259,-5.3089 -2.3368,0.6412 -4.6867,1.1064 -6.9942,1.3662 -2.7133,0.3056 -4.9879,0.05 -6.8329,-0.5551 -1.8451,-0.6049 -3.2662,-1.5552 -4.3882,-2.6899 -1.122,-1.1348 -1.9491,-2.4533 -2.6479,-3.8758 -0.6987,-1.4226 -1.2734,-2.9511 -1.8681,-4.5751 -0.3636,-0.993 -0.7818,-1.9607 -1.2433,-2.9023 0.034,0.9857 0.018,1.9602 -0.072,2.9118 -0.062,0.6512 -0.1324,1.4455 -0.2497,2.2478 -0.1581,1.2312 -0.525,2.5234 -0.7817,3.454 z m 3.3431,-11.596 c 0.3087,0.8754 0.7145,1.9376 1.0932,2.9584 0.3787,1.0208 0.7284,1.999 1.0045,2.6594 0.3813,0.9115 0.9192,1.8949 1.557,2.8899 0.6379,0.995 1.3766,2.001 2.1859,2.9291 1.6188,1.8562 3.5487,3.3961 5.5106,3.7782 1.0822,0.2108 2.9179,0.141 5.0265,-0.3117 2.1086,-0.4528 4.4772,-1.2986 6.5319,-2.3405 2.5438,-1.2323 4.6477,-2.6618 5.4286,-3.6259 0.3223,-0.3979 0.069,-0.829 -0.6472,-1.2287 -0.716,-0.3998 -1.8942,-0.769 -3.4154,-1.0754 -2.3706,-0.4775 -4.5877,-1.4781 -6.6669,-2.8424 -2.0792,-1.3641 -4.0254,-3.0859 -5.8686,-5.0532 -1.8432,-1.9672 -3.5882,-4.1771 -5.2028,-6.6306 -1.6146,-2.4536 -3.1021,-5.1518 -4.3042,-8.2239 -0.8496,-1.5498 -1.6813,-3.1209 -2.4949,-4.7124 -0.9565,-1.8711 -1.9944,-3.683 -3.0991,-5.4405 0.1834,1.3534 0.3269,2.7038 0.4251,4.0502 0.09,1.2409 0.2949,2.7657 0.516,4.4427 0.011,1.7004 0.1132,3.426 0.271,5.0906 0.1578,1.6645 0.3696,3.2689 0.5935,4.7595 0.2239,1.4905 0.4583,2.8686 0.6832,4.0948 0.2249,1.2261 0.4403,2.3016 0.6601,3.1806 0.07,0.231 0.1405,0.4488 0.2121,0.6518 l -10e-5,0 z m -25.712,40.412 c 5.7252,-0.9453 12.32,-1.5953 19.383,-2.5298 3.2833,-0.3972 6.7504,-1.0073 10.321,-1.9455 3.5709,-0.9381 7.2454,-2.2082 10.971,-3.8682 1.299,-0.6494 2.556,-1.323 3.7714,-2.0124 1.8983,-1.0768 4.3591,-2.547 6.9984,-4.4408 2.6394,-1.8937 5.4517,-4.2147 8.0562,-6.8342 2.3024,-2.2052 4.582,-4.5262 6.7226,-6.7763 2.1406,-2.2502 4.1432,-4.4247 5.9411,-6.3562 1.5045,-1.6162 2.8808,-3.1248 4.1466,-4.5106 3.0563,-3.9221 5.6557,-7.7944 7.8828,-11.551 2.227,-3.7563 4.0817,-7.3979 5.631,-10.905 3.0988,-7.0145 4.9901,-13.479 6.0264,-19.526 0.9075,-5.1111 1.2782,-9.9636 1.2034,-14.733 -0.075,-4.7697 -0.5962,-9.459 -1.5354,-14.246 -1.1052,-5.6324 -2.516,-10.667 -4.6363,-16.047 -1.3084,-3.3126 -2.878,-6.7816 -4.8484,-10.585 -1.9703,-3.8038 -4.3411,-7.9433 -7.2829,-12.546 -2.9418,-4.603 -6.455,-9.67 -10.741,-15.264 -4.286,-5.594 -9.3472,-11.714 -15.399,-18.361 -5.3305,-5.8546 -10.229,-11.03 -14.71,-15.796 -9.2958,-9.93 -16.84,-18.222 -23.338,-26.279 -6.4977,-8.0576 -11.952,-15.874 -17.391,-24.54 -1.636,-2.6063 -3.2884,-5.5472 -4.937,-8.7032 -2.1397,-4.1013 -4.2868,-8.5814 -6.4339,-13.18 -2.1471,-4.5984 -4.3003,-9.315 -6.3873,-13.914 -1.8155,-4.0022 -3.7094,-7.9929 -5.6167,-11.79 -0.4548,-0.9439 -0.9399,-1.8912 -1.453,-2.8353 -1.0717,-1.9717 -2.3708,-3.8199 -3.4705,-5.1584 -1.0997,-1.3387 -1.9597,-2.1604 -2.0588,-2.0966 -0.092,0.059 0.086,0.4631 0.4443,1.1312 0.3579,0.6681 0.8904,1.5997 1.4762,2.7075 0.5858,1.108 1.222,2.3917 1.8168,3.767 0.5948,1.3753 1.1477,2.8417 1.6231,4.3235 0.7741,2.2925 1.4884,4.6843 2.1041,6.9609 0.6157,2.2767 1.1378,4.4394 1.589,6.2913 0.1696,0.6966 0.3312,1.3505 0.4849,1.9509 2.454,9.5833 5.0478,18.499 8.5174,27.199 4.0336,10.122 9.1875,19.882 15.663,29.83 6.476,9.948 14.278,20.085 23.484,31.009 2.0099,2.3855 4.0881,4.8098 6.2312,7.284 1.7064,1.9701 4.635,5.2337 7.9155,9.0083 3.2804,3.7746 6.9053,8.0705 10.09,11.966 6.7594,8.2692 12.132,15.796 16.47,22.571 4.3378,6.7752 7.645,12.797 10.221,18.169 1.9909,4.1608 3.524,7.9727 4.7053,11.513 1.1813,3.54 2.0115,6.8087 2.575,9.9222 0.5634,3.1136 0.8603,6.073 0.9475,9.022 0.087,2.9489 -0.035,5.8882 -0.3403,8.9782 -0.073,0.7396 -0.1548,1.4666 -0.2459,2.1862 -0.3085,2.5244 -0.747,4.9637 -1.3868,7.528 -0.6397,2.5642 -1.4797,5.2555 -2.6468,8.2632 -1.1671,3.0078 -2.6589,6.3364 -4.6833,10.11 -2.0244,3.7736 -4.5777,8.002 -7.9928,12.643 -0.4346,0.5362 -0.8851,1.0911 -1.3527,1.6645 -2.0632,2.5299 -4.282,5.2545 -6.5321,7.8599 -2.2501,2.6053 -4.5327,5.082 -6.6327,7.1882 -1.6254,1.681 -3.2006,3.0922 -4.5411,4.2123 -1.3405,1.1202 -2.4454,1.9534 -3.1546,2.511 -2.3935,1.8817 -4.8906,3.5756 -7.4965,5.063 -3.1877,1.7037 -6.2758,2.9993 -9.2883,4.0807 -3.0126,1.0815 -5.9495,1.948 -8.7934,2.7182 -5.3353,1.4952 -10.506,2.9701 -15.603,4.7045 -2.6762,0.9106 -4.7251,1.5974 -6.1529,2.1319 -1.4278,0.5345 -2.2381,0.9136 -2.4448,1.1557 -0.2066,0.2421 0.1895,0.3468 1.2002,0.3062 1.0106,-0.041 2.6373,-0.2237 4.9139,-0.5996 z m 29.158,-62.765 c 1.5628,2.9121 3.0759,5.6888 4.5932,8.3069 1.4037,2.9898 3.0072,5.5566 4.7166,7.7993 1.7093,2.2427 3.5313,4.1583 5.4814,5.714 1.9501,1.5556 4.0338,2.7459 6.2833,3.4686 2.2494,0.7226 4.6681,0.9705 7.2353,0.6645 0.6047,-0.072 1.2094,-0.1467 1.814,-0.2236 -0.3932,-2.1725 -0.8625,-4.2692 -1.373,-6.3138 -0.1713,-0.6858 -0.507,-1.6593 -0.9843,-2.8417 -0.8801,-2.5083 -2.3696,-5.847 -4.375,-9.3075 -2.0054,-3.4603 -4.528,-7.0353 -7.2516,-10.235 -3.4352,-4.0361 -6.5209,-7.1633 -9.2236,-9.8631 -2.7026,-2.6998 -5.0314,-4.9637 -7.0976,-7.0954 -1.9833,-2.0471 -3.7492,-3.9668 -5.4566,-5.95 -1.7073,-1.9831 -3.3567,-4.0283 -5.1376,-6.2856 -2.2366,-2.8349 -3.4914,-4.2407 -4.0413,-4.6444 -0.55,-0.4038 -0.4088,0.209 -0.025,1.5193 0.6194,2.1157 1.5218,4.5235 2.5542,7.0934 1.0324,2.57 2.1925,5.3033 3.3552,8.0793 1.5499,3.7342 3.1985,7.5243 4.7195,11.012 1.521,3.4871 2.9111,6.6773 4.2131,9.1036 z m -4.0922,-31.15 c 1.507,1.623 3.1267,3.2896 4.9582,5.1338 1.8315,1.8443 3.8761,3.8641 6.2037,6.2447 1.7481,1.7871 3.6668,3.7787 5.7564,6.088 2.0896,2.3092 4.3521,4.9345 6.7389,8.0384 3.6759,4.7803 6.2761,9.1959 8.1297,13.121 1.8536,3.9248 2.9667,7.3604 3.5985,10.357 0.3246,1.1889 0.5669,2.3017 0.7337,3.3558 0.187,1.1822 0.3016,1.7382 0.5279,1.3886 0.2263,-0.3496 0.5685,-1.6157 1.0759,-3.9104 0,-0.015 0.01,-0.031 0.011,-0.046 0.5999,-2.4853 1.0276,-5.1925 1.2484,-7.95 0.2209,-2.7575 0.2353,-5.5645 0.057,-8.2637 -0.3564,-5.3983 -1.4984,-10.342 -2.9328,-13.833 -1.1861,-2.8867 -2.4274,-5.3752 -3.9537,-7.8941 -1.76,-2.9055 -3.8955,-5.8638 -6.9217,-9.3297 -3.0262,-3.4659 -6.9465,-7.4431 -12.403,-12.098 -4.4536,-3.7993 -8.5026,-7.0485 -12.132,-10.021 -6.2364,-5.1325 -11.281,-9.3783 -15.454,-13.501 -4.1731,-4.123 -7.4781,-8.108 -10.347,-12.464 -0.5691,-0.8641 -1.1436,-1.7258 -1.7234,-2.5853 0.3625,1.2302 0.7147,2.4586 1.0562,3.6852 0.8031,2.8842 2.5251,7.1438 4.3782,11.435 1.8531,4.2915 3.8292,8.6244 5.4903,11.611 0.7785,1.3995 1.7244,2.926 2.7746,4.526 1.9108,2.8945 4.1843,5.9896 6.4723,8.9355 2.288,2.946 4.5875,5.7487 6.6574,7.9778 z m -2.6134,-33.507 c 0.952,0.9002 2.7838,2.514 5.0834,4.597 2.2997,2.0829 5.0645,4.6407 7.8999,7.3971 1.6592,1.6087 3.3448,3.281 4.9812,4.9498 3.6122,3.6835 7.3692,7.9347 10.456,11.867 3.0872,3.9324 5.5088,7.5329 6.7298,9.5347 1.2535,2.0551 2.4923,4.4506 3.6277,7.0772 2.0108,4.645 3.6548,10.049 4.5671,15.375 0.4562,2.6633 0.7354,5.302 0.8378,7.7844 0.1023,2.4824 0.028,4.808 -0.1907,6.8365 -0.2382,2.2074 -0.4655,4.1828 -0.5951,5.5815 -0.1297,1.3988 -0.1536,2.2197 0.01,2.1087 0.3703,-0.2508 1.0337,-1.4613 1.7855,-3.2844 0.7518,-1.823 1.5831,-4.2588 2.3053,-6.9327 0.7222,-2.6738 1.3329,-5.584 1.7433,-8.3394 0.4104,-2.7553 0.6233,-5.3542 0.6435,-7.4173 0.04,-4.0807 -0.2654,-7.8213 -0.9439,-11.494 -1.0019,-5.4825 -2.7745,-10.858 -5.7925,-16.836 -3.018,-5.9773 -7.2997,-12.557 -13.53,-20.067 -2.2264,-2.6832 -4.6984,-5.4876 -7.4573,-8.4127 -5.3088,-5.6286 -10.03,-10.162 -14.188,-14.043 -4.1583,-3.8808 -7.7578,-7.1028 -10.907,-9.9537 -3.1495,-2.8507 -5.8509,-5.3268 -8.2544,-7.637 -2.4036,-2.3102 -4.51,-4.4527 -6.4904,-6.5968 -3.5962,-3.8934 -7.239,-8.2394 -10.524,-12.523 -3.4845,-4.4932 -6.5628,-8.8635 -8.7013,-12.57 -1.66,-2.8768 -3.2353,-5.1558 -3.4565,-5.1004 -0.2213,0.055 1.3803,4.9607 3.3669,10.958 1.0749,3.2449 2.1844,6.3473 3.3519,9.3265 3.7678,9.8083 8.1251,18.053 13.59,25.666 2.7323,3.8061 5.7392,7.4572 9.068,11.096 3.3289,3.6392 6.9799,7.2652 10.984,11.052 z m 50.693,70.951 c 0.3535,-0.3082 0.9983,-1.5006 1.7426,-3.2443 0.7444,-1.7437 1.5816,-4.04 2.3365,-6.5309 0.7549,-2.4909 1.4257,-5.1749 1.9167,-7.673 0.4911,-2.4981 0.805,-4.8085 0.92,-6.5576 0.023,-0.3454 0.041,-0.7189 0.056,-1.1166 0.09,-2.2483 0.044,-5.2776 -0.172,-8.4147 -0.2156,-3.1371 -0.601,-6.3798 -1.068,-9.101 -0.7308,-4.2576 -1.5225,-7.7523 -2.6782,-11.37 -1.1557,-3.6179 -2.6792,-7.3639 -5.0494,-11.939 -1.3352,-2.5725 -2.9352,-5.4167 -4.9102,-8.6286 -1.975,-3.2118 -4.3248,-6.7918 -7.1816,-10.801 -2.8569,-4.0089 -6.2213,-8.4467 -10.246,-13.335 -4.0249,-4.8888 -8.7121,-10.227 -14.22,-16.008 -2.9942,-3.142 -6.0989,-6.3751 -9.0463,-9.4285 -2.9474,-3.0534 -5.7362,-5.9289 -8.0771,-8.3914 -1.5472,-1.6238 -2.8995,-3.0673 -3.9725,-4.2659 -8.1736,-9.1298 -15.104,-17.78 -21.044,-26.598 -5.94,-8.818 -10.889,-17.802 -15.27,-27.531 -1.0605,-2.3482 -2.0779,-4.7307 -3.0709,-7.1534 -2.0911,-5.1019 -3.9972,-8.969 -4.0166,-8.6961 -0.019,0.273 0.8266,3.8748 1.7309,8.0221 0.7477,3.4287 1.5092,6.7684 2.3259,10.032 3.1456,12.647 6.8027,23.872 11.513,34.206 4.7098,10.333 10.468,19.773 17.591,28.817 1.4021,1.7939 2.8567,3.5671 4.3642,5.325 3.8767,4.5208 9.3471,9.9872 16.189,16.786 3.421,3.3993 7.1823,7.1368 11.233,11.304 4.051,4.1677 8.3919,8.7647 12.95,13.924 4.3179,4.888 8.0917,9.8093 11.356,14.731 4.2193,6.3683 7.5559,12.79 10.015,19.211 2.4588,6.4206 4.0435,12.838 4.7962,19.176 0.6363,5.2487 0.6453,10.468 0.043,15.581 -0.3278,2.7823 -0.6679,5.2656 -0.8913,7.0212 -0.2234,1.7556 -0.3192,2.7832 -0.1639,2.6478 z" />
            </g>
          </g>
          <path
             id="path3904"
             d="m 1742.2,1169.8 c 0,0 6.2183,12.782 15.2,43.528 4.0319,13.802 5.3646,32.932 7.8935,45.257 3.1048,15.131 6.9613,22.108 6.9613,22.108"
             sodipodi:nodetypes="cssc"
             style="fill:#ffffff;stroke:#ffffff;stroke-width:5"
             inkscape:connector-curvature="0" />
          <path
             id="path4682"
             sodipodi:nodetypes="cc"
             style="fill:#ffffff;stroke:#ffffff;stroke-width:5"
             inkscape:connector-curvature="0"
             d="m 1715.8,1249 c 16.688,12.165 36.476,48.529 34.289,48.681" />
        </g>
      </g>
      <g
         id="g4694"
         transform="matrix(-1,0,0,-1,3494.5,2067.8)">
        <g
           id="g4696">
          <g
             id="g4698"
             transform="matrix(-1,0,0,-1,3494.5,1996.7)">
            <path
               id="path4700"
               d="m 1730.8,944.7 c 1.0208,1.3813 1.7054,2.6158 2.0179,3.7065 0.3124,1.0907 0.2542,2.037 -0.1805,2.8136 -0.4346,0.7767 -1.2452,1.3838 -2.4212,1.7718 -1.1759,0.388 -2.7179,0.5574 -4.5958,0.4294 -1.7366,-0.1102 -3.779,-0.4922 -6.0497,-1.2888 -1.3934,-0.4889 -2.7823,-1.0432 -4.1567,-1.6721 2.1212,-0.3755 4.1349,-0.918 6.0596,-1.5727 2.1906,-0.7453 3.5853,-1.4812 4.522,-2.1919 0.9367,-0.7108 1.4064,-1.4125 1.6507,-2.2427 0.2372,-0.8065 0.434,-1.3668 0.6447,-1.6759 0.246,-0.359 0.5108,-0.3808 0.8919,-0.06 0.381,0.32 0.8774,0.9823 1.6171,1.9834 z m -9.9303,-10.529 c 0.5903,2.1403 1.2243,4.0809 1.429,5.7983 0.2047,1.7173 -10e-4,3.2175 -0.8165,4.4468 -0.8153,1.2293 -2.2334,2.2007 -4.3686,2.6878 -1.0676,0.2436 -2.3138,0.3622 -3.7472,0.2934 -1.4333,-0.069 -3.0542,-0.3247 -4.8624,-0.8651 -1.7032,-0.5498 -3.5211,-1.3496 -5.3862,-2.4339 -2.6015,-1.5124 -5.063,-3.3111 -7.3259,-5.3089 2.3368,0.6412 4.6867,1.1064 6.9942,1.3662 2.7133,0.3056 4.9879,0.05 6.8329,-0.5551 1.8451,-0.6049 3.2662,-1.5552 4.3882,-2.6899 1.122,-1.1348 1.9491,-2.4533 2.6479,-3.8758 0.6987,-1.4226 1.2734,-2.9511 1.8681,-4.5751 0.3636,-0.993 0.7818,-1.9607 1.2433,-2.9023 -0.034,0.9857 -0.018,1.9602 0.072,2.9118 0.062,0.6512 0.1324,1.4455 0.2497,2.2478 0.1581,1.2312 0.525,2.5234 0.7817,3.454 z m -3.3431,-11.596 c -0.3087,0.8754 -0.7145,1.9376 -1.0932,2.9584 -0.3787,1.0208 -0.7284,1.999 -1.0045,2.6594 -0.3813,0.9115 -0.9192,1.8949 -1.557,2.8899 -0.6379,0.995 -1.3766,2.001 -2.1859,2.9291 -1.6188,1.8562 -3.5487,3.3961 -5.5106,3.7782 -1.0822,0.2108 -2.9179,0.141 -5.0265,-0.3117 -2.1086,-0.4528 -4.4772,-1.2986 -6.5319,-2.3405 -2.5438,-1.2323 -4.6477,-2.6618 -5.4286,-3.6259 -0.3223,-0.3979 -0.069,-0.829 0.6472,-1.2287 0.716,-0.3998 1.8942,-0.769 3.4154,-1.0754 2.3706,-0.4775 4.5877,-1.4781 6.6669,-2.8424 2.0792,-1.3641 4.0254,-3.0859 5.8686,-5.0532 1.8432,-1.9672 3.5882,-4.1771 5.2028,-6.6306 1.6146,-2.4536 3.1021,-5.1518 4.3042,-8.2239 0.8496,-1.5498 1.6813,-3.1209 2.4949,-4.7124 0.9565,-1.8711 1.9944,-3.683 3.0991,-5.4405 -0.1834,1.3534 -0.3269,2.7038 -0.4251,4.0502 -0.09,1.2409 -0.2949,2.7657 -0.516,4.4427 -0.011,1.7004 -0.1132,3.426 -0.271,5.0906 -0.1578,1.6645 -0.3696,3.2689 -0.5935,4.7595 -0.2239,1.4905 -0.4583,2.8686 -0.6832,4.0948 -0.2249,1.2261 -0.4403,2.3016 -0.6601,3.1806 -0.07,0.231 -0.1405,0.4488 -0.2121,0.6518 l 10e-5,0 z m 25.712,40.412 c -5.7252,-0.9453 -12.32,-1.5953 -19.383,-2.5298 -3.2833,-0.3972 -6.7504,-1.0073 -10.321,-1.9455 -3.5709,-0.9381 -7.2454,-2.2082 -10.971,-3.8682 -1.299,-0.6494 -2.556,-1.323 -3.7714,-2.0124 -1.8983,-1.0768 -4.3591,-2.547 -6.9984,-4.4408 -2.6394,-1.8937 -5.4517,-4.2147 -8.0562,-6.8342 -2.3024,-2.2052 -4.582,-4.5262 -6.7226,-6.7763 -2.1406,-2.2502 -4.1432,-4.4247 -5.9411,-6.3562 -1.5045,-1.6162 -2.8808,-3.1248 -4.1466,-4.5106 -3.0563,-3.9221 -5.6557,-7.7944 -7.8828,-11.551 -2.227,-3.7563 -4.0817,-7.3979 -5.631,-10.905 -3.0988,-7.0145 -4.9901,-13.479 -6.0264,-19.526 -0.9075,-5.1111 -1.2782,-9.9636 -1.2034,-14.733 0.075,-4.7697 0.5962,-9.459 1.5354,-14.246 1.1052,-5.6324 2.516,-10.667 4.6363,-16.047 1.3084,-3.3126 2.878,-6.7816 4.8484,-10.585 1.9703,-3.8038 4.3411,-7.9433 7.2829,-12.546 2.9418,-4.603 6.455,-9.67 10.741,-15.264 4.286,-5.594 9.3472,-11.714 15.399,-18.361 5.3305,-5.8546 10.229,-11.03 14.71,-15.796 9.2958,-9.93 16.84,-18.222 23.338,-26.279 6.4977,-8.0576 11.952,-15.874 17.391,-24.54 1.636,-2.6063 3.2884,-5.5472 4.937,-8.7032 2.1397,-4.1013 4.2868,-8.5814 6.4339,-13.18 2.1471,-4.5984 4.3003,-9.315 6.3873,-13.914 1.8155,-4.0022 3.7094,-7.9929 5.6167,-11.79 0.4548,-0.9439 0.9399,-1.8912 1.453,-2.8353 1.0717,-1.9717 2.3708,-3.8199 3.4705,-5.1584 1.0997,-1.3387 1.9597,-2.1604 2.0588,-2.0966 0.092,0.059 -0.086,0.4631 -0.4443,1.1312 -0.3579,0.6681 -0.8904,1.5997 -1.4762,2.7075 -0.5858,1.108 -1.222,2.3917 -1.8168,3.767 -0.5948,1.3753 -1.1477,2.8417 -1.6231,4.3235 -0.7741,2.2925 -1.4884,4.6843 -2.1041,6.9609 -0.6157,2.2767 -1.1378,4.4394 -1.589,6.2913 -0.1696,0.6966 -0.3312,1.3505 -0.4849,1.9509 -2.454,9.5833 -5.0478,18.499 -8.5174,27.199 -4.0336,10.122 -9.1875,19.882 -15.663,29.83 -6.476,9.948 -14.278,20.085 -23.484,31.009 -2.0099,2.3855 -4.0881,4.8098 -6.2312,7.284 -1.7064,1.9701 -4.635,5.2337 -7.9155,9.0083 -3.2804,3.7746 -6.9053,8.0705 -10.09,11.966 -6.7594,8.2692 -12.132,15.796 -16.47,22.571 -4.3378,6.7752 -7.645,12.797 -10.221,18.169 -1.9909,4.1608 -3.524,7.9727 -4.7053,11.513 -1.1813,3.54 -2.0115,6.8087 -2.575,9.9222 -0.5634,3.1136 -0.8603,6.073 -0.9475,9.022 -0.087,2.9489 0.035,5.8882 0.3403,8.9782 0.073,0.7396 0.1548,1.4666 0.2459,2.1862 0.3085,2.5244 0.747,4.9637 1.3868,7.528 0.6397,2.5642 1.4797,5.2555 2.6468,8.2632 1.1671,3.0078 2.6589,6.3364 4.6833,10.11 2.0244,3.7736 4.5777,8.002 7.9928,12.643 0.4346,0.5362 0.8851,1.0911 1.3527,1.6645 2.0632,2.5299 4.282,5.2545 6.5321,7.8599 2.2501,2.6053 4.5327,5.082 6.6327,7.1882 1.6254,1.681 3.2006,3.0922 4.5411,4.2123 1.3405,1.1202 2.4454,1.9534 3.1546,2.511 2.3935,1.8817 4.8906,3.5756 7.4965,5.063 3.1877,1.7037 6.2758,2.9993 9.2883,4.0807 3.0126,1.0815 5.9495,1.948 8.7934,2.7182 5.3353,1.4952 10.506,2.9701 15.603,4.7045 2.6762,0.9106 4.7251,1.5974 6.1529,2.1319 1.4278,0.5345 2.2381,0.9136 2.4448,1.1557 0.2066,0.2421 -0.1895,0.3468 -1.2002,0.3062 -1.0106,-0.041 -2.6373,-0.2237 -4.9139,-0.5996 z m -29.158,-62.765 c -1.5628,2.9121 -3.0759,5.6888 -4.5932,8.3069 -1.4037,2.9898 -3.0072,5.5566 -4.7166,7.7993 -1.7093,2.2427 -3.5313,4.1583 -5.4814,5.714 -1.9501,1.5556 -4.0338,2.7459 -6.2833,3.4686 -2.2494,0.7226 -4.6681,0.9705 -7.2353,0.6645 -0.6047,-0.072 -1.2094,-0.1467 -1.814,-0.2236 0.3932,-2.1725 0.8625,-4.2692 1.373,-6.3138 0.1713,-0.6858 0.507,-1.6593 0.9843,-2.8417 0.8801,-2.5083 2.3696,-5.847 4.375,-9.3075 2.0054,-3.4603 4.528,-7.0353 7.2516,-10.235 3.4352,-4.0361 6.5209,-7.1633 9.2236,-9.8631 2.7026,-2.6998 5.0314,-4.9637 7.0976,-7.0954 1.9833,-2.0471 3.7492,-3.9668 5.4566,-5.95 1.7073,-1.9831 3.3567,-4.0283 5.1376,-6.2856 2.2366,-2.8349 3.4914,-4.2407 4.0413,-4.6444 0.55,-0.4038 0.4088,0.209 0.025,1.5193 -0.6194,2.1157 -1.5218,4.5235 -2.5542,7.0934 -1.0324,2.57 -2.1925,5.3033 -3.3552,8.0793 -1.5499,3.7342 -3.1985,7.5243 -4.7195,11.012 -1.521,3.4871 -2.9111,6.6773 -4.2131,9.1036 z m 4.0922,-31.15 c -1.507,1.623 -3.1267,3.2896 -4.9582,5.1338 -1.8315,1.8443 -3.8761,3.8641 -6.2037,6.2447 -1.7481,1.7871 -3.6668,3.7787 -5.7564,6.088 -2.0896,2.3092 -4.3521,4.9345 -6.7389,8.0384 -3.6759,4.7803 -6.2761,9.1959 -8.1297,13.121 -1.8536,3.9248 -2.9667,7.3604 -3.5985,10.357 -0.3246,1.1889 -0.5669,2.3017 -0.7337,3.3558 -0.187,1.1822 -0.3016,1.7382 -0.5279,1.3886 -0.2263,-0.3496 -0.5685,-1.6157 -1.0759,-3.9104 0,-0.015 -0.01,-0.031 -0.011,-0.046 -0.5999,-2.4853 -1.0276,-5.1925 -1.2484,-7.95 -0.2209,-2.7575 -0.2353,-5.5645 -0.057,-8.2637 0.3564,-5.3983 1.4984,-10.342 2.9328,-13.833 1.1861,-2.8867 2.4274,-5.3752 3.9537,-7.8941 1.76,-2.9055 3.8955,-5.8638 6.9217,-9.3297 3.0262,-3.4659 6.9465,-7.4431 12.403,-12.098 4.4536,-3.7993 8.5026,-7.0485 12.132,-10.021 6.2364,-5.1325 11.281,-9.3783 15.454,-13.501 4.1731,-4.123 7.4781,-8.108 10.347,-12.464 0.5691,-0.8641 1.1436,-1.7258 1.7234,-2.5853 -0.3625,1.2302 -0.7147,2.4586 -1.0562,3.6852 -0.8031,2.8842 -2.5251,7.1438 -4.3782,11.435 -1.8531,4.2915 -3.8292,8.6244 -5.4903,11.611 -0.7785,1.3995 -1.7244,2.926 -2.7746,4.526 -1.9108,2.8945 -4.1843,5.9896 -6.4723,8.9355 -2.288,2.946 -4.5875,5.7487 -6.6574,7.9778 z m 2.6134,-33.507 c -0.952,0.9002 -2.7838,2.514 -5.0834,4.597 -2.2997,2.0829 -5.0645,4.6407 -7.8999,7.3971 -1.6592,1.6087 -3.3448,3.281 -4.9812,4.9498 -3.6122,3.6835 -7.3692,7.9347 -10.456,11.867 -3.0872,3.9324 -5.5088,7.5329 -6.7298,9.5347 -1.2535,2.0551 -2.4923,4.4506 -3.6277,7.0772 -2.0108,4.645 -3.6548,10.049 -4.5671,15.375 -0.4562,2.6633 -0.7354,5.302 -0.8378,7.7844 -0.1023,2.4824 -0.028,4.808 0.1907,6.8365 0.2382,2.2074 0.4655,4.1828 0.5951,5.5815 0.1297,1.3988 0.1536,2.2197 -0.01,2.1087 -0.3703,-0.2508 -1.0337,-1.4613 -1.7855,-3.2844 -0.7518,-1.823 -1.5831,-4.2588 -2.3053,-6.9327 -0.7222,-2.6738 -1.3329,-5.584 -1.7433,-8.3394 -0.4104,-2.7553 -0.6233,-5.3542 -0.6435,-7.4173 -0.04,-4.0807 0.2654,-7.8213 0.9439,-11.494 1.0019,-5.4825 2.7745,-10.858 5.7925,-16.836 3.018,-5.9773 7.2997,-12.557 13.53,-20.067 2.2264,-2.6832 4.6984,-5.4876 7.4573,-8.4127 5.3088,-5.6286 10.03,-10.162 14.188,-14.043 4.1583,-3.8808 7.7578,-7.1028 10.907,-9.9537 3.1495,-2.8507 5.8509,-5.3268 8.2544,-7.637 2.4036,-2.3102 4.51,-4.4527 6.4904,-6.5968 3.5962,-3.8934 7.239,-8.2394 10.524,-12.523 3.4845,-4.4932 6.5628,-8.8635 8.7013,-12.57 1.66,-2.8768 3.2353,-5.1558 3.4565,-5.1004 0.2213,0.055 -1.3803,4.9607 -3.3669,10.958 -1.0749,3.2449 -2.1844,6.3473 -3.3519,9.3265 -3.7678,9.8083 -8.1251,18.053 -13.59,25.666 -2.7323,3.8061 -5.7392,7.4572 -9.068,11.096 -3.3289,3.6392 -6.9799,7.2652 -10.984,11.052 z m -50.693,70.951 c -0.3535,-0.3082 -0.9983,-1.5006 -1.7426,-3.2443 -0.7444,-1.7437 -1.5816,-4.04 -2.3365,-6.5309 -0.7549,-2.4909 -1.4257,-5.1749 -1.9167,-7.673 -0.4911,-2.4981 -0.805,-4.8085 -0.92,-6.5576 -0.023,-0.3454 -0.041,-0.7189 -0.056,-1.1166 -0.09,-2.2483 -0.044,-5.2776 0.172,-8.4147 0.2156,-3.1371 0.601,-6.3798 1.068,-9.101 0.7308,-4.2576 1.5225,-7.7523 2.6782,-11.37 1.1557,-3.6179 2.6792,-7.3639 5.0494,-11.939 1.3352,-2.5725 2.9352,-5.4167 4.9102,-8.6286 1.975,-3.2118 4.3248,-6.7918 7.1816,-10.801 2.8569,-4.0089 6.2213,-8.4467 10.246,-13.335 4.0249,-4.8888 8.7121,-10.227 14.22,-16.008 2.9942,-3.142 6.0989,-6.3751 9.0463,-9.4285 2.9474,-3.0534 5.7362,-5.9289 8.0771,-8.3914 1.5472,-1.6238 2.8995,-3.0673 3.9725,-4.2659 8.1736,-9.1298 15.104,-17.78 21.044,-26.598 5.94,-8.818 10.889,-17.802 15.27,-27.531 1.0605,-2.3482 2.0779,-4.7307 3.0709,-7.1534 2.0911,-5.1019 3.9972,-8.969 4.0166,-8.6961 0.019,0.273 -0.8266,3.8748 -1.7309,8.0221 -0.7477,3.4287 -1.5092,6.7684 -2.3259,10.032 -3.1456,12.647 -6.8027,23.872 -11.513,34.206 -4.7098,10.333 -10.468,19.773 -17.591,28.817 -1.4021,1.7939 -2.8567,3.5671 -4.3642,5.325 -3.8767,4.5208 -9.3471,9.9872 -16.189,16.786 -3.421,3.3993 -7.1823,7.1368 -11.233,11.304 -4.051,4.1677 -8.3919,8.7647 -12.95,13.924 -4.3179,4.888 -8.0917,9.8093 -11.356,14.731 -4.2193,6.3683 -7.5559,12.79 -10.015,19.211 -2.4588,6.4206 -4.0435,12.838 -4.7962,19.176 -0.6363,5.2487 -0.6453,10.468 -0.043,15.581 0.3278,2.7823 0.6679,5.2656 0.8913,7.0212 0.2234,1.7556 0.3192,2.7832 0.1639,2.6478 z"
               style="fill:#000000"
               inkscape:connector-curvature="0" />
            <g
               id="g4702"
               transform="translate(-66.022,33.471)">
              <path
                 id="path4704"
                 d="m 1783.3,624.68 c 0,0 5.347,40.653 13.999,87.904 5.7706,31.513 11.285,67.686 24.001,90.354 31.782,56.656 29.019,89.82 18.655,100.87 -10.364,11.055 -26.255,25.564 -26.255,25.564 0,0 44.219,2.7637 76.692,-42.837 32.473,-45.6007 33.284,-75.808 -19.346,-129.89 -52.475,-53.927 -87.747,-131.97 -87.747,-131.97 z"
                 sodipodi:nodetypes="cssscssc"
                 style="fill:#ffffff"
                 inkscape:connector-curvature="0" />
              <path
                 id="path4706"
                 d="m 1829.7,911.54 c -1.0208,1.3813 -1.7054,2.6158 -2.0179,3.7065 -0.3124,1.0907 -0.2542,2.037 0.1805,2.8136 0.4346,0.7767 1.2452,1.3838 2.4212,1.7718 1.1759,0.388 2.7179,0.5574 4.5958,0.4294 1.7366,-0.1102 3.779,-0.4922 6.0497,-1.2888 1.3934,-0.4889 2.7823,-1.0432 4.1567,-1.6721 -2.1212,-0.3755 -4.1349,-0.918 -6.0596,-1.5727 -2.1906,-0.7453 -3.5853,-1.4812 -4.522,-2.1919 -0.9367,-0.7108 -1.4064,-1.4125 -1.6507,-2.2427 -0.2372,-0.8065 -0.434,-1.3668 -0.6447,-1.6759 -0.246,-0.359 -0.5108,-0.3808 -0.8919,-0.06 -0.381,0.32 -0.8774,0.9823 -1.6171,1.9834 z m 9.9303,-10.529 c -0.5903,2.1403 -1.2243,4.0809 -1.429,5.7983 -0.2047,1.7173 10e-4,3.2175 0.8165,4.4468 0.8153,1.2293 2.2334,2.2007 4.3686,2.6878 1.0676,0.2436 2.3138,0.3622 3.7472,0.2934 1.4333,-0.069 3.0542,-0.3247 4.8624,-0.8651 1.7032,-0.5498 3.5211,-1.3496 5.3862,-2.4339 2.6015,-1.5124 5.063,-3.3111 7.3259,-5.3089 -2.3368,0.6412 -4.6867,1.1064 -6.9942,1.3662 -2.7133,0.3056 -4.9879,0.05 -6.8329,-0.5551 -1.8451,-0.6049 -3.2662,-1.5552 -4.3882,-2.6899 -1.122,-1.1348 -1.9491,-2.4533 -2.6479,-3.8758 -0.6987,-1.4226 -1.2734,-2.9511 -1.8681,-4.5751 -0.3636,-0.993 -0.7818,-1.9607 -1.2433,-2.9023 0.034,0.9857 0.018,1.9602 -0.072,2.9118 -0.062,0.6512 -0.1324,1.4455 -0.2497,2.2478 -0.1581,1.2312 -0.525,2.5234 -0.7817,3.454 z m 3.3431,-11.596 c 0.3087,0.8754 0.7145,1.9376 1.0932,2.9584 0.3787,1.0208 0.7284,1.999 1.0045,2.6594 0.3813,0.9115 0.9192,1.8949 1.557,2.8899 0.6379,0.995 1.3766,2.001 2.1859,2.9291 1.6188,1.8562 3.5487,3.3961 5.5106,3.7782 1.0822,0.2108 2.9179,0.141 5.0265,-0.3117 2.1086,-0.4528 4.4772,-1.2986 6.5319,-2.3405 2.5438,-1.2323 4.6477,-2.6618 5.4286,-3.6259 0.3223,-0.3979 0.069,-0.829 -0.6472,-1.2287 -0.716,-0.3998 -1.8942,-0.769 -3.4154,-1.0754 -2.3706,-0.4775 -4.5877,-1.4781 -6.6669,-2.8424 -2.0792,-1.3641 -4.0254,-3.0859 -5.8686,-5.0532 -1.8432,-1.9672 -3.5882,-4.1771 -5.2028,-6.6306 -1.6146,-2.4536 -3.1021,-5.1518 -4.3042,-8.2239 -0.8496,-1.5498 -1.6813,-3.1209 -2.4949,-4.7124 -0.9565,-1.8711 -1.9944,-3.683 -3.0991,-5.4405 0.1834,1.3534 0.3269,2.7038 0.4251,4.0502 0.09,1.2409 0.2949,2.7657 0.516,4.4427 0.011,1.7004 0.1132,3.426 0.271,5.0906 0.1578,1.6645 0.3696,3.2689 0.5935,4.7595 0.2239,1.4905 0.4583,2.8686 0.6832,4.0948 0.2249,1.2261 0.4403,2.3016 0.6601,3.1806 0.07,0.231 0.1405,0.4488 0.2121,0.6518 l -10e-5,0 z m -25.712,40.412 c 5.7252,-0.9453 12.32,-1.5953 19.383,-2.5298 3.2833,-0.3972 6.7504,-1.0073 10.321,-1.9455 3.5709,-0.9381 7.2454,-2.2082 10.971,-3.8682 1.299,-0.6494 2.556,-1.323 3.7714,-2.0124 1.8983,-1.0768 4.3591,-2.547 6.9984,-4.4408 2.6394,-1.8937 5.4517,-4.2147 8.0562,-6.8342 2.3024,-2.2052 4.582,-4.5262 6.7226,-6.7763 2.1406,-2.2502 4.1432,-4.4247 5.9411,-6.3562 1.5045,-1.6162 2.8808,-3.1248 4.1466,-4.5106 3.0563,-3.9221 5.6557,-7.7944 7.8828,-11.551 2.227,-3.7563 4.0817,-7.3979 5.631,-10.905 3.0988,-7.0145 4.9901,-13.479 6.0264,-19.526 0.9075,-5.1111 1.2782,-9.9636 1.2034,-14.733 -0.075,-4.7697 -0.5962,-9.459 -1.5354,-14.246 -1.1052,-5.6324 -2.516,-10.667 -4.6363,-16.047 -1.3084,-3.3126 -2.878,-6.7816 -4.8484,-10.585 -1.9703,-3.8038 -4.3411,-7.9433 -7.2829,-12.546 -2.9418,-4.603 -6.455,-9.67 -10.741,-15.264 -4.286,-5.594 -9.3472,-11.714 -15.399,-18.361 -5.3305,-5.8546 -10.229,-11.03 -14.71,-15.796 -9.2958,-9.93 -16.84,-18.222 -23.338,-26.279 -6.4977,-8.0576 -11.952,-15.874 -17.391,-24.54 -1.636,-2.6063 -3.2884,-5.5472 -4.937,-8.7032 -2.1397,-4.1013 -4.2868,-8.5814 -6.4339,-13.18 -2.1471,-4.5984 -4.3003,-9.315 -6.3873,-13.914 -1.8155,-4.0022 -3.7094,-7.9929 -5.6167,-11.79 -0.4548,-0.9439 -0.9399,-1.8912 -1.453,-2.8353 -1.0717,-1.9717 -2.3708,-3.8199 -3.4705,-5.1584 -1.0997,-1.3387 -1.9597,-2.1604 -2.0588,-2.0966 -0.092,0.059 0.086,0.4631 0.4443,1.1312 0.3579,0.6681 0.8904,1.5997 1.4762,2.7075 0.5858,1.108 1.222,2.3917 1.8168,3.767 0.5948,1.3753 1.1477,2.8417 1.6231,4.3235 0.7741,2.2925 1.4884,4.6843 2.1041,6.9609 0.6157,2.2767 1.1378,4.4394 1.589,6.2913 0.1696,0.6966 0.3312,1.3505 0.4849,1.9509 2.454,9.5833 5.0478,18.499 8.5174,27.199 4.0336,10.122 9.1875,19.882 15.663,29.83 6.476,9.948 14.278,20.085 23.484,31.009 2.0099,2.3855 4.0881,4.8098 6.2312,7.284 1.7064,1.9701 4.635,5.2337 7.9155,9.0083 3.2804,3.7746 6.9053,8.0705 10.09,11.966 6.7594,8.2692 12.132,15.796 16.47,22.571 4.3378,6.7752 7.645,12.797 10.221,18.169 1.9909,4.1608 3.524,7.9727 4.7053,11.513 1.1813,3.54 2.0115,6.8087 2.575,9.9222 0.5634,3.1136 0.8603,6.073 0.9475,9.022 0.087,2.9489 -0.035,5.8882 -0.3403,8.9782 -0.073,0.7396 -0.1548,1.4666 -0.2459,2.1862 -0.3085,2.5244 -0.747,4.9637 -1.3868,7.528 -0.6397,2.5642 -1.4797,5.2555 -2.6468,8.2632 -1.1671,3.0078 -2.6589,6.3364 -4.6833,10.11 -2.0244,3.7736 -4.5777,8.002 -7.9928,12.643 -0.4346,0.5362 -0.8851,1.0911 -1.3527,1.6645 -2.0632,2.5299 -4.282,5.2545 -6.5321,7.8599 -2.2501,2.6053 -4.5327,5.082 -6.6327,7.1882 -1.6254,1.681 -3.2006,3.0922 -4.5411,4.2123 -1.3405,1.1202 -2.4454,1.9534 -3.1546,2.511 -2.3935,1.8817 -4.8906,3.5756 -7.4965,5.063 -3.1877,1.7037 -6.2758,2.9993 -9.2883,4.0807 -3.0126,1.0815 -5.9495,1.948 -8.7934,2.7182 -5.3353,1.4952 -10.506,2.9701 -15.603,4.7045 -2.6762,0.9106 -4.7251,1.5974 -6.1529,2.1319 -1.4278,0.5345 -2.2381,0.9136 -2.4448,1.1557 -0.2066,0.2421 0.1895,0.3468 1.2002,0.3062 1.0106,-0.041 2.6373,-0.2237 4.9139,-0.5996 z m 29.158,-62.765 c 1.5628,2.9121 3.0759,5.6888 4.5932,8.3069 1.4037,2.9898 3.0072,5.5566 4.7166,7.7993 1.7093,2.2427 3.5313,4.1583 5.4814,5.714 1.9501,1.5556 4.0338,2.7459 6.2833,3.4686 2.2494,0.7226 4.6681,0.9705 7.2353,0.6645 0.6047,-0.072 1.2094,-0.1467 1.814,-0.2236 -0.3932,-2.1725 -0.8625,-4.2692 -1.373,-6.3138 -0.1713,-0.6858 -0.507,-1.6593 -0.9843,-2.8417 -0.8801,-2.5083 -2.3696,-5.847 -4.375,-9.3075 -2.0054,-3.4603 -4.528,-7.0353 -7.2516,-10.235 -3.4352,-4.0361 -6.5209,-7.1633 -9.2236,-9.8631 -2.7026,-2.6998 -5.0314,-4.9637 -7.0976,-7.0954 -1.9833,-2.0471 -3.7492,-3.9668 -5.4566,-5.95 -1.7073,-1.9831 -3.3567,-4.0283 -5.1376,-6.2856 -2.2366,-2.8349 -3.4914,-4.2407 -4.0413,-4.6444 -0.55,-0.4038 -0.4088,0.209 -0.025,1.5193 0.6194,2.1157 1.5218,4.5235 2.5542,7.0934 1.0324,2.57 2.1925,5.3033 3.3552,8.0793 1.5499,3.7342 3.1985,7.5243 4.7195,11.012 1.521,3.4871 2.9111,6.6773 4.2131,9.1036 z m -4.0922,-31.15 c 1.507,1.623 3.1267,3.2896 4.9582,5.1338 1.8315,1.8443 3.8761,3.8641 6.2037,6.2447 1.7481,1.7871 3.6668,3.7787 5.7564,6.088 2.0896,2.3092 4.3521,4.9345 6.7389,8.0384 3.6759,4.7803 6.2761,9.1959 8.1297,13.121 1.8536,3.9248 2.9667,7.3604 3.5985,10.357 0.3246,1.1889 0.5669,2.3017 0.7337,3.3558 0.187,1.1822 0.3016,1.7382 0.5279,1.3886 0.2263,-0.3496 0.5685,-1.6157 1.0759,-3.9104 0,-0.015 0.01,-0.031 0.011,-0.046 0.5999,-2.4853 1.0276,-5.1925 1.2484,-7.95 0.2209,-2.7575 0.2353,-5.5645 0.057,-8.2637 -0.3564,-5.3983 -1.4984,-10.342 -2.9328,-13.833 -1.1861,-2.8867 -2.4274,-5.3752 -3.9537,-7.8941 -1.76,-2.9055 -3.8955,-5.8638 -6.9217,-9.3297 -3.0262,-3.4659 -6.9465,-7.4431 -12.403,-12.098 -4.4536,-3.7993 -8.5026,-7.0485 -12.132,-10.021 -6.2364,-5.1325 -11.281,-9.3783 -15.454,-13.501 -4.1731,-4.123 -7.4781,-8.108 -10.347,-12.464 -0.5691,-0.8641 -1.1436,-1.7258 -1.7234,-2.5853 0.3625,1.2302 0.7147,2.4586 1.0562,3.6852 0.8031,2.8842 2.5251,7.1438 4.3782,11.435 1.8531,4.2915 3.8292,8.6244 5.4903,11.611 0.7785,1.3995 1.7244,2.926 2.7746,4.526 1.9108,2.8945 4.1843,5.9896 6.4723,8.9355 2.288,2.946 4.5875,5.7487 6.6574,7.9778 z m -2.6134,-33.507 c 0.952,0.9002 2.7838,2.514 5.0834,4.597 2.2997,2.0829 5.0645,4.6407 7.8999,7.3971 1.6592,1.6087 3.3448,3.281 4.9812,4.9498 3.6122,3.6835 7.3692,7.9347 10.456,11.867 3.0872,3.9324 5.5088,7.5329 6.7298,9.5347 1.2535,2.0551 2.4923,4.4506 3.6277,7.0772 2.0108,4.645 3.6548,10.049 4.5671,15.375 0.4562,2.6633 0.7354,5.302 0.8378,7.7844 0.1023,2.4824 0.028,4.808 -0.1907,6.8365 -0.2382,2.2074 -0.4655,4.1828 -0.5951,5.5815 -0.1297,1.3988 -0.1536,2.2197 0.01,2.1087 0.3703,-0.2508 1.0337,-1.4613 1.7855,-3.2844 0.7518,-1.823 1.5831,-4.2588 2.3053,-6.9327 0.7222,-2.6738 1.3329,-5.584 1.7433,-8.3394 0.4104,-2.7553 0.6233,-5.3542 0.6435,-7.4173 0.04,-4.0807 -0.2654,-7.8213 -0.9439,-11.494 -1.0019,-5.4825 -2.7745,-10.858 -5.7925,-16.836 -3.018,-5.9773 -7.2997,-12.557 -13.53,-20.067 -2.2264,-2.6832 -4.6984,-5.4876 -7.4573,-8.4127 -5.3088,-5.6286 -10.03,-10.162 -14.188,-14.043 -4.1583,-3.8808 -7.7578,-7.1028 -10.907,-9.9537 -3.1495,-2.8507 -5.8509,-5.3268 -8.2544,-7.637 -2.4036,-2.3102 -4.51,-4.4527 -6.4904,-6.5968 -3.5962,-3.8934 -7.239,-8.2394 -10.524,-12.523 -3.4845,-4.4932 -6.5628,-8.8635 -8.7013,-12.57 -1.66,-2.8768 -3.2353,-5.1558 -3.4565,-5.1004 -0.2213,0.055 1.3803,4.9607 3.3669,10.958 1.0749,3.2449 2.1844,6.3473 3.3519,9.3265 3.7678,9.8083 8.1251,18.053 13.59,25.666 2.7323,3.8061 5.7392,7.4572 9.068,11.096 3.3289,3.6392 6.9799,7.2652 10.984,11.052 z m 50.693,70.951 c 0.3535,-0.3082 0.9983,-1.5006 1.7426,-3.2443 0.7444,-1.7437 1.5816,-4.04 2.3365,-6.5309 0.7549,-2.4909 1.4257,-5.1749 1.9167,-7.673 0.4911,-2.4981 0.805,-4.8085 0.92,-6.5576 0.023,-0.3454 0.041,-0.7189 0.056,-1.1166 0.09,-2.2483 0.044,-5.2776 -0.172,-8.4147 -0.2156,-3.1371 -0.601,-6.3798 -1.068,-9.101 -0.7308,-4.2576 -1.5225,-7.7523 -2.6782,-11.37 -1.1557,-3.6179 -2.6792,-7.3639 -5.0494,-11.939 -1.3352,-2.5725 -2.9352,-5.4167 -4.9102,-8.6286 -1.975,-3.2118 -4.3248,-6.7918 -7.1816,-10.801 -2.8569,-4.0089 -6.2213,-8.4467 -10.246,-13.335 -4.0249,-4.8888 -8.7121,-10.227 -14.22,-16.008 -2.9942,-3.142 -6.0989,-6.3751 -9.0463,-9.4285 -2.9474,-3.0534 -5.7362,-5.9289 -8.0771,-8.3914 -1.5472,-1.6238 -2.8995,-3.0673 -3.9725,-4.2659 -8.1736,-9.1298 -15.104,-17.78 -21.044,-26.598 -5.94,-8.818 -10.889,-17.802 -15.27,-27.531 -1.0605,-2.3482 -2.0779,-4.7307 -3.0709,-7.1534 -2.0911,-5.1019 -3.9972,-8.969 -4.0166,-8.6961 -0.019,0.273 0.8266,3.8748 1.7309,8.0221 0.7477,3.4287 1.5092,6.7684 2.3259,10.032 3.1456,12.647 6.8027,23.872 11.513,34.206 4.7098,10.333 10.468,19.773 17.591,28.817 1.4021,1.7939 2.8567,3.5671 4.3642,5.325 3.8767,4.5208 9.3471,9.9872 16.189,16.786 3.421,3.3993 7.1823,7.1368 11.233,11.304 4.051,4.1677 8.3919,8.7647 12.95,13.924 4.3179,4.888 8.0917,9.8093 11.356,14.731 4.2193,6.3683 7.5559,12.79 10.015,19.211 2.4588,6.4206 4.0435,12.838 4.7962,19.176 0.6363,5.2487 0.6453,10.468 0.043,15.581 -0.3278,2.7823 -0.6679,5.2656 -0.8913,7.0212 -0.2234,1.7556 -0.3192,2.7832 -0.1639,2.6478 z"
                 style="fill:#000000"
                 inkscape:connector-curvature="0" />
            </g>
          </g>
          <path
             id="path4708"
             sodipodi:nodetypes="cssc"
             style="fill:#ffffff;stroke:#ffffff;stroke-width:5"
             inkscape:connector-curvature="0"
             d="m 1742.2,1169.8 c 0,0 6.2183,12.782 15.2,43.528 4.0319,13.802 5.3646,32.932 7.8935,45.257 3.1048,15.131 6.9613,22.108 6.9613,22.108" />
          <path
             id="path4710"
             d="m 1715.8,1249 c 16.688,12.165 36.476,48.529 34.289,48.681"
             sodipodi:nodetypes="cc"
             style="fill:#ffffff;stroke:#ffffff;stroke-width:5"
             inkscape:connector-curvature="0" />
        </g>
      </g>
      <g
         id="g4712"
         transform="matrix(1,0,0,-1,-9e-6,2067.8)">
        <g
           id="g4714">
          <g
             id="g4716"
             transform="matrix(-1,0,0,-1,3494.5,1996.7)">
            <path
               id="path4718"
               style="fill:#000000"
               inkscape:connector-curvature="0"
               d="m 1730.8,944.7 c 1.0208,1.3813 1.7054,2.6158 2.0179,3.7065 0.3124,1.0907 0.2542,2.037 -0.1805,2.8136 -0.4346,0.7767 -1.2452,1.3838 -2.4212,1.7718 -1.1759,0.388 -2.7179,0.5574 -4.5958,0.4294 -1.7366,-0.1102 -3.779,-0.4922 -6.0497,-1.2888 -1.3934,-0.4889 -2.7823,-1.0432 -4.1567,-1.6721 2.1212,-0.3755 4.1349,-0.918 6.0596,-1.5727 2.1906,-0.7453 3.5853,-1.4812 4.522,-2.1919 0.9367,-0.7108 1.4064,-1.4125 1.6507,-2.2427 0.2372,-0.8065 0.434,-1.3668 0.6447,-1.6759 0.246,-0.359 0.5108,-0.3808 0.8919,-0.06 0.381,0.32 0.8774,0.9823 1.6171,1.9834 z m -9.9303,-10.529 c 0.5903,2.1403 1.2243,4.0809 1.429,5.7983 0.2047,1.7173 -10e-4,3.2175 -0.8165,4.4468 -0.8153,1.2293 -2.2334,2.2007 -4.3686,2.6878 -1.0676,0.2436 -2.3138,0.3622 -3.7472,0.2934 -1.4333,-0.069 -3.0542,-0.3247 -4.8624,-0.8651 -1.7032,-0.5498 -3.5211,-1.3496 -5.3862,-2.4339 -2.6015,-1.5124 -5.063,-3.3111 -7.3259,-5.3089 2.3368,0.6412 4.6867,1.1064 6.9942,1.3662 2.7133,0.3056 4.9879,0.05 6.8329,-0.5551 1.8451,-0.6049 3.2662,-1.5552 4.3882,-2.6899 1.122,-1.1348 1.9491,-2.4533 2.6479,-3.8758 0.6987,-1.4226 1.2734,-2.9511 1.8681,-4.5751 0.3636,-0.993 0.7818,-1.9607 1.2433,-2.9023 -0.034,0.9857 -0.018,1.9602 0.072,2.9118 0.062,0.6512 0.1324,1.4455 0.2497,2.2478 0.1581,1.2312 0.525,2.5234 0.7817,3.454 z m -3.3431,-11.596 c -0.3087,0.8754 -0.7145,1.9376 -1.0932,2.9584 -0.3787,1.0208 -0.7284,1.999 -1.0045,2.6594 -0.3813,0.9115 -0.9192,1.8949 -1.557,2.8899 -0.6379,0.995 -1.3766,2.001 -2.1859,2.9291 -1.6188,1.8562 -3.5487,3.3961 -5.5106,3.7782 -1.0822,0.2108 -2.9179,0.141 -5.0265,-0.3117 -2.1086,-0.4528 -4.4772,-1.2986 -6.5319,-2.3405 -2.5438,-1.2323 -4.6477,-2.6618 -5.4286,-3.6259 -0.3223,-0.3979 -0.069,-0.829 0.6472,-1.2287 0.716,-0.3998 1.8942,-0.769 3.4154,-1.0754 2.3706,-0.4775 4.5877,-1.4781 6.6669,-2.8424 2.0792,-1.3641 4.0254,-3.0859 5.8686,-5.0532 1.8432,-1.9672 3.5882,-4.1771 5.2028,-6.6306 1.6146,-2.4536 3.1021,-5.1518 4.3042,-8.2239 0.8496,-1.5498 1.6813,-3.1209 2.4949,-4.7124 0.9565,-1.8711 1.9944,-3.683 3.0991,-5.4405 -0.1834,1.3534 -0.3269,2.7038 -0.4251,4.0502 -0.09,1.2409 -0.2949,2.7657 -0.516,4.4427 -0.011,1.7004 -0.1132,3.426 -0.271,5.0906 -0.1578,1.6645 -0.3696,3.2689 -0.5935,4.7595 -0.2239,1.4905 -0.4583,2.8686 -0.6832,4.0948 -0.2249,1.2261 -0.4403,2.3016 -0.6601,3.1806 -0.07,0.231 -0.1405,0.4488 -0.2121,0.6518 l 10e-5,0 z m 25.712,40.412 c -5.7252,-0.9453 -12.32,-1.5953 -19.383,-2.5298 -3.2833,-0.3972 -6.7504,-1.0073 -10.321,-1.9455 -3.5709,-0.9381 -7.2454,-2.2082 -10.971,-3.8682 -1.299,-0.6494 -2.556,-1.323 -3.7714,-2.0124 -1.8983,-1.0768 -4.3591,-2.547 -6.9984,-4.4408 -2.6394,-1.8937 -5.4517,-4.2147 -8.0562,-6.8342 -2.3024,-2.2052 -4.582,-4.5262 -6.7226,-6.7763 -2.1406,-2.2502 -4.1432,-4.4247 -5.9411,-6.3562 -1.5045,-1.6162 -2.8808,-3.1248 -4.1466,-4.5106 -3.0563,-3.9221 -5.6557,-7.7944 -7.8828,-11.551 -2.227,-3.7563 -4.0817,-7.3979 -5.631,-10.905 -3.0988,-7.0145 -4.9901,-13.479 -6.0264,-19.526 -0.9075,-5.1111 -1.2782,-9.9636 -1.2034,-14.733 0.075,-4.7697 0.5962,-9.459 1.5354,-14.246 1.1052,-5.6324 2.516,-10.667 4.6363,-16.047 1.3084,-3.3126 2.878,-6.7816 4.8484,-10.585 1.9703,-3.8038 4.3411,-7.9433 7.2829,-12.546 2.9418,-4.603 6.455,-9.67 10.741,-15.264 4.286,-5.594 9.3472,-11.714 15.399,-18.361 5.3305,-5.8546 10.229,-11.03 14.71,-15.796 9.2958,-9.93 16.84,-18.222 23.338,-26.279 6.4977,-8.0576 11.952,-15.874 17.391,-24.54 1.636,-2.6063 3.2884,-5.5472 4.937,-8.7032 2.1397,-4.1013 4.2868,-8.5814 6.4339,-13.18 2.1471,-4.5984 4.3003,-9.315 6.3873,-13.914 1.8155,-4.0022 3.7094,-7.9929 5.6167,-11.79 0.4548,-0.9439 0.9399,-1.8912 1.453,-2.8353 1.0717,-1.9717 2.3708,-3.8199 3.4705,-5.1584 1.0997,-1.3387 1.9597,-2.1604 2.0588,-2.0966 0.092,0.059 -0.086,0.4631 -0.4443,1.1312 -0.3579,0.6681 -0.8904,1.5997 -1.4762,2.7075 -0.5858,1.108 -1.222,2.3917 -1.8168,3.767 -0.5948,1.3753 -1.1477,2.8417 -1.6231,4.3235 -0.7741,2.2925 -1.4884,4.6843 -2.1041,6.9609 -0.6157,2.2767 -1.1378,4.4394 -1.589,6.2913 -0.1696,0.6966 -0.3312,1.3505 -0.4849,1.9509 -2.454,9.5833 -5.0478,18.499 -8.5174,27.199 -4.0336,10.122 -9.1875,19.882 -15.663,29.83 -6.476,9.948 -14.278,20.085 -23.484,31.009 -2.0099,2.3855 -4.0881,4.8098 -6.2312,7.284 -1.7064,1.9701 -4.635,5.2337 -7.9155,9.0083 -3.2804,3.7746 -6.9053,8.0705 -10.09,11.966 -6.7594,8.2692 -12.132,15.796 -16.47,22.571 -4.3378,6.7752 -7.645,12.797 -10.221,18.169 -1.9909,4.1608 -3.524,7.9727 -4.7053,11.513 -1.1813,3.54 -2.0115,6.8087 -2.575,9.9222 -0.5634,3.1136 -0.8603,6.073 -0.9475,9.022 -0.087,2.9489 0.035,5.8882 0.3403,8.9782 0.073,0.7396 0.1548,1.4666 0.2459,2.1862 0.3085,2.5244 0.747,4.9637 1.3868,7.528 0.6397,2.5642 1.4797,5.2555 2.6468,8.2632 1.1671,3.0078 2.6589,6.3364 4.6833,10.11 2.0244,3.7736 4.5777,8.002 7.9928,12.643 0.4346,0.5362 0.8851,1.0911 1.3527,1.6645 2.0632,2.5299 4.282,5.2545 6.5321,7.8599 2.2501,2.6053 4.5327,5.082 6.6327,7.1882 1.6254,1.681 3.2006,3.0922 4.5411,4.2123 1.3405,1.1202 2.4454,1.9534 3.1546,2.511 2.3935,1.8817 4.8906,3.5756 7.4965,5.063 3.1877,1.7037 6.2758,2.9993 9.2883,4.0807 3.0126,1.0815 5.9495,1.948 8.7934,2.7182 5.3353,1.4952 10.506,2.9701 15.603,4.7045 2.6762,0.9106 4.7251,1.5974 6.1529,2.1319 1.4278,0.5345 2.2381,0.9136 2.4448,1.1557 0.2066,0.2421 -0.1895,0.3468 -1.2002,0.3062 -1.0106,-0.041 -2.6373,-0.2237 -4.9139,-0.5996 z m -29.158,-62.765 c -1.5628,2.9121 -3.0759,5.6888 -4.5932,8.3069 -1.4037,2.9898 -3.0072,5.5566 -4.7166,7.7993 -1.7093,2.2427 -3.5313,4.1583 -5.4814,5.714 -1.9501,1.5556 -4.0338,2.7459 -6.2833,3.4686 -2.2494,0.7226 -4.6681,0.9705 -7.2353,0.6645 -0.6047,-0.072 -1.2094,-0.1467 -1.814,-0.2236 0.3932,-2.1725 0.8625,-4.2692 1.373,-6.3138 0.1713,-0.6858 0.507,-1.6593 0.9843,-2.8417 0.8801,-2.5083 2.3696,-5.847 4.375,-9.3075 2.0054,-3.4603 4.528,-7.0353 7.2516,-10.235 3.4352,-4.0361 6.5209,-7.1633 9.2236,-9.8631 2.7026,-2.6998 5.0314,-4.9637 7.0976,-7.0954 1.9833,-2.0471 3.7492,-3.9668 5.4566,-5.95 1.7073,-1.9831 3.3567,-4.0283 5.1376,-6.2856 2.2366,-2.8349 3.4914,-4.2407 4.0413,-4.6444 0.55,-0.4038 0.4088,0.209 0.025,1.5193 -0.6194,2.1157 -1.5218,4.5235 -2.5542,7.0934 -1.0324,2.57 -2.1925,5.3033 -3.3552,8.0793 -1.5499,3.7342 -3.1985,7.5243 -4.7195,11.012 -1.521,3.4871 -2.9111,6.6773 -4.2131,9.1036 z m 4.0922,-31.15 c -1.507,1.623 -3.1267,3.2896 -4.9582,5.1338 -1.8315,1.8443 -3.8761,3.8641 -6.2037,6.2447 -1.7481,1.7871 -3.6668,3.7787 -5.7564,6.088 -2.0896,2.3092 -4.3521,4.9345 -6.7389,8.0384 -3.6759,4.7803 -6.2761,9.1959 -8.1297,13.121 -1.8536,3.9248 -2.9667,7.3604 -3.5985,10.357 -0.3246,1.1889 -0.5669,2.3017 -0.7337,3.3558 -0.187,1.1822 -0.3016,1.7382 -0.5279,1.3886 -0.2263,-0.3496 -0.5685,-1.6157 -1.0759,-3.9104 0,-0.015 -0.01,-0.031 -0.011,-0.046 -0.5999,-2.4853 -1.0276,-5.1925 -1.2484,-7.95 -0.2209,-2.7575 -0.2353,-5.5645 -0.057,-8.2637 0.3564,-5.3983 1.4984,-10.342 2.9328,-13.833 1.1861,-2.8867 2.4274,-5.3752 3.9537,-7.8941 1.76,-2.9055 3.8955,-5.8638 6.9217,-9.3297 3.0262,-3.4659 6.9465,-7.4431 12.403,-12.098 4.4536,-3.7993 8.5026,-7.0485 12.132,-10.021 6.2364,-5.1325 11.281,-9.3783 15.454,-13.501 4.1731,-4.123 7.4781,-8.108 10.347,-12.464 0.5691,-0.8641 1.1436,-1.7258 1.7234,-2.5853 -0.3625,1.2302 -0.7147,2.4586 -1.0562,3.6852 -0.8031,2.8842 -2.5251,7.1438 -4.3782,11.435 -1.8531,4.2915 -3.8292,8.6244 -5.4903,11.611 -0.7785,1.3995 -1.7244,2.926 -2.7746,4.526 -1.9108,2.8945 -4.1843,5.9896 -6.4723,8.9355 -2.288,2.946 -4.5875,5.7487 -6.6574,7.9778 z m 2.6134,-33.507 c -0.952,0.9002 -2.7838,2.514 -5.0834,4.597 -2.2997,2.0829 -5.0645,4.6407 -7.8999,7.3971 -1.6592,1.6087 -3.3448,3.281 -4.9812,4.9498 -3.6122,3.6835 -7.3692,7.9347 -10.456,11.867 -3.0872,3.9324 -5.5088,7.5329 -6.7298,9.5347 -1.2535,2.0551 -2.4923,4.4506 -3.6277,7.0772 -2.0108,4.645 -3.6548,10.049 -4.5671,15.375 -0.4562,2.6633 -0.7354,5.302 -0.8378,7.7844 -0.1023,2.4824 -0.028,4.808 0.1907,6.8365 0.2382,2.2074 0.4655,4.1828 0.5951,5.5815 0.1297,1.3988 0.1536,2.2197 -0.01,2.1087 -0.3703,-0.2508 -1.0337,-1.4613 -1.7855,-3.2844 -0.7518,-1.823 -1.5831,-4.2588 -2.3053,-6.9327 -0.7222,-2.6738 -1.3329,-5.584 -1.7433,-8.3394 -0.4104,-2.7553 -0.6233,-5.3542 -0.6435,-7.4173 -0.04,-4.0807 0.2654,-7.8213 0.9439,-11.494 1.0019,-5.4825 2.7745,-10.858 5.7925,-16.836 3.018,-5.9773 7.2997,-12.557 13.53,-20.067 2.2264,-2.6832 4.6984,-5.4876 7.4573,-8.4127 5.3088,-5.6286 10.03,-10.162 14.188,-14.043 4.1583,-3.8808 7.7578,-7.1028 10.907,-9.9537 3.1495,-2.8507 5.8509,-5.3268 8.2544,-7.637 2.4036,-2.3102 4.51,-4.4527 6.4904,-6.5968 3.5962,-3.8934 7.239,-8.2394 10.524,-12.523 3.4845,-4.4932 6.5628,-8.8635 8.7013,-12.57 1.66,-2.8768 3.2353,-5.1558 3.4565,-5.1004 0.2213,0.055 -1.3803,4.9607 -3.3669,10.958 -1.0749,3.2449 -2.1844,6.3473 -3.3519,9.3265 -3.7678,9.8083 -8.1251,18.053 -13.59,25.666 -2.7323,3.8061 -5.7392,7.4572 -9.068,11.096 -3.3289,3.6392 -6.9799,7.2652 -10.984,11.052 z m -50.693,70.951 c -0.3535,-0.3082 -0.9983,-1.5006 -1.7426,-3.2443 -0.7444,-1.7437 -1.5816,-4.04 -2.3365,-6.5309 -0.7549,-2.4909 -1.4257,-5.1749 -1.9167,-7.673 -0.4911,-2.4981 -0.805,-4.8085 -0.92,-6.5576 -0.023,-0.3454 -0.041,-0.7189 -0.056,-1.1166 -0.09,-2.2483 -0.044,-5.2776 0.172,-8.4147 0.2156,-3.1371 0.601,-6.3798 1.068,-9.101 0.7308,-4.2576 1.5225,-7.7523 2.6782,-11.37 1.1557,-3.6179 2.6792,-7.3639 5.0494,-11.939 1.3352,-2.5725 2.9352,-5.4167 4.9102,-8.6286 1.975,-3.2118 4.3248,-6.7918 7.1816,-10.801 2.8569,-4.0089 6.2213,-8.4467 10.246,-13.335 4.0249,-4.8888 8.7121,-10.227 14.22,-16.008 2.9942,-3.142 6.0989,-6.3751 9.0463,-9.4285 2.9474,-3.0534 5.7362,-5.9289 8.0771,-8.3914 1.5472,-1.6238 2.8995,-3.0673 3.9725,-4.2659 8.1736,-9.1298 15.104,-17.78 21.044,-26.598 5.94,-8.818 10.889,-17.802 15.27,-27.531 1.0605,-2.3482 2.0779,-4.7307 3.0709,-7.1534 2.0911,-5.1019 3.9972,-8.969 4.0166,-8.6961 0.019,0.273 -0.8266,3.8748 -1.7309,8.0221 -0.7477,3.4287 -1.5092,6.7684 -2.3259,10.032 -3.1456,12.647 -6.8027,23.872 -11.513,34.206 -4.7098,10.333 -10.468,19.773 -17.591,28.817 -1.4021,1.7939 -2.8567,3.5671 -4.3642,5.325 -3.8767,4.5208 -9.3471,9.9872 -16.189,16.786 -3.421,3.3993 -7.1823,7.1368 -11.233,11.304 -4.051,4.1677 -8.3919,8.7647 -12.95,13.924 -4.3179,4.888 -8.0917,9.8093 -11.356,14.731 -4.2193,6.3683 -7.5559,12.79 -10.015,19.211 -2.4588,6.4206 -4.0435,12.838 -4.7962,19.176 -0.6363,5.2487 -0.6453,10.468 -0.043,15.581 0.3278,2.7823 0.6679,5.2656 0.8913,7.0212 0.2234,1.7556 0.3192,2.7832 0.1639,2.6478 z" />
            <g
               id="g4720"
               transform="translate(-66.022,33.471)">
              <path
                 id="path4722"
                 sodipodi:nodetypes="cssscssc"
                 style="fill:#ffffff"
                 inkscape:connector-curvature="0"
                 d="m 1783.3,624.68 c 0,0 5.347,40.653 13.999,87.904 5.7706,31.513 11.285,67.686 24.001,90.354 31.782,56.656 29.019,89.82 18.655,100.87 -10.364,11.055 -26.255,25.564 -26.255,25.564 0,0 44.219,2.7637 76.692,-42.837 32.473,-45.6007 33.284,-75.808 -19.346,-129.89 -52.475,-53.927 -87.747,-131.97 -87.747,-131.97 z" />
              <path
                 id="path4724"
                 style="fill:#000000"
                 inkscape:connector-curvature="0"
                 d="m 1829.7,911.54 c -1.0208,1.3813 -1.7054,2.6158 -2.0179,3.7065 -0.3124,1.0907 -0.2542,2.037 0.1805,2.8136 0.4346,0.7767 1.2452,1.3838 2.4212,1.7718 1.1759,0.388 2.7179,0.5574 4.5958,0.4294 1.7366,-0.1102 3.779,-0.4922 6.0497,-1.2888 1.3934,-0.4889 2.7823,-1.0432 4.1567,-1.6721 -2.1212,-0.3755 -4.1349,-0.918 -6.0596,-1.5727 -2.1906,-0.7453 -3.5853,-1.4812 -4.522,-2.1919 -0.9367,-0.7108 -1.4064,-1.4125 -1.6507,-2.2427 -0.2372,-0.8065 -0.434,-1.3668 -0.6447,-1.6759 -0.246,-0.359 -0.5108,-0.3808 -0.8919,-0.06 -0.381,0.32 -0.8774,0.9823 -1.6171,1.9834 z m 9.9303,-10.529 c -0.5903,2.1403 -1.2243,4.0809 -1.429,5.7983 -0.2047,1.7173 10e-4,3.2175 0.8165,4.4468 0.8153,1.2293 2.2334,2.2007 4.3686,2.6878 1.0676,0.2436 2.3138,0.3622 3.7472,0.2934 1.4333,-0.069 3.0542,-0.3247 4.8624,-0.8651 1.7032,-0.5498 3.5211,-1.3496 5.3862,-2.4339 2.6015,-1.5124 5.063,-3.3111 7.3259,-5.3089 -2.3368,0.6412 -4.6867,1.1064 -6.9942,1.3662 -2.7133,0.3056 -4.9879,0.05 -6.8329,-0.5551 -1.8451,-0.6049 -3.2662,-1.5552 -4.3882,-2.6899 -1.122,-1.1348 -1.9491,-2.4533 -2.6479,-3.8758 -0.6987,-1.4226 -1.2734,-2.9511 -1.8681,-4.5751 -0.3636,-0.993 -0.7818,-1.9607 -1.2433,-2.9023 0.034,0.9857 0.018,1.9602 -0.072,2.9118 -0.062,0.6512 -0.1324,1.4455 -0.2497,2.2478 -0.1581,1.2312 -0.525,2.5234 -0.7817,3.454 z m 3.3431,-11.596 c 0.3087,0.8754 0.7145,1.9376 1.0932,2.9584 0.3787,1.0208 0.7284,1.999 1.0045,2.6594 0.3813,0.9115 0.9192,1.8949 1.557,2.8899 0.6379,0.995 1.3766,2.001 2.1859,2.9291 1.6188,1.8562 3.5487,3.3961 5.5106,3.7782 1.0822,0.2108 2.9179,0.141 5.0265,-0.3117 2.1086,-0.4528 4.4772,-1.2986 6.5319,-2.3405 2.5438,-1.2323 4.6477,-2.6618 5.4286,-3.6259 0.3223,-0.3979 0.069,-0.829 -0.6472,-1.2287 -0.716,-0.3998 -1.8942,-0.769 -3.4154,-1.0754 -2.3706,-0.4775 -4.5877,-1.4781 -6.6669,-2.8424 -2.0792,-1.3641 -4.0254,-3.0859 -5.8686,-5.0532 -1.8432,-1.9672 -3.5882,-4.1771 -5.2028,-6.6306 -1.6146,-2.4536 -3.1021,-5.1518 -4.3042,-8.2239 -0.8496,-1.5498 -1.6813,-3.1209 -2.4949,-4.7124 -0.9565,-1.8711 -1.9944,-3.683 -3.0991,-5.4405 0.1834,1.3534 0.3269,2.7038 0.4251,4.0502 0.09,1.2409 0.2949,2.7657 0.516,4.4427 0.011,1.7004 0.1132,3.426 0.271,5.0906 0.1578,1.6645 0.3696,3.2689 0.5935,4.7595 0.2239,1.4905 0.4583,2.8686 0.6832,4.0948 0.2249,1.2261 0.4403,2.3016 0.6601,3.1806 0.07,0.231 0.1405,0.4488 0.2121,0.6518 l -10e-5,0 z m -25.712,40.412 c 5.7252,-0.9453 12.32,-1.5953 19.383,-2.5298 3.2833,-0.3972 6.7504,-1.0073 10.321,-1.9455 3.5709,-0.9381 7.2454,-2.2082 10.971,-3.8682 1.299,-0.6494 2.556,-1.323 3.7714,-2.0124 1.8983,-1.0768 4.3591,-2.547 6.9984,-4.4408 2.6394,-1.8937 5.4517,-4.2147 8.0562,-6.8342 2.3024,-2.2052 4.582,-4.5262 6.7226,-6.7763 2.1406,-2.2502 4.1432,-4.4247 5.9411,-6.3562 1.5045,-1.6162 2.8808,-3.1248 4.1466,-4.5106 3.0563,-3.9221 5.6557,-7.7944 7.8828,-11.551 2.227,-3.7563 4.0817,-7.3979 5.631,-10.905 3.0988,-7.0145 4.9901,-13.479 6.0264,-19.526 0.9075,-5.1111 1.2782,-9.9636 1.2034,-14.733 -0.075,-4.7697 -0.5962,-9.459 -1.5354,-14.246 -1.1052,-5.6324 -2.516,-10.667 -4.6363,-16.047 -1.3084,-3.3126 -2.878,-6.7816 -4.8484,-10.585 -1.9703,-3.8038 -4.3411,-7.9433 -7.2829,-12.546 -2.9418,-4.603 -6.455,-9.67 -10.741,-15.264 -4.286,-5.594 -9.3472,-11.714 -15.399,-18.361 -5.3305,-5.8546 -10.229,-11.03 -14.71,-15.796 -9.2958,-9.93 -16.84,-18.222 -23.338,-26.279 -6.4977,-8.0576 -11.952,-15.874 -17.391,-24.54 -1.636,-2.6063 -3.2884,-5.5472 -4.937,-8.7032 -2.1397,-4.1013 -4.2868,-8.5814 -6.4339,-13.18 -2.1471,-4.5984 -4.3003,-9.315 -6.3873,-13.914 -1.8155,-4.0022 -3.7094,-7.9929 -5.6167,-11.79 -0.4548,-0.9439 -0.9399,-1.8912 -1.453,-2.8353 -1.0717,-1.9717 -2.3708,-3.8199 -3.4705,-5.1584 -1.0997,-1.3387 -1.9597,-2.1604 -2.0588,-2.0966 -0.092,0.059 0.086,0.4631 0.4443,1.1312 0.3579,0.6681 0.8904,1.5997 1.4762,2.7075 0.5858,1.108 1.222,2.3917 1.8168,3.767 0.5948,1.3753 1.1477,2.8417 1.6231,4.3235 0.7741,2.2925 1.4884,4.6843 2.1041,6.9609 0.6157,2.2767 1.1378,4.4394 1.589,6.2913 0.1696,0.6966 0.3312,1.3505 0.4849,1.9509 2.454,9.5833 5.0478,18.499 8.5174,27.199 4.0336,10.122 9.1875,19.882 15.663,29.83 6.476,9.948 14.278,20.085 23.484,31.009 2.0099,2.3855 4.0881,4.8098 6.2312,7.284 1.7064,1.9701 4.635,5.2337 7.9155,9.0083 3.2804,3.7746 6.9053,8.0705 10.09,11.966 6.7594,8.2692 12.132,15.796 16.47,22.571 4.3378,6.7752 7.645,12.797 10.221,18.169 1.9909,4.1608 3.524,7.9727 4.7053,11.513 1.1813,3.54 2.0115,6.8087 2.575,9.9222 0.5634,3.1136 0.8603,6.073 0.9475,9.022 0.087,2.9489 -0.035,5.8882 -0.3403,8.9782 -0.073,0.7396 -0.1548,1.4666 -0.2459,2.1862 -0.3085,2.5244 -0.747,4.9637 -1.3868,7.528 -0.6397,2.5642 -1.4797,5.2555 -2.6468,8.2632 -1.1671,3.0078 -2.6589,6.3364 -4.6833,10.11 -2.0244,3.7736 -4.5777,8.002 -7.9928,12.643 -0.4346,0.5362 -0.8851,1.0911 -1.3527,1.6645 -2.0632,2.5299 -4.282,5.2545 -6.5321,7.8599 -2.2501,2.6053 -4.5327,5.082 -6.6327,7.1882 -1.6254,1.681 -3.2006,3.0922 -4.5411,4.2123 -1.3405,1.1202 -2.4454,1.9534 -3.1546,2.511 -2.3935,1.8817 -4.8906,3.5756 -7.4965,5.063 -3.1877,1.7037 -6.2758,2.9993 -9.2883,4.0807 -3.0126,1.0815 -5.9495,1.948 -8.7934,2.7182 -5.3353,1.4952 -10.506,2.9701 -15.603,4.7045 -2.6762,0.9106 -4.7251,1.5974 -6.1529,2.1319 -1.4278,0.5345 -2.2381,0.9136 -2.4448,1.1557 -0.2066,0.2421 0.1895,0.3468 1.2002,0.3062 1.0106,-0.041 2.6373,-0.2237 4.9139,-0.5996 z m 29.158,-62.765 c 1.5628,2.9121 3.0759,5.6888 4.5932,8.3069 1.4037,2.9898 3.0072,5.5566 4.7166,7.7993 1.7093,2.2427 3.5313,4.1583 5.4814,5.714 1.9501,1.5556 4.0338,2.7459 6.2833,3.4686 2.2494,0.7226 4.6681,0.9705 7.2353,0.6645 0.6047,-0.072 1.2094,-0.1467 1.814,-0.2236 -0.3932,-2.1725 -0.8625,-4.2692 -1.373,-6.3138 -0.1713,-0.6858 -0.507,-1.6593 -0.9843,-2.8417 -0.8801,-2.5083 -2.3696,-5.847 -4.375,-9.3075 -2.0054,-3.4603 -4.528,-7.0353 -7.2516,-10.235 -3.4352,-4.0361 -6.5209,-7.1633 -9.2236,-9.8631 -2.7026,-2.6998 -5.0314,-4.9637 -7.0976,-7.0954 -1.9833,-2.0471 -3.7492,-3.9668 -5.4566,-5.95 -1.7073,-1.9831 -3.3567,-4.0283 -5.1376,-6.2856 -2.2366,-2.8349 -3.4914,-4.2407 -4.0413,-4.6444 -0.55,-0.4038 -0.4088,0.209 -0.025,1.5193 0.6194,2.1157 1.5218,4.5235 2.5542,7.0934 1.0324,2.57 2.1925,5.3033 3.3552,8.0793 1.5499,3.7342 3.1985,7.5243 4.7195,11.012 1.521,3.4871 2.9111,6.6773 4.2131,9.1036 z m -4.0922,-31.15 c 1.507,1.623 3.1267,3.2896 4.9582,5.1338 1.8315,1.8443 3.8761,3.8641 6.2037,6.2447 1.7481,1.7871 3.6668,3.7787 5.7564,6.088 2.0896,2.3092 4.3521,4.9345 6.7389,8.0384 3.6759,4.7803 6.2761,9.1959 8.1297,13.121 1.8536,3.9248 2.9667,7.3604 3.5985,10.357 0.3246,1.1889 0.5669,2.3017 0.7337,3.3558 0.187,1.1822 0.3016,1.7382 0.5279,1.3886 0.2263,-0.3496 0.5685,-1.6157 1.0759,-3.9104 0,-0.015 0.01,-0.031 0.011,-0.046 0.5999,-2.4853 1.0276,-5.1925 1.2484,-7.95 0.2209,-2.7575 0.2353,-5.5645 0.057,-8.2637 -0.3564,-5.3983 -1.4984,-10.342 -2.9328,-13.833 -1.1861,-2.8867 -2.4274,-5.3752 -3.9537,-7.8941 -1.76,-2.9055 -3.8955,-5.8638 -6.9217,-9.3297 -3.0262,-3.4659 -6.9465,-7.4431 -12.403,-12.098 -4.4536,-3.7993 -8.5026,-7.0485 -12.132,-10.021 -6.2364,-5.1325 -11.281,-9.3783 -15.454,-13.501 -4.1731,-4.123 -7.4781,-8.108 -10.347,-12.464 -0.5691,-0.8641 -1.1436,-1.7258 -1.7234,-2.5853 0.3625,1.2302 0.7147,2.4586 1.0562,3.6852 0.8031,2.8842 2.5251,7.1438 4.3782,11.435 1.8531,4.2915 3.8292,8.6244 5.4903,11.611 0.7785,1.3995 1.7244,2.926 2.7746,4.526 1.9108,2.8945 4.1843,5.9896 6.4723,8.9355 2.288,2.946 4.5875,5.7487 6.6574,7.9778 z m -2.6134,-33.507 c 0.952,0.9002 2.7838,2.514 5.0834,4.597 2.2997,2.0829 5.0645,4.6407 7.8999,7.3971 1.6592,1.6087 3.3448,3.281 4.9812,4.9498 3.6122,3.6835 7.3692,7.9347 10.456,11.867 3.0872,3.9324 5.5088,7.5329 6.7298,9.5347 1.2535,2.0551 2.4923,4.4506 3.6277,7.0772 2.0108,4.645 3.6548,10.049 4.5671,15.375 0.4562,2.6633 0.7354,5.302 0.8378,7.7844 0.1023,2.4824 0.028,4.808 -0.1907,6.8365 -0.2382,2.2074 -0.4655,4.1828 -0.5951,5.5815 -0.1297,1.3988 -0.1536,2.2197 0.01,2.1087 0.3703,-0.2508 1.0337,-1.4613 1.7855,-3.2844 0.7518,-1.823 1.5831,-4.2588 2.3053,-6.9327 0.7222,-2.6738 1.3329,-5.584 1.7433,-8.3394 0.4104,-2.7553 0.6233,-5.3542 0.6435,-7.4173 0.04,-4.0807 -0.2654,-7.8213 -0.9439,-11.494 -1.0019,-5.4825 -2.7745,-10.858 -5.7925,-16.836 -3.018,-5.9773 -7.2997,-12.557 -13.53,-20.067 -2.2264,-2.6832 -4.6984,-5.4876 -7.4573,-8.4127 -5.3088,-5.6286 -10.03,-10.162 -14.188,-14.043 -4.1583,-3.8808 -7.7578,-7.1028 -10.907,-9.9537 -3.1495,-2.8507 -5.8509,-5.3268 -8.2544,-7.637 -2.4036,-2.3102 -4.51,-4.4527 -6.4904,-6.5968 -3.5962,-3.8934 -7.239,-8.2394 -10.524,-12.523 -3.4845,-4.4932 -6.5628,-8.8635 -8.7013,-12.57 -1.66,-2.8768 -3.2353,-5.1558 -3.4565,-5.1004 -0.2213,0.055 1.3803,4.9607 3.3669,10.958 1.0749,3.2449 2.1844,6.3473 3.3519,9.3265 3.7678,9.8083 8.1251,18.053 13.59,25.666 2.7323,3.8061 5.7392,7.4572 9.068,11.096 3.3289,3.6392 6.9799,7.2652 10.984,11.052 z m 50.693,70.951 c 0.3535,-0.3082 0.9983,-1.5006 1.7426,-3.2443 0.7444,-1.7437 1.5816,-4.04 2.3365,-6.5309 0.7549,-2.4909 1.4257,-5.1749 1.9167,-7.673 0.4911,-2.4981 0.805,-4.8085 0.92,-6.5576 0.023,-0.3454 0.041,-0.7189 0.056,-1.1166 0.09,-2.2483 0.044,-5.2776 -0.172,-8.4147 -0.2156,-3.1371 -0.601,-6.3798 -1.068,-9.101 -0.7308,-4.2576 -1.5225,-7.7523 -2.6782,-11.37 -1.1557,-3.6179 -2.6792,-7.3639 -5.0494,-11.939 -1.3352,-2.5725 -2.9352,-5.4167 -4.9102,-8.6286 -1.975,-3.2118 -4.3248,-6.7918 -7.1816,-10.801 -2.8569,-4.0089 -6.2213,-8.4467 -10.246,-13.335 -4.0249,-4.8888 -8.7121,-10.227 -14.22,-16.008 -2.9942,-3.142 -6.0989,-6.3751 -9.0463,-9.4285 -2.9474,-3.0534 -5.7362,-5.9289 -8.0771,-8.3914 -1.5472,-1.6238 -2.8995,-3.0673 -3.9725,-4.2659 -8.1736,-9.1298 -15.104,-17.78 -21.044,-26.598 -5.94,-8.818 -10.889,-17.802 -15.27,-27.531 -1.0605,-2.3482 -2.0779,-4.7307 -3.0709,-7.1534 -2.0911,-5.1019 -3.9972,-8.969 -4.0166,-8.6961 -0.019,0.273 0.8266,3.8748 1.7309,8.0221 0.7477,3.4287 1.5092,6.7684 2.3259,10.032 3.1456,12.647 6.8027,23.872 11.513,34.206 4.7098,10.333 10.468,19.773 17.591,28.817 1.4021,1.7939 2.8567,3.5671 4.3642,5.325 3.8767,4.5208 9.3471,9.9872 16.189,16.786 3.421,3.3993 7.1823,7.1368 11.233,11.304 4.051,4.1677 8.3919,8.7647 12.95,13.924 4.3179,4.888 8.0917,9.8093 11.356,14.731 4.2193,6.3683 7.5559,12.79 10.015,19.211 2.4588,6.4206 4.0435,12.838 4.7962,19.176 0.6363,5.2487 0.6453,10.468 0.043,15.581 -0.3278,2.7823 -0.6679,5.2656 -0.8913,7.0212 -0.2234,1.7556 -0.3192,2.7832 -0.1639,2.6478 z" />
            </g>
          </g>
          <path
             id="path4726"
             d="m 1742.2,1169.8 c 0,0 6.2183,12.782 15.2,43.528 4.0319,13.802 5.3646,32.932 7.8935,45.257 3.1048,15.131 6.9613,22.108 6.9613,22.108"
             sodipodi:nodetypes="cssc"
             style="fill:#ffffff;stroke:#ffffff;stroke-width:5"
             inkscape:connector-curvature="0" />
          <path
             id="path4728"
             sodipodi:nodetypes="cc"
             style="fill:#ffffff;stroke:#ffffff;stroke-width:5"
             inkscape:connector-curvature="0"
             d="m 1715.8,1249 c 16.688,12.165 36.476,48.529 34.289,48.681" />
        </g>
      </g>
      <path
         id="path4726-7"
         d="m 1717.3,1032.7 c -3.5059,2.9215 -43.054,-20.712 -53.995,-41.103 -8.9005,-16.587 -15.849,-36.99 -17.547,-56.701 -1.0105,-11.728 4.5154,-35.025 4.5154,-35.025"
         sodipodi:nodetypes="csac"
         style="fill:none;stroke:#ffffff;stroke-width:5"
         inkscape:connector-curvature="0" />
      <path
         id="path4748"
         sodipodi:nodetypes="csac"
         style="fill:none;stroke:#ffffff;stroke-width:5"
         inkscape:connector-curvature="0"
         d="m 1776.5,1032.7 c 3.5059,2.9215 43.054,-20.712 53.995,-41.103 8.9005,-16.587 15.849,-36.99 17.547,-56.701 1.0105,-11.728 -4.5154,-35.025 -4.5154,-35.025" />
    </g>
  </g>
</svg>
