<?xml version="1.0" encoding="UTF-8" standalone="no"?>
<svg
   xmlns:dc="http://purl.org/dc/elements/1.1/"
   xmlns:cc="http://creativecommons.org/ns#"
   xmlns:rdf="http://www.w3.org/1999/02/22-rdf-syntax-ns#"
   xmlns:svg="http://www.w3.org/2000/svg"
   xmlns="http://www.w3.org/2000/svg"
   xmlns:sodipodi="http://sodipodi.sourceforge.net/DTD/sodipodi-0.dtd"
   xmlns:inkscape="http://www.inkscape.org/namespaces/inkscape"
   width="380"
   height="400"
   id="svg3384"
   version="1.1"
   inkscape:version="0.91 r13725"
   sodipodi:docname="swallow.svg">
  <metadata
     id="metadata3392">
    <rdf:RDF>
      <cc:Work
         rdf:about="">
        <dc:format>image/svg+xml</dc:format>
        <dc:type
           rdf:resource="http://purl.org/dc/dcmitype/StillImage" />
      </cc:Work>
    </rdf:RDF>
  </metadata>
  <defs
     id="defs3390" />
  <sodipodi:namedview
     pagecolor="#ffffff"
     bordercolor="#666666"
     borderopacity="1"
     objecttolerance="10"
     gridtolerance="10"
     guidetolerance="10"
     inkscape:pageopacity="0"
     inkscape:pageshadow="2"
     inkscape:window-width="1920"
     inkscape:window-height="1147"
     id="namedview3388"
     showgrid="false"
     inkscape:zoom="2.3025"
     inkscape:cx="308.49416"
     inkscape:cy="156.2245"
     inkscape:window-x="0"
     inkscape:window-y="0"
     inkscape:window-maximized="1"
     inkscape:current-layer="svg3384" />
  <path
     style="fill:#000000;stroke:none;fill-opacity:1"
     d="m 180.58849,51.868621 c 3.18542,2.515811 33.91613,45.501763 36.29055,39.037893 2.1357,-5.814021 -1.4133,-9.446355 -1.70116,-10.760016 -0.35472,-1.618736 -0.94999,-2.697243 -1.76008,-5.577606 -0.59096,-2.10124 -0.91188,-2.581633 -1.63495,-4.838165 C 210.41796,64.641736 211.262,66.9371 208.427,61 203.376,50.4197 193.11662,47.686989 182.86862,50.565689 M 189,160 l 2,0 c 0.201,-24.33 8.743,-51.599 26,-69 -6.11654,-6.561037 -25.06386,-38.058953 -33.50271,-39.93443 -3.1699,-0.558201 -8.36029,4.72473 -9.99829,6.93903 -4.663,6.3047 -3.362,14.7698 -5.542,21.9954 -0.929,3.078 -3.804,6.7697 -3.655,10 0.146,3.1732 3.387,5.7028 5.231,8 3.163,3.939 5.834,8.427 7.978,13 6.95,14.823 11.353,32.593 11.489,49 m -22,161 c 6.449,-4.803 7.103,-11.561 8.6,-19 2.012,-9.996 4.433,-19.866 5.567,-30 5.076,-45.37 12.114,-91.722 1.598,-137 -3.425,-14.745 -8.971,-30.048 -19.78,-40.9962 -4.022,-4.0738 -9.665,-9.4544 -15.984,-8.5162 -6.374,0.9464 -9.552,7.9846 -11.074,13.5124 -3.647,13.244 -1.131,26.841 1.522,40 5.696,28.255 18.405,54.683 24.102,83 3.304,16.42 6.676,33.244 7.41,50 0.723,16.523 -1.623,32.609 -1.961,49 M 220,91 c 5.99427,7.962261 24.93313,33.88412 26,27 0,-10.28 -1.901,-38.7276 -18.998,-31.4676 -2.592,1.1005 -2.60945,1.041458 -4.83045,2.730358 M 201,285 c 3.365,-2.371 7.07,-5.231 8.973,-9 3.445,-6.824 2.248,-17.492 3.183,-25 2.261,-18.162 6.512,-36.509 11.869,-54 1.70209,-6.0483 3.6619,-12.39778 5.79816,-19.89142 1.54167,-3.3081 1.75676,-4.71184 2.45697,-7.04018 2.95511,-7.07868 2.09887,-4.9924 3.37287,-9.0684 2.96,-9.473 5.616,-19.205 7.266,-29 0.634,-3.765 1.52127,-8.59473 2.10666,-12.86862 0.001,-8.72352 -22.11179,-31.147238 -24.53618,-29.020208 C 217.61148,91.102372 211.188,100.875 209.229,104 c -6.566,10.477 -10.355,22.946 -12.78,35 -5.999,29.818 -4.609,59.928 -2.539,90 1.28,18.582 2.753,37.834 7.09,56 m -41,-53 c 0,33.971 -0.52284,68.40058 -4.78284,102.10858 6.55,-5.634 7.59884,-17.84858 8.62684,-26.10858 2.264,-18.189 2.489,-35.797 0.311,-54 -0.837,-6.998 -1.085,-15.613 -4.155,-22 m 59,0 c -1.012,12.8 -4,26.71766 -4,39.62866 2.23,-1.624 5.22904,-1.46375 5.09184,-5.78784 0.069,-2.771 -0.008,-7.99382 -0.0768,-10.84082 -0.172,-7.046 1.727,-16.465 -1.015,-23 m 0.89142,29.35396 c 0.10858,2.60586 -4.55715,4.25396 -4.85711,8 C 214.01393,274.89012 214.85,286.566 214.985,292 c 0.456,18.315 6.326,34.352 10.015,52 2.113,-5.414 -0.632,-13.242 -1.025,-19 -0.888,-13.006 -2.365,-25.979 -2.936,-39 -0.263,-6.003 -0.43124,-10.91471 -0.93042,-16.39414 m -12.06298,5.35397 c -2.615,2.624 -8.74486,2.4544 -7.382,8.89142 0.90444,6.2402 2.9844,16.95175 4.3364,22.14875 3.468,13.332 7.904,26.618 11,40 1.959,-5.463 -1.105,-12.404 -1.841,-18 -1.256,-9.544 -2.909,-19.377 -3.144,-29 -0.16,-6.503 0.97611,-22.12712 0.9394,-29.2519 m -44.886,50.68621 C 166.30697,327.18598 164.122,337.129 163,346 c 3.769,-5.703 9.81804,-29.38572 11.12595,-36.64061 m -18.86319,23.88057 C 154.85242,337.327 154.18,340.108 154,344 c 2.166,-2.908 6.93248,-19.82563 7.88599,-23.89794"
     id="path3386"
     inkscape:connector-curvature="0"
     sodipodi:nodetypes="cssscccccccccccccccccssccccccccccccccccccccscccccccccccccccccccccccccccccccc" />
</svg>
